<svg width="24" height="24" viewBox="0 0 24 24" fill="none" xmlns="http://www.w3.org/2000/svg">
<path d="M22.4523 1.92267C22.7452 2.21557 22.7452 2.69044 22.4523 2.98333L16.1393 9.29634C15.9927 9.11579 15.8353 8.94105 15.6672 8.77297C15.4768 8.58252 15.2778 8.40582 15.0715 8.24289L21.3917 1.92267C21.6846 1.62978 22.1594 1.62978 22.4523 1.92267ZM15.0277 9.34728C12.7822 7.10177 9.14151 7.10177 6.896 9.34728L6.65197 9.59131L14.7837 17.723L15.0277 17.479C17.2732 15.2335 17.2732 11.5928 15.0277 9.34728ZM1.88378 12.9659L5.49663 10.5573L13.8177 18.8784L11.4091 22.4912C11.2845 22.6782 11.0826 22.7994 10.859 22.8215C10.6354 22.8437 10.4136 22.7644 10.2548 22.6055L1.76948 14.1202C1.6106 13.9613 1.53132 13.7396 1.55346 13.516C1.5756 13.2924 1.69683 13.0905 1.88378 12.9659Z" fill="white"/>
</svg>
