<svg width="24" height="24" viewBox="0 0 24 24" fill="none" xmlns="http://www.w3.org/2000/svg">
<path d="M9.686 3.85207L3.12727 15.777C2.57744 16.7767 3.30069 17.9999 4.44159 17.9999H12.3756C12.1507 17.3424 12.0299 16.6338 12.0049 15.883L12.0046 15.8746L12 15.5926V13.0833C12 12.3398 12.5887 11.6667 13.4 11.6667C14.2912 11.6667 15.1291 11.3154 15.9554 10.4717L12.3146 3.85207C11.7448 2.81591 10.2559 2.81591 9.686 3.85207ZM11.0003 7.74992C11.4145 7.74992 11.7503 8.0857 11.7503 8.49992V12.4999C11.7503 12.9141 11.4145 13.2499 11.0003 13.2499C10.5861 13.2499 10.2503 12.9141 10.2503 12.4999V8.49992C10.2503 8.0857 10.5861 7.74992 11.0003 7.74992ZM11.7503 14.7499C11.7503 15.1641 11.4145 15.4999 11.0003 15.4999C10.5861 15.4999 10.2503 15.1641 10.2503 14.7499C10.2503 14.3357 10.5861 13.9999 11.0003 13.9999C11.4145 13.9999 11.7503 14.3357 11.7503 14.7499Z" fill="#F36D38"/>
<path d="M19 12.3471C18.6556 12.2024 18.3225 12.0083 18 11.7644C17.7552 11.5792 17.5165 11.3652 17.2837 11.1223C17.1276 10.9594 16.8741 10.9592 16.7178 11.122C15.7233 12.1575 14.6234 12.6667 13.4 12.6667C13.1791 12.6667 13 12.8532 13 13.0833V15.5844L13.0044 15.8497C13.0309 16.6466 13.1783 17.364 13.4447 18C13.5953 18.3595 13.7839 18.693 14.0102 19C14.2847 19.3724 14.6146 19.706 14.9995 20C15.5231 20.4 16.1482 20.7268 16.8735 20.9786C16.9556 21.0071 17.0444 21.0071 17.1265 20.9786C19.687 20.0896 21 18.2663 21 15.5844V13.0833L20.9919 12.9994C20.9546 12.8095 20.7933 12.6667 20.6 12.6667C20.3966 12.6667 20.1966 12.6526 20 12.6245C19.6565 12.5753 19.3233 12.4829 19 12.3471Z" fill="#F36D38"/>
</svg>
