<svg width="207" height="307" viewBox="0 0 207 307" fill="none" xmlns="http://www.w3.org/2000/svg">
<path d="M207 75C207 65.0589 198.941 57 189 57H72C62.0589 57 54 65.0589 54 75V136C54 145.941 62.0589 154 72 154H189C198.941 154 207 145.941 207 136V75Z" fill="#587D71"/>
<path d="M153 227C153 217.059 144.941 209 135 209H18C8.05887 209 0 217.059 0 227V288C0 297.941 8.05887 306 18 306H135C144.941 306 153 297.941 153 288V227Z" fill="#587D71"/>
<mask id="mask0_1023_4401" style="mask-type:alpha" maskUnits="userSpaceOnUse" x="53" y="0" width="155" height="154">
<path d="M207 19C207 9.05888 198.941 1 189 1H72C62.0589 1 54 9.05888 54 19V135C54 144.941 62.0589 153 72 153H189C198.941 153 207 144.941 207 135V19Z" fill="#FD5001"/>
<path d="M189 1.5H72V0.5H189V1.5ZM54.5 19V135H53.5V19H54.5ZM72 152.5H189V153.5H72V152.5ZM206.5 135V19H207.5V135H206.5ZM189 152.5C198.665 152.5 206.5 144.665 206.5 135H207.5C207.5 145.217 199.217 153.5 189 153.5V152.5ZM54.5 135C54.5 144.665 62.335 152.5 72 152.5V153.5C61.7827 153.5 53.5 145.217 53.5 135H54.5ZM72 1.5C62.335 1.5 54.5 9.33502 54.5 19H53.5C53.5 8.78273 61.7827 0.5 72 0.5V1.5ZM189 0.5C199.217 0.5 207.5 8.78274 207.5 19H206.5C206.5 9.33502 198.665 1.5 189 1.5V0.5Z" fill="#FD5001"/>
</mask>
<g mask="url(#mask0_1023_4401)">
<path d="M171.764 18.442C169.555 15.4653 164.326 15.5081 164.08 15.551C164.08 15.551 161.097 15.5938 156.566 16.0864C151.148 16.686 149.864 19.6841 149.864 19.6841C148.826 21.5258 148.845 23.8601 148.939 26.0659C149.052 29.1925 149.317 32.5333 151.091 34.9318C151.903 36.024 152.96 36.7949 154.093 37.4159C153.281 39.5146 151.695 41.2279 149.751 41.8917C151.431 43.091 153.715 42.6841 155.396 41.4848C156.34 40.7996 157.151 39.9001 157.869 38.915C159.776 39.4718 162.381 39.1934 164.326 38.9578C167.327 38.6152 169.045 38.1012 170.688 36.0239C173.255 32.7902 173.274 30.0063 173.255 26.0444C173.255 23.5603 173.69 21.0333 171.764 18.442Z" fill="#112445"/>
<path d="M158.51 27.1578C158.51 28.1857 157.774 29.0209 156.868 29.0209C155.962 29.0209 155.226 28.1857 155.226 27.1578C155.226 26.1299 155.962 25.2947 156.868 25.2947C157.774 25.2947 158.51 26.1299 158.51 27.1578Z" fill="#EBF4FA"/>
<path d="M163.268 27.1578C163.268 28.1857 162.531 29.0209 161.625 29.0209C160.719 29.0209 159.983 28.1857 159.983 27.1578C159.983 26.1299 160.719 25.2947 161.625 25.2947C162.531 25.2947 163.268 26.1299 163.268 27.1578Z" fill="#EBF4FA"/>
<path d="M167.818 27.1578C167.818 28.1857 167.082 29.0209 166.176 29.0209C165.27 29.0209 164.533 28.1857 164.533 27.1578C164.533 26.1299 165.27 25.2947 166.176 25.2947C167.082 25.2947 167.818 26.1299 167.818 27.1578Z" fill="#EBF4FA"/>
<path d="M94.6602 55.7212C92.4153 55.1153 89.9375 53.9204 88.7402 54.2738C87.7591 54.5599 86.5119 56.0578 85.6638 57.2191C85.1317 55.6034 84.6162 53.9709 84.1506 52.3215C85.9798 49.7296 89.3888 48.3832 92.4652 49.0396C93.9286 49.3425 95.4086 50.0662 96.8553 49.7128C99.0337 49.191 99.9816 46.6833 101.378 44.9161C103.457 42.2401 107.165 40.9778 110.425 41.853C112.57 42.4252 114.831 43.8221 116.827 42.846C118.373 42.0886 121.45 34.801 122.248 33.2863C122.365 32.024 122.73 30.7954 123.362 29.6846C124.776 27.1432 127.453 25.2919 130.396 24.8374C133.34 24.3662 136.483 25.3087 138.645 27.2779C139.343 27.9174 139.942 28.6411 140.69 29.247C141.471 29.8697 142.386 30.3242 143.218 30.8796C146.244 32.8487 148.339 36.2148 148.422 39.7492C148.422 40.0858 148.422 40.4224 148.389 40.759C148.472 47.0536 141.172 57.7241 138.362 59.3566C135.585 60.9723 132.591 62.588 129.399 62.2178C127.32 61.9653 125.374 61.0396 123.396 60.3496C121.4 59.6596 119.205 59.222 117.226 59.9793C113.451 61.4099 111.855 66.5937 107.93 67.4689C105.187 68.0748 102.493 66.2571 99.6989 65.9878C97.1546 65.7353 94.5106 66.863 92.9308 68.9163C92.7312 69.1856 92.4652 69.4044 92.1659 69.5558C90.8688 70.1281 90.2535 69.0509 89.8378 68.1253C88.5739 65.2977 87.4432 62.4197 86.3955 59.5081C87.0441 58.5992 87.3268 58.1112 88.2746 57.034C89.9708 55.1153 93.9286 58.0775 96.4229 57.3201C98.2688 56.7647 98.4683 54.9302 98.4683 54.9302C97.3874 55.8222 95.9573 56.1588 94.6103 55.7886L94.6602 55.7212Z" fill="#112445"/>
<path d="M149.72 99.3288C149.686 99.6318 147.242 103.924 148.24 106.818C149.237 109.713 150.618 111.733 150.618 111.733L151.133 111.632C151.499 110.874 151.599 110.016 151.432 109.191L150.934 106.802L152.114 109.326L151.998 112.12C151.998 112.12 151.998 112.255 152.031 112.457C152.147 113.5 152.996 114.308 154.043 114.342L155.357 114.392C155.357 114.392 155.972 114.207 156.454 112.17C156.654 111.295 156.554 106.381 156.538 106.229C156.504 106.078 155.008 99.7328 154.974 99.6149C154.941 99.4971 149.753 99.2952 149.753 99.2952L149.72 99.3288Z" fill="#FFA81F"/>
<path d="M153.76 114.358C153.561 113.214 153.943 112.07 154.143 110.942C154.392 109.427 154.293 107.828 153.777 106.381" stroke="#00113E" stroke-width="0.39" stroke-linecap="square" stroke-linejoin="round"/>
<path d="M155.041 114.409C155.29 113.113 155.54 111.8 155.623 110.487C155.723 109.158 155.656 107.811 155.29 106.549" stroke="#00113E" stroke-width="0.39" stroke-linecap="square" stroke-linejoin="round"/>
<path d="M151.033 107.307C150.684 106.078 150.268 104.866 149.769 103.688" stroke="#00113E" stroke-width="0.39" stroke-linecap="square" stroke-linejoin="round"/>
<path d="M143.849 79.4521L151.915 78.0551L149.138 62.1672L140.524 63.2444L143.849 79.4521Z" fill="#FFA81F"/>
<path d="M149.52 101.752L155.141 101.029L151.915 78.0552L143.849 79.4521L149.52 101.752Z" fill="#FFA81F"/>
<path d="M127.087 48.0802L125.99 55.7212L134.67 56.9835L136.799 44.2261L127.087 48.0802Z" fill="#FFA81F"/>
<path d="M124.46 33.0171C124.393 33.1854 122.88 40.5571 122.83 42.358C122.78 44.1589 123.878 47.3735 127.253 48.114C131.328 49.006 136.998 44.5964 136.998 44.5964L138.661 32.9835C138.661 32.9835 137.065 28.4729 132.142 27.7997C127.22 27.1265 124.46 33.0171 124.46 33.0171Z" fill="#FFA81F"/>
<path d="M123.928 35.508C123.928 35.508 124.393 35.508 124.709 35.609C127.004 36.4337 127.137 38.2009 127.137 38.2009C127.137 38.2009 126.123 39.0088 124.227 38.4365C123.861 38.3356 123.745 38.2514 123.445 38.0494L123.911 35.4912L123.928 35.508Z" fill="white"/>
<path d="M134.803 35.6594C133.889 34.9357 132.142 34.7169 131.062 35.0872" stroke="#00113E" stroke-width="0.39" stroke-linecap="square" stroke-linejoin="round"/>
<path d="M127.885 38.7227C127.536 39.1434 127.187 39.581 126.854 40.0354C126.771 40.1532 126.671 40.3047 126.705 40.4562C126.738 40.574 126.838 40.6582 126.937 40.7255C127.187 40.8938 127.47 41.0453 127.752 41.1462" stroke="#000E39" stroke-width="0.39" stroke-linecap="square" stroke-linejoin="round"/>
<path d="M136.566 40.3215C136.749 39.4127 138.229 39.0256 139.16 39.0929C140.075 39.1602 140.889 39.9008 141.139 40.7928C141.405 41.6848 141.139 42.6946 140.573 43.4183C140.008 44.142 139.127 44.6133 138.229 44.7648C137.331 44.9331 136.383 44.8321 135.502 44.5628L136.582 40.3215H136.566Z" fill="#FFA81F"/>
<path d="M133.573 46.5994C133.573 46.5994 132.359 50.4367 126.821 49.915L127.087 48.0636C128.168 48.2487 130.762 48.2151 133.573 46.5994Z" fill="#00113E"/>
<path d="M127.204 34.7002C126.405 34.1616 125.441 33.8755 124.476 33.8923" stroke="#00113E" stroke-width="0.39" stroke-linecap="square" stroke-linejoin="round"/>
<path d="M124.227 38.4365C123.861 38.3356 123.745 38.2514 123.445 38.0494L123.578 37.0565C123.612 36.8713 123.628 36.703 123.678 36.5347L123.911 35.5081C123.911 35.5081 124.377 35.5081 124.693 35.609C124.942 35.6932 125.075 35.7605 125.275 35.8615C125.275 35.8952 125.358 38.0326 124.759 38.5544C124.609 38.5207 124.36 38.4702 124.194 38.4197L124.227 38.4365Z" fill="#00113E"/>
<path d="M137.314 40.86C137.597 40.6244 137.929 40.4224 138.279 40.3551C138.644 40.271 139.027 40.3214 139.343 40.5234C139.842 40.8432 140.075 41.5164 139.908 42.1055C139.742 42.6777 139.243 43.1321 138.678 43.3004C138.112 43.4687 137.48 43.3678 136.948 43.1153" stroke="#000E39" stroke-width="0.39" stroke-linecap="square" stroke-linejoin="round"/>
<path d="M135.485 38.3692C135.485 38.3692 134.853 36.703 132.409 36.7703C129.981 36.8376 129.515 38.4533 129.515 38.4533C129.515 38.4533 130.995 39.8166 132.774 39.682C134.753 39.5305 135.485 38.3692 135.485 38.3692Z" fill="white"/>
<path d="M132.242 36.7197C132.242 36.7197 132.325 36.7197 132.359 36.7197C132.359 36.7534 132.941 38.4196 131.96 39.665C130.48 39.4967 129.332 38.4196 129.332 38.4196C129.332 38.4196 129.798 36.8039 132.226 36.7366L132.242 36.7197Z" fill="#00113E"/>
<path d="M126.738 42.7619C127.22 42.9134 127.769 42.8966 128.235 42.6946C128.717 42.4927 129.116 42.1392 129.349 41.668" stroke="#000E39" stroke-width="0.39" stroke-linecap="square" stroke-linejoin="round"/>
<path d="M128.251 63.2613C127.919 63.4128 102.027 59.9794 100.564 57.6231C99.1002 55.2669 91.8167 39.8839 91.8167 39.8839L97.4207 37.8474L106.966 52.1701L125.823 53.2472L128.235 63.2445L128.251 63.2613Z" fill="#FFA81F"/>
<path d="M136.632 78.0889L142.187 64.7929L146.543 63.2613C146.543 63.2613 140.873 54.6442 139.542 54.5095L129.166 53.3819L124.526 53.2304C123.578 53.0958 120.02 53.4324 119.122 53.7522L119.155 62.2683C118.939 67.4521 120.302 77.4325 120.302 77.4325L117.16 86.42L142.037 87.7496L136.632 78.1058V78.0889Z" fill="#FFA81F"/>
<path d="M120.219 52.6077L129.166 53.365L138.412 54.3749C139.775 54.3412 142.885 54.6778 146.543 57.6904C147.707 58.6498 150.352 63.7662 150.352 63.7662L141.738 72.1309L140.84 70.6162L139.676 75.4297L118.407 74.807L119.155 62.2683L120.219 52.6245V52.6077Z" fill="#ED73EE"/>
<path d="M141.272 68.1252C142.103 65.4155 142.935 62.7226 143.766 60.0129" stroke="#00113E" stroke-width="0.39" stroke-linecap="square" stroke-linejoin="round"/>
<path d="M120.219 52.6076L112.952 52.5066L115.979 61.8306L119.172 62.2514L120.219 52.6076Z" fill="#ED73EE"/>
<path d="M119.371 56.8994C119.005 63.4633 118.806 68.2263 118.44 74.7901" stroke="#00113E" stroke-width="0.39" stroke-linecap="square" stroke-linejoin="round"/>
<path d="M152.38 170.993C152.164 153.792 148.672 110.74 146.227 102.156C146.144 101.853 146.045 101.534 145.945 101.231C144.831 90.6107 139.143 81.0173 139.143 81.0173L118.124 82.1618C118.124 82.1618 114.948 89.6513 112.603 99.5981C112.404 100.271 112.221 100.945 112.054 101.635C109.976 110.302 108.246 153.455 108.729 170.673C108.778 172.575 112.021 174.83 112.021 174.83L111.705 179.492L122.032 182.067C122.032 182.067 121.849 176.395 121.932 176.244C121.932 176.244 125.541 174.594 125.973 172.844C128.933 160.591 126.771 140.294 127.486 137.382C128.285 134.1 129 121.208 129.349 114.173C129.931 120.788 131.278 135.06 132.259 138.51C133.074 141.405 131.76 161.77 135.219 173.888C135.718 175.621 139.393 177.119 139.393 177.119C139.476 177.27 139.526 182.942 139.526 182.942L149.736 179.93L149.237 175.284C149.237 175.284 152.38 172.878 152.364 170.993H152.38Z" fill="#6537D3"/>
<path d="M119.671 83.0537C118.141 88.5909 115.513 92.5966 114.216 100.49C111.273 118.398 110.541 146.084 110.541 173.13" stroke="white" stroke-width="0.39" stroke-linecap="square" stroke-linejoin="round"/>
<path d="M138.462 81.8252C140.208 87.2951 143.218 95.4915 144.448 100.894C149.653 123.985 149.57 146.488 150.684 173.517" stroke="white" stroke-width="0.39" stroke-linecap="square" stroke-linejoin="round"/>
<path d="M89.8212 26.7899C89.8212 26.7899 90.7856 26.5374 91.4009 27.5641C92.0162 28.5907 94.6104 32.5795 94.6104 32.5795L95.1425 40.0523L92.2989 41.0452L89.0063 37.0564C89.0063 37.0564 85.0319 35.7605 85.7969 33.5725C85.7969 33.5725 84.7825 31.8727 86.1627 31.4351C86.1627 31.4351 86.4621 29.5837 87.4265 29.4996C88.391 29.4154 92.2656 31.7885 92.2656 31.7885C92.2656 31.7885 87.9753 28.4898 89.8045 26.8236L89.8212 26.7899Z" fill="#FFA81F"/>
<path d="M97.5538 38.0496C97.5538 38.0496 97.587 34.0103 96.3565 31.5025L93.463 27.5642C93.463 27.5642 92.7646 27.5642 92.4985 28.877C92.2158 30.3076 93.4464 32.3609 93.4464 32.3609C93.1969 33.2024 92.4486 34.9191 92.8643 36.316C93.2634 37.7129 94.9097 38.9584 94.9097 38.9584L97.5371 38.0496H97.5538Z" fill="#FFA81F"/>
<path d="M93.0805 37.2585C92.5816 35.7606 92.7479 34.0271 93.5295 32.6638C93.5794 32.5796 93.6292 32.4955 93.6126 32.4113C93.6126 32.3272 93.5295 32.243 93.4796 32.1757C92.6481 31.25 92.2989 29.8868 92.5317 28.6582C92.6315 28.2037 92.831 27.7157 93.2634 27.5305" stroke="#FF7439" stroke-width="0.39" stroke-linecap="square" stroke-linejoin="round"/>
<path d="M129.798 26.8739C134.288 26.369 137.214 28.7084 137.214 28.7084L139.293 31.3844C139.576 31.5359 139.193 33.8417 139.459 34.0268C139.626 34.1278 139.792 34.2456 139.875 34.4307C139.975 34.6495 139.858 34.9188 139.875 35.1713C139.925 36.686 139.393 38.4532 137.896 39.2274C136.915 37.5612 136.682 35.3227 137.115 33.4041C135.934 32.8823 134.886 32.024 134.205 30.9132C131.511 33.7407 127.054 34.6663 123.462 33.1516C123.462 33.1516 125.341 27.3788 129.831 26.8739H129.798Z" fill="#112445"/>
<path d="M100.63 11.2722C102.592 8.9496 107.199 8.96643 107.398 9.00009C107.398 9.00009 110.026 9.03375 114.017 9.42085C118.789 9.8921 119.92 12.2484 119.92 12.2484C120.835 13.6958 120.818 15.5471 120.735 17.2638C120.635 19.7211 120.402 22.3634 118.839 24.2316C118.124 25.09 117.193 25.6959 116.195 26.1839C116.91 27.8333 118.324 29.1798 120.02 29.7183C118.54 30.6608 116.528 30.341 115.048 29.3985C114.216 28.86 113.501 28.1531 112.869 27.3789C111.19 27.8165 108.895 27.5977 107.165 27.4126C104.521 27.1433 103.008 26.7393 101.561 25.1068C99.2998 22.5654 99.2831 20.3774 99.2998 17.247C99.2998 15.2947 98.9173 13.3087 100.613 11.2722H100.63Z" fill="#CCBFD5"/>
<path d="M113.767 19.5864C114.566 19.5864 115.214 18.9309 115.214 18.1222C115.214 17.3135 114.566 16.658 113.767 16.658C112.968 16.658 112.32 17.3135 112.32 18.1222C112.32 18.9309 112.968 19.5864 113.767 19.5864Z" fill="#000E39"/>
<path d="M109.577 19.5864C110.376 19.5864 111.023 18.9309 111.023 18.1222C111.023 17.3135 110.376 16.658 109.577 16.658C108.778 16.658 108.13 17.3135 108.13 18.1222C108.13 18.9309 108.778 19.5864 109.577 19.5864Z" fill="#000E39"/>
<path d="M104.106 18.1222C104.106 18.9301 104.754 19.5864 105.552 19.5864C106.351 19.5864 106.999 18.9301 106.999 18.1222C106.999 17.3143 106.351 16.658 105.552 16.658C104.754 16.658 104.106 17.3143 104.106 18.1222Z" fill="#000E39"/>
</g>
<mask id="mask1_1023_4401" style="mask-type:alpha" maskUnits="userSpaceOnUse" x="4" y="171" width="155" height="136">
<path d="M158 190C158 180.059 149.941 172 140 172H23C13.0589 172 5 180.059 5 190V288C5 297.941 13.0589 306 23 306H140C149.941 306 158 297.941 158 288V190Z" fill="#FD5001"/>
<path d="M140 172.5H23V171.5H140V172.5ZM5.5 190V288H4.5V190H5.5ZM23 305.5H140V306.5H23V305.5ZM157.5 288V190H158.5V288H157.5ZM140 305.5C149.665 305.5 157.5 297.665 157.5 288H158.5C158.5 298.217 150.217 306.5 140 306.5V305.5ZM5.5 288C5.5 297.665 13.335 305.5 23 305.5V306.5C12.7827 306.5 4.5 298.217 4.5 288H5.5ZM23 172.5C13.335 172.5 5.5 180.335 5.5 190H4.5C4.5 179.783 12.7827 171.5 23 171.5V172.5ZM140 171.5C150.217 171.5 158.5 179.783 158.5 190H157.5C157.5 180.335 149.665 172.5 140 172.5V171.5Z" fill="#FD5001"/>
</mask>
<g mask="url(#mask1_1023_4401)">
<path d="M103.853 325.239C102.32 323.735 100.466 322.362 99.794 320.318C98.8741 317.544 100.422 314.375 99.4581 311.615C98.7281 309.513 96.6985 308.111 95.7494 306.096C94.9609 304.402 95.0047 302.46 94.9025 300.591C94.6105 295.583 93.0627 290.779 91.1791 286.092C89.6897 277.068 88.6823 269.636 88.2004 267.49C86.2876 259.021 80.6806 249.501 78.8992 247.048C78.6364 246.682 78.1691 246.507 77.7165 246.609L71.7883 247.997C71.6131 248.04 71.4379 248.04 71.2627 247.997L65.3344 246.609C64.8964 246.507 64.4291 246.668 64.1663 247.048C62.3849 249.501 60.0779 255.181 60.0341 261.561C59.9757 269.359 63.0274 331.254 63.0274 331.254L80.9142 331.05L71.7153 270.804C71.6277 270.279 71.5985 269.738 71.5985 269.213V267.942C71.5985 267.942 71.6277 267.942 71.6423 267.986C72.1533 268.848 72.5183 269.782 72.7374 270.746L82.7248 330.919H102.291C102.291 330.919 102.291 330.904 102.276 330.875C103.561 330.875 104.831 330.904 106.116 330.919C106.773 328.874 105.401 326.743 103.868 325.239H103.853Z" fill="#000E39"/>
<path d="M65.5092 215.99L65.6552 223.919L74.7666 223.743L74.8396 210.456L65.5092 215.99Z" fill="#7F4539"/>
<path d="M60.3401 201.155C60.2963 201.33 59.9605 209.055 60.2087 210.894C60.4569 212.734 62.1069 215.8 65.6989 215.99C70.0209 216.209 75.1314 210.807 75.1314 210.807L74.9124 198.746C74.9124 198.746 72.5324 194.453 67.3634 194.584C62.2091 194.716 60.3401 201.155 60.3401 201.155Z" fill="#7F4539"/>
<path d="M60.194 203.769C60.194 203.769 60.6612 203.681 61.0263 203.739C63.5231 204.192 63.9319 205.959 63.9319 205.959C63.9319 205.959 63.0267 206.952 60.9825 206.689C60.6028 206.645 60.4568 206.572 60.121 206.426L60.1794 203.754L60.194 203.769Z" fill="white"/>
<path d="M71.3787 202.104C70.3128 201.52 68.5022 201.593 67.4509 202.148" stroke="#00113E" stroke-width="0.44" stroke-linecap="square" stroke-linejoin="round"/>
<path d="M64.7788 206.353C64.4868 206.85 64.2094 207.346 63.9465 207.857C63.8735 207.989 63.8005 208.164 63.8589 208.295C63.9027 208.412 64.0342 208.485 64.151 208.529C64.443 208.66 64.7496 208.763 65.0563 208.821" stroke="#000E39" stroke-width="0.44" stroke-linecap="square" stroke-linejoin="round"/>
<path d="M73.9631 206.543C73.9923 205.579 75.4671 204.951 76.4162 204.864C77.3653 204.776 78.3143 205.389 78.7378 206.251C79.1466 207.112 79.059 208.178 78.5918 209.011C78.1245 209.843 77.3068 210.456 76.4015 210.777C75.4962 211.099 74.5179 211.142 73.5688 211.026L73.9631 206.543Z" fill="#7F4539"/>
<path d="M71.9336 213.406C71.9336 213.406 71.3203 217.494 65.5527 217.903L65.5236 215.975C66.6625 215.975 69.3199 215.508 71.9336 213.406Z" fill="#00113E"/>
<path d="M63.421 202.396C62.5157 201.988 61.479 201.856 60.4861 202.031" stroke="#00113E" stroke-width="0.44" stroke-linecap="square" stroke-linejoin="round"/>
<path d="M60.9825 206.689C60.5882 206.645 60.4568 206.572 60.121 206.426V205.404C60.1064 205.214 60.1064 205.039 60.121 204.849L60.194 203.769C60.194 203.769 60.6612 203.681 61.0263 203.739C61.3037 203.783 61.4497 203.827 61.6688 203.9C61.6688 203.944 62.1214 206.076 61.5958 206.718C61.4351 206.718 61.1723 206.718 60.9971 206.674L60.9825 206.689Z" fill="#00113E"/>
<path d="M66.4727 194.365C70.97 193.781 73.9633 196.044 73.9633 196.044L76.0951 198.673C76.3871 198.819 76.0367 201.126 76.3141 201.301C76.4747 201.403 76.65 201.52 76.7376 201.695C76.8544 201.914 76.7376 202.177 76.7376 202.425C76.8106 203.929 76.2995 205.696 74.8248 206.499C73.8027 204.849 73.5252 202.644 73.9341 200.731C72.7367 200.235 71.6708 199.403 70.9554 198.308C68.2979 201.169 63.8152 202.177 60.194 200.731C60.194 200.731 61.9754 194.964 66.4873 194.38L66.4727 194.365Z" fill="#00113E"/>
<path d="M74.8246 206.967C75.0728 206.674 75.3794 206.426 75.7445 206.295C76.0949 206.163 76.5184 206.134 76.8688 206.295C77.4382 206.528 77.7741 207.186 77.7157 207.799C77.6426 208.412 77.2046 208.952 76.6498 209.215C76.0949 209.478 75.4378 209.493 74.8392 209.317" stroke="#000E39" stroke-width="0.44" stroke-linecap="square" stroke-linejoin="round"/>
<path d="M72.5323 204.747C72.5323 204.747 71.5978 203.155 69.1155 203.637C66.6333 204.119 66.4142 205.842 66.4142 205.842C66.4142 205.842 68.1664 206.981 69.9624 206.543C71.9628 206.061 72.5177 204.747 72.5177 204.747H72.5323Z" fill="white"/>
<path d="M68.9258 203.608C68.9258 203.608 69.0134 203.608 69.0426 203.593C69.0572 203.622 69.9187 205.185 69.1302 206.601C67.5825 206.689 66.2245 205.798 66.2245 205.798C66.2245 205.798 66.4289 204.075 68.9258 203.593V203.608Z" fill="#00113E"/>
<path d="M64.7787 210.369C65.2605 209.887 65.8446 209.507 66.4724 209.274C66.7937 209.157 67.1587 209.069 67.4507 209.245C67.6405 209.361 67.772 209.58 67.8012 209.799C67.9034 210.354 67.4945 210.924 66.9543 211.128C66.414 211.333 65.7862 211.26 65.2751 211.011C65.0707 210.909 64.764 210.588 64.764 210.369" fill="white"/>
<path d="M60.0483 201.987C60.0483 201.987 58.851 198.731 59.7125 196.964C60.355 195.65 61.4939 194.511 62.0049 194.029C62.1802 193.869 62.3992 193.781 62.6328 193.781H63.5235C63.5235 193.781 65.4363 192.292 66.911 191.722C68.3858 191.153 72.1384 189.693 74.0804 190.058C76.0224 190.423 77.8037 192.569 78.0374 194.351C78.271 196.132 77.9644 201.549 77.9644 201.549C77.9644 201.549 79.2493 202.484 79.1179 203.389C78.9865 204.28 78.4608 205.711 78.4754 205.857C78.4754 206.003 76.0662 204.776 70.1234 201.257C63.7571 197.49 61.7567 197.986 60.0483 201.987Z" fill="#5AC4FF"/>
<path d="M62.2823 193.839C65.3195 193.489 68.2836 194.876 70.8096 196.599C73.3357 198.308 75.8471 200.016 78.198 201.724" stroke="#00113E" stroke-width="0.44" stroke-linecap="square" stroke-linejoin="round"/>
<path d="M68.4001 195.227C68.0059 196.701 67.451 198.118 66.7064 199.461" stroke="#00113E" stroke-width="0.44" stroke-linecap="square" stroke-linejoin="round"/>
<path d="M72.1671 197.534C71.9481 198.935 71.364 200.279 70.4587 201.388" stroke="#00113E" stroke-width="0.44" stroke-linecap="square" stroke-linejoin="round"/>
<path d="M73.6418 203.287C74.6493 202.425 75.3064 201.169 75.4524 199.855" stroke="#00113E" stroke-width="0.44" stroke-linecap="square" stroke-linejoin="round"/>
<path d="M77.6864 201.388C77.8178 202.659 77.5258 203.973 76.8687 205.068" stroke="#00113E" stroke-width="0.44" stroke-linecap="square" stroke-linejoin="round"/>
<path d="M63.8446 193.986C63.1292 194.57 62.6181 195.387 62.3845 196.278C62.1509 197.169 62.2239 198.132 62.5597 198.979" stroke="#00113E" stroke-width="0.44" stroke-linecap="square" stroke-linejoin="round"/>
<path d="M70.0352 196.015C69.787 195.271 68.794 195.022 68.0494 195.227C67.3047 195.431 66.6914 195.986 66.1366 196.526C65.7715 195.971 64.9831 195.752 64.3698 196.015C63.6689 196.336 63.3039 197.169 62.5884 197.446C62.2818 197.563 61.9313 197.563 61.6101 197.665C60.9822 197.84 60.2376 198.395 60.0916 199.023C59.9456 199.651 59.931 200.425 60.4128 200.863L62.7344 200.615C63.8003 201.126 65.0852 201.009 66.1658 200.527C67.2463 200.06 66.9251 200.658 67.9764 200.133C69.2759 199.49 70.079 198.147 70.2542 197.563C70.4148 197.037 70.2396 196.526 70.0644 196.001L70.0352 196.015Z" fill="#00113E"/>
<path d="M36.9343 239.338C36.5401 239.265 31.5464 238.871 29.8234 239.659C28.0858 240.462 22.4642 244.872 22.4642 244.872C22.4642 244.872 22.9315 246.23 24.0266 245.617L23.2235 246.566C23.4718 247.734 25.1217 246.96 25.1217 246.96L24.5669 247.851C24.5669 247.851 25.0049 248.829 26.2314 247.924L26.8593 247.427L28.3195 247.208C28.3195 247.208 31.2689 246.712 33.3278 246.099C35.3866 245.485 36.3941 244.857 36.3941 244.857L37.095 239.615" fill="#7F4539"/>
<path d="M23.4573 245.777C23.8078 245.821 25.3848 245.178 26.2755 244.405C26.5383 244.171 27.5458 243.631 27.8378 243.426C28.5679 242.959 29.4878 242.915 30.3492 242.886" stroke="#00113E" stroke-width="0.44" stroke-linecap="square" stroke-linejoin="round"/>
<path d="M32.3785 240.623C30.8015 241.893 27.6768 244.025 26.0999 245.295C25.7786 245.558 25.4136 245.894 25.472 246.303C25.545 246.843 26.2605 247.004 26.8007 246.945C27.6038 246.858 28.3777 246.595 29.0493 246.171C29.4874 245.894 29.94 245.529 30.4657 245.544C30.7869 245.544 31.0643 245.704 31.3564 245.836C32.6267 246.361 34.1599 246.186 35.2988 245.412" fill="#7F4539"/>
<path d="M32.3785 240.623C30.8015 241.893 27.6768 244.025 26.0999 245.295C25.7786 245.558 25.4136 245.894 25.472 246.303C25.545 246.843 26.2605 247.004 26.8007 246.945C27.6038 246.858 28.3777 246.595 29.0493 246.171C29.4874 245.894 29.94 245.529 30.4657 245.544C30.7869 245.544 31.0643 245.704 31.3564 245.836C32.6267 246.361 34.1599 246.186 35.2988 245.412" stroke="#000E39" stroke-width="0.44" stroke-linecap="square" stroke-linejoin="round"/>
<path d="M35.4594 245.003C35.4594 245.003 56.5731 253.048 59.0116 251.15C61.45 249.252 75.6281 225.174 75.6281 225.174L64.8522 223.583L54.6458 241.207L36.4815 239.016L35.4594 244.988V245.003Z" fill="#ED73EE"/>
<path d="M54.4851 241.557C55.1276 243.134 55.7701 244.711 56.4125 246.288" stroke="#00113E" stroke-width="0.44" stroke-linecap="square" stroke-linejoin="round"/>
<path d="M37.6788 245.894L38.8031 239.601" stroke="#00113E" stroke-width="0.44" stroke-linecap="square" stroke-linejoin="round"/>
<path d="M83.7615 254.845L84.7106 232.212C84.7106 232.212 84.0973 216.53 76.2417 217.479C71.2918 218.078 67.5976 220.969 67.5976 220.969C65.5388 222.356 64.137 224.503 63.6844 226.941L62.3119 234.417C62.2388 234.841 61.3627 245.135 60.7495 252.275L60.0194 259.035C61.8884 260.539 64.7357 260.7 66.7653 259.415C67.8312 258.729 68.7511 257.677 70.0068 257.488C71.3648 257.283 72.6351 258.188 74.0077 258.305C75.7891 258.451 77.366 257.283 78.8991 256.392C80.4323 255.487 82.4911 254.83 83.9075 255.911L83.7615 254.83V254.845Z" fill="#7F4539"/>
<mask id="mask2_1023_4401" style="mask-type:luminance" maskUnits="userSpaceOnUse" x="60" y="217" width="25" height="44">
<path d="M83.7612 254.845L84.7103 232.212C84.7103 232.212 84.097 216.53 76.2414 217.479C71.2915 218.078 67.5973 220.969 67.5973 220.969L67.4367 221.086C65.4801 222.4 64.1514 224.43 63.7279 226.751L62.3262 234.432C62.2532 234.855 61.3771 245.149 60.7638 252.289L60.0338 259.05C61.9027 260.554 64.75 260.714 66.7796 259.43C67.8455 258.743 68.7654 257.692 70.0212 257.502C71.3791 257.298 72.6494 258.203 74.022 258.32C75.8034 258.466 77.3803 257.298 78.9135 256.407C80.4466 255.502 82.5054 254.845 83.9218 255.925L83.7758 254.845H83.7612Z" fill="white"/>
</mask>
<g mask="url(#mask2_1023_4401)">
<path d="M58.3106 240.841C59.0114 240.637 59.7269 240.433 60.4278 240.184C61.1286 239.951 61.8295 239.717 62.5158 239.469C63.202 239.221 63.9613 238.753 64.6476 238.491C65.3339 238.228 66.0931 238.315 66.7794 238.067C67.4657 237.819 68.1082 237.425 68.7944 237.176L70.7948 236.476C71.4665 236.242 72.2112 236.227 72.8683 235.994C73.5399 235.775 74.0072 235.556 74.6642 235.322C75.3359 235.088 76.3726 235.205 77.0443 234.957C77.7159 234.709 78.446 234.723 79.1177 234.461C79.7894 234.198 80.4464 233.876 81.1035 233.599C81.5123 233.424 81.9358 233.205 82.3446 233L98.6107 224.692L81.5561 228.43C81.2787 228.489 81.0159 228.547 80.7385 228.591C80.023 228.708 79.3221 228.547 78.6066 228.649L76.4602 228.956H76.3288C76.2266 228.956 76.139 228.941 76.0368 228.927C75.3213 228.868 74.6204 229.248 73.905 229.16C73.1895 229.073 72.5324 229.89 71.8315 229.788C71.1161 229.7 70.4006 229.846 69.6997 229.744C68.9696 229.627 68.3126 230.328 67.5825 230.226C66.8524 230.109 66.1808 229.686 65.4507 229.584C64.7206 229.481 63.9175 229.525 63.1875 229.452C62.4574 229.394 61.6397 228.737 60.9096 228.722C60.1796 228.722 59.4495 228.766 58.7048 228.824C57.5805 228.927 57.4783 230.985 58.6026 231.204C59.3326 231.35 60.0773 231.482 60.8074 231.584C61.5375 231.686 62.2821 231.788 63.0268 231.861C63.7715 231.934 64.5162 231.628 65.2608 231.686C66.0055 231.745 66.9984 232.665 67.7431 232.723C68.4878 232.767 69.2763 232.314 70.0063 232.373C70.7218 232.416 71.3643 233.657 72.0798 233.701C72.7952 233.745 73.5545 233.132 74.27 233.161C74.9855 233.19 75.4965 233.643 76.2266 233.657C76.9421 233.672 77.6722 233.657 78.3876 233.657C79.1031 233.657 80.2274 232.708 80.9429 232.679C81.2349 232.679 81.5124 232.679 81.7606 232.679L81.1035 228.897C80.7239 228.985 80.3734 229.058 79.9646 229.189C79.2783 229.423 78.6504 229.306 77.9642 229.554C77.2779 229.817 76.8836 230.547 76.212 230.81L74.1678 231.599C73.4815 231.861 72.839 232.212 72.1528 232.475C71.4665 232.738 70.8824 233.541 70.1815 233.745C69.4807 233.949 68.736 233.789 68.0352 233.993C67.3343 234.183 66.6042 234.329 65.9033 234.534C65.2024 234.753 64.5162 235.001 63.8445 235.264C63.202 235.512 62.4574 235.541 61.8295 235.848C61.6543 235.891 61.4645 235.95 61.2892 236.023C60.5884 236.286 60.1941 237.468 59.5225 237.79C58.8508 238.111 58.0623 237.921 57.4198 238.315C56.4415 238.929 57.2592 241.133 58.3398 240.812L58.3106 240.841Z" fill="white"/>
<path d="M89.4991 243.864C89.0319 243.864 88.5646 243.864 88.112 243.908C87.6447 243.908 87.1775 243.908 86.7248 243.937C86.2722 243.981 85.7173 244.156 85.2501 244.156C84.7828 244.156 84.3594 243.849 83.8921 243.835C83.4249 243.835 82.9577 243.951 82.4904 243.937C82.0378 243.937 81.5851 243.864 81.1324 243.835C80.6798 243.791 80.2418 243.557 79.7891 243.499C79.3365 243.44 79.0006 243.47 78.5334 243.426C78.0807 243.382 77.4967 242.871 77.044 242.827C76.5768 242.783 76.1533 242.506 75.6861 242.477C75.2043 242.448 74.7224 242.491 74.2406 242.477C73.7587 242.477 73.233 242.579 72.7512 242.594C72.2693 242.594 71.8313 242.345 71.3348 242.36L69.8601 242.389H69.7725C69.7725 242.389 69.6411 242.331 69.5827 242.316C69.1154 242.17 68.5752 242.477 68.1079 242.316C67.6407 242.156 67.0858 242.915 66.6186 242.754C66.1513 242.608 65.6549 242.681 65.173 242.55C64.6765 242.404 64.1801 243.061 63.6983 242.915C63.2164 242.769 62.7784 242.345 62.2673 242.229C61.7563 242.112 61.216 242.141 60.7049 242.112C60.1939 242.068 59.5952 241.44 59.0696 241.469C58.5439 241.513 58.0329 241.63 57.5072 241.761C56.7041 241.966 56.9669 244.01 57.7262 244.127C58.2227 244.2 58.7191 244.287 59.201 244.331C59.6828 244.404 60.1793 244.477 60.6465 244.536C61.1284 244.579 61.6103 244.273 62.0921 244.346C62.5886 244.419 63.1872 245.339 63.6545 245.426C64.1217 245.514 64.662 245.105 65.1438 245.193C65.6111 245.28 65.8885 246.565 66.3265 246.667C66.7792 246.77 67.334 246.215 67.7867 246.332C68.2393 246.434 68.5021 246.945 68.9548 247.047C69.422 247.135 69.8747 247.222 70.3419 247.31C70.7946 247.397 71.6853 246.624 72.1525 246.697C72.6344 246.77 72.9702 246.93 73.4521 246.989C73.9339 247.032 74.2551 247.397 74.7516 247.427C75.2334 247.456 75.7153 246.945 76.2117 246.959L77.6865 247.032C78.183 247.062 78.6794 246.974 79.1758 247.003C79.6723 247.032 80.271 246.521 80.7528 246.58C81.2347 246.653 81.6435 247.091 82.1399 247.164C82.6364 247.237 83.1329 247.368 83.6293 247.427C84.1258 247.5 84.6368 247.47 85.1333 247.456C85.6151 247.427 86.1116 247.675 86.5934 247.587C86.7248 247.587 86.8562 247.587 86.9877 247.587C87.5133 247.543 87.966 246.565 88.4624 246.463C88.9443 246.332 89.4699 246.726 89.9664 246.521C90.711 246.2 90.2438 243.893 89.5429 243.893L89.4991 243.864Z" fill="#FF7441"/>
<path d="M53.9592 255.516C54.4119 255.516 54.8499 255.502 55.288 255.458C55.726 255.414 56.164 255.399 56.6021 255.341C57.0401 255.283 57.522 255.034 57.96 254.976C58.3981 254.918 58.8507 255.18 59.2742 255.122C59.7122 255.064 60.121 254.859 60.5591 254.801C60.9825 254.742 61.406 254.713 61.8148 254.669C62.2383 254.626 62.6763 254.786 63.0998 254.757C63.5232 254.713 63.8152 254.626 64.2387 254.582C64.6621 254.523 65.2608 254.918 65.6842 254.859C66.1077 254.801 66.5457 254.991 66.9545 254.918C67.378 254.845 67.8014 254.699 68.2249 254.611C68.6483 254.523 69.0864 254.319 69.5098 254.217C69.9332 254.115 70.3567 254.275 70.7801 254.188L72.0651 253.895H72.1381C72.1381 253.895 72.2549 253.925 72.3133 253.925C72.7368 253.998 73.1602 253.633 73.5836 253.72C74.0071 253.808 74.4013 253.019 74.8248 253.122C75.2482 253.224 75.6863 253.078 76.1097 253.195C76.5478 253.311 76.9566 252.625 77.3946 252.742C77.8327 252.859 78.2123 253.311 78.6504 253.414C79.0884 253.516 79.5556 253.487 79.9937 253.574C80.4317 253.647 80.8844 254.304 81.3224 254.319C81.7605 254.348 82.1985 254.304 82.6366 254.246C83.3083 254.158 83.498 252.099 82.8264 251.88C82.3883 251.734 81.9503 251.588 81.5122 251.472C81.0742 251.369 80.6215 251.253 80.1835 251.165C79.7309 251.077 79.2782 251.369 78.8256 251.311C78.3875 251.253 77.7889 250.289 77.3362 250.245C76.8836 250.187 76.4017 250.625 75.9491 250.566C75.511 250.508 75.1314 249.267 74.6934 249.223C74.2553 249.179 73.7881 249.763 73.35 249.734C72.912 249.69 72.5907 249.238 72.1527 249.208C71.7146 249.179 71.2766 249.194 70.8239 249.179C70.3859 249.179 69.7142 250.099 69.2762 250.114C68.8381 250.128 68.4877 250.041 68.0497 250.084C67.6116 250.143 67.2466 249.851 66.8085 249.924C66.3705 249.982 66.0493 250.596 65.6112 250.669L64.2971 250.888C63.859 250.961 63.4356 251.136 62.9975 251.209C62.5595 251.267 62.1215 251.895 61.6834 251.924C61.2454 251.939 60.8073 251.588 60.3547 251.588C59.902 251.588 59.4494 251.53 59.0113 251.545C58.5587 251.545 58.1206 251.632 57.6826 251.705C57.2591 251.778 56.8065 251.603 56.3977 251.72C56.2809 251.72 56.164 251.72 56.0618 251.749C55.6092 251.822 55.2879 252.83 54.8645 252.961C54.4265 253.092 53.9446 252.698 53.5212 252.903C52.8787 253.224 53.2876 255.531 53.9738 255.516H53.9592Z" fill="white"/>
<path d="M83.2497 220.122C82.9431 220.049 82.6511 219.976 82.3444 219.932C82.0378 219.889 81.7458 219.845 81.4391 219.83C81.1325 219.816 80.7821 219.976 80.4754 219.976C80.1688 219.976 79.8914 219.64 79.5993 219.64C79.2927 219.64 79.0007 219.786 78.6941 219.786C78.402 219.786 78.11 219.786 77.818 219.786C77.5259 219.786 77.2339 219.567 76.9419 219.567C76.6498 219.567 76.4454 219.626 76.1534 219.626C75.8614 219.626 75.4671 219.202 75.1751 219.232C74.8831 219.261 74.591 219.027 74.299 219.071C74.007 219.115 73.715 219.232 73.4083 219.305C73.1163 219.378 72.8096 219.567 72.5176 219.64C72.2256 219.713 71.9335 219.538 71.6415 219.64C71.3495 219.728 71.0575 219.816 70.7508 219.889C70.7362 219.889 70.7216 219.889 70.6924 219.903C70.6486 219.889 70.6048 219.859 70.5756 219.845C70.2836 219.757 69.9916 220.137 69.6995 220.035C69.4075 219.947 69.1447 220.75 68.8527 220.648C68.5606 220.546 68.2686 220.692 67.9766 220.589C67.6699 220.473 67.4071 221.174 67.1151 221.071C66.8084 220.955 66.531 220.531 66.239 220.443C65.9323 220.356 65.6111 220.4 65.3045 220.341C64.9978 220.283 64.662 219.655 64.3554 219.67C64.0487 219.67 63.7567 219.743 63.4501 219.83C62.9828 219.962 62.9974 222.035 63.4501 222.21C63.7567 222.327 64.0487 222.444 64.3554 222.531C64.662 222.619 64.954 222.707 65.2607 222.765C65.5673 222.824 65.8593 222.517 66.1659 222.561C66.4726 222.604 66.8814 223.524 67.1881 223.568C67.4947 223.612 67.8013 223.159 68.108 223.218C68.4 223.262 68.6628 224.503 68.9548 224.561C69.2469 224.605 69.5535 224.006 69.8456 224.05C70.1376 224.094 70.342 224.561 70.634 224.59C70.9261 224.619 71.2181 224.634 71.5101 224.649C71.8021 224.663 72.2694 223.773 72.5468 223.773C72.8389 223.773 73.0579 223.889 73.3645 223.86C73.6565 223.831 73.8902 224.138 74.1822 224.108C74.4742 224.065 74.7079 223.481 75.0145 223.437C75.3065 223.393 75.5985 223.349 75.9052 223.32C76.1972 223.276 76.4892 223.159 76.7959 223.13C77.0879 223.101 77.4237 222.531 77.7157 222.561C78.0078 222.59 78.2706 222.999 78.5772 223.043C78.8693 223.101 79.1759 223.218 79.4679 223.262C79.76 223.305 80.0666 223.305 80.3586 223.291C80.636 223.291 80.9281 223.524 81.2055 223.466C81.2785 223.481 81.3515 223.495 81.4391 223.495C81.7458 223.495 82.067 222.561 82.3591 222.502C82.6657 222.444 82.9285 222.926 83.2351 222.794C83.7024 222.59 83.717 220.254 83.2497 220.137V220.122Z" fill="white"/>
</g>
<path d="M99.1806 264.35C98.4067 260.977 89.4122 238.87 89.4122 238.87L82.9145 222.166C82.9145 222.166 81.1478 216.997 76.6505 217.26L72.7519 218.311L69.9192 219.538L70.6055 224.838L71.2041 228.109C71.4816 229.306 71.832 230.489 72.2408 231.657C72.5913 232.665 73.0293 233.862 73.5112 235.22C74.4603 236.987 75.643 238.622 77.0593 240.039C78.4027 241.382 79.9942 242.623 80.6951 244.39C81.5858 246.624 80.8557 249.164 81.0601 251.559C81.323 254.713 83.1628 257.458 84.5499 260.291C85.499 262.218 86.2291 264.423 86.1415 266.511C86.0393 268.745 86.4481 270.979 87.295 273.053C87.5286 273.607 87.8644 274.279 87.9374 274.367C88.8865 275.622 97.3554 274.367 97.3554 274.367L96.8298 271.184C96.8298 271.184 99.9545 267.708 99.1806 264.35Z" fill="#ED73EE"/>
<path d="M89.4854 213.493C88.9159 212.442 87.6602 212.004 86.4921 211.77C82.4621 210.996 78.0378 212.267 74.6503 214.603L74.4604 222.4C75.7454 223.553 79.79 225.554 81.3962 226.182C83.0023 226.81 84.9589 226.824 86.3315 225.788C87.5726 224.853 88.1129 223.276 88.5217 221.787C89.0036 220.005 89.3978 218.195 89.6898 216.37C89.8504 215.391 89.9526 214.34 89.4854 213.478V213.493Z" fill="#ED73EE"/>
<path d="M75.1027 217.333C79.1765 217.494 83.2941 216.442 86.7984 214.354C87.1927 214.121 87.6162 213.756 87.5139 213.318C87.4263 212.923 86.9445 212.763 86.5502 212.675C84.3892 212.266 82.1259 212.354 79.9941 212.938" stroke="#00113E" stroke-width="0.44" stroke-linecap="square" stroke-linejoin="round"/>
<path d="M86.6525 271.155C90.259 272.045 93.1647 271.855 96.8297 271.198" stroke="#00113E" stroke-width="0.44" stroke-linecap="square" stroke-linejoin="round"/>
<path d="M88.7696 271.592C89.0324 272.658 89.2807 273.724 89.5143 274.79" stroke="#00113E" stroke-width="0.44" stroke-linecap="square" stroke-linejoin="round"/>
<path d="M91.8941 271.811C92.0547 272.76 92.3175 273.958 92.5804 274.878" stroke="#00113E" stroke-width="0.44" stroke-linecap="square" stroke-linejoin="round"/>
<path d="M94.7415 271.549C95.0481 272.585 95.3693 273.549 95.5008 274.615" stroke="#00113E" stroke-width="0.44" stroke-linecap="square" stroke-linejoin="round"/>
<path d="M87.0176 255.428C87.5286 257.108 88.6675 258.597 90.1569 259.517C91.6462 260.451 93.4714 260.816 95.209 260.539" stroke="#00113E" stroke-width="0.44" stroke-linecap="square" stroke-linejoin="round"/>
<path d="M59.3913 240.068L54.2516 234.475C54.2516 234.475 52.1198 231.672 51.0101 231.57C49.2433 231.424 46.4836 232.475 46.4544 232.723C46.3376 233.556 47.2867 234.227 48.8344 234.11L50.4406 234.081L51.4919 235.381C51.4919 235.381 49.7543 235.527 48.703 236.067C47.4619 236.695 45.3593 237.907 45.4177 238.827C45.4761 239.732 46.0455 239.878 46.0455 239.878C46.0455 239.878 44.8482 242.346 47.1115 242.097C47.1115 242.097 46.9217 244.77 48.4986 243.558C50.061 242.346 52.6455 242.638 52.6455 242.638C52.6455 242.638 53.7406 244.025 55.6242 245.237C57.3764 246.361 58.3985 245.193 58.3985 245.193L59.4205 240.068H59.3913Z" fill="#7F4539"/>
<path d="M58.7048 239.338L77.3509 242.638L72.4156 226.313L82.6074 224.386L87.7764 243.558C88.1706 245.295 88.1268 247.135 87.5428 248.814C86.9149 250.639 85.63 252.523 83.0455 252.8C77.8766 253.341 57.6097 246.463 57.6097 246.463L58.7048 239.367V239.338Z" fill="#ED73EE"/>
<path d="M53.9741 236.768C53.8573 236.286 53.5215 235.848 53.098 235.585C52.66 235.322 52.1343 235.249 51.6379 235.366" stroke="#000E39" stroke-width="0.44" stroke-linecap="square" stroke-linejoin="round"/>
<path d="M53.4483 238.418C52.9373 237.264 52.2364 237.162 51.8276 237.074C51.2289 236.943 50.309 237.352 49.7542 237.629C48.367 238.359 47.2427 239.104 46.0162 239.966" stroke="#000E39" stroke-width="0.44" stroke-linecap="square" stroke-linejoin="round"/>
<path d="M53.5655 240.637C53.6385 240.024 53.0836 239.484 52.4849 239.367C51.8863 239.25 51.2584 239.455 50.7035 239.703C49.331 240.302 48.0753 241.134 46.8488 241.995" stroke="#000E39" stroke-width="0.44" stroke-linecap="square" stroke-linejoin="round"/>
<path d="M81.1473 245.661C80.3296 244.054 78.7965 242.843 77.0443 242.39" stroke="#000E39" stroke-width="0.44" stroke-linecap="square" stroke-linejoin="round"/>
<path d="M83.6447 227.146L87.7915 243.543C88.1858 245.281 88.142 247.121 87.5579 248.8C86.93 250.625 85.6451 252.509 83.0606 252.786" stroke="#00113E" stroke-width="0.44" stroke-linecap="square" stroke-linejoin="round"/>
<path d="M58.7052 239.338L57.5225 246.405L61.0414 247.559" stroke="#00113E" stroke-width="0.44" stroke-linecap="square" stroke-linejoin="round"/>
<path d="M60.3698 247.339L61.7423 240.199" stroke="#00113E" stroke-width="0.44" stroke-linecap="square" stroke-linejoin="round"/>
<path d="M75.1171 218.765C75.1171 218.765 81.352 218.765 83.148 225.525" stroke="#00113E" stroke-width="0.44" stroke-linecap="square" stroke-linejoin="round"/>
<path d="M32.9775 195.577C34.9049 193.314 39.4313 193.343 39.6357 193.373C39.6357 193.373 42.2202 193.402 46.148 193.781C50.8497 194.234 51.9594 196.526 51.9594 196.526C52.8647 197.928 52.8501 199.724 52.7625 201.403C52.6603 203.783 52.4413 206.353 50.8935 208.178C50.1926 209.011 49.2727 209.609 48.2944 210.077C48.9953 211.683 50.3825 212.982 52.0616 213.508C50.6015 214.428 48.6303 214.121 47.1701 213.201C46.3378 212.676 45.6516 211.989 45.0237 211.245C43.3737 211.668 41.1251 211.449 39.4167 211.274C36.8177 211.011 35.3283 210.617 33.8974 209.025C31.6633 206.558 31.6487 204.426 31.6633 201.389C31.6633 199.491 31.2837 197.549 32.9629 195.577H32.9775Z" fill="white"/>
<path d="M44.469 202.236C44.469 203.024 45.1115 203.667 45.9 203.667C46.6884 203.667 47.3309 203.024 47.3309 202.236C47.3309 201.447 46.6884 200.805 45.9 200.805C45.1115 200.805 44.469 201.447 44.469 202.236Z" fill="#587D71"/>
<path d="M41.7675 203.667C42.5578 203.667 43.1984 203.026 43.1984 202.236C43.1984 201.445 42.5578 200.805 41.7675 200.805C40.9772 200.805 40.3365 201.445 40.3365 202.236C40.3365 203.026 40.9772 203.667 41.7675 203.667Z" fill="#587D71"/>
<path d="M36.3943 202.236C36.3943 203.024 37.0368 203.667 37.8253 203.667C38.6137 203.667 39.2562 203.024 39.2562 202.236C39.2562 201.447 38.6137 200.805 37.8253 200.805C37.0368 200.805 36.3943 201.447 36.3943 202.236Z" fill="#587D71"/>
</g>
</svg>
