<svg width="219" height="287" viewBox="0 0 219 287" fill="none" xmlns="http://www.w3.org/2000/svg">
<path d="M1 55C1 45.0589 9.05888 37 19 37H136C145.941 37 154 45.0589 154 55V116C154 125.941 145.941 134 136 134H19C9.05887 134 1 125.941 1 116V55Z" fill="#587D71"/>
<path d="M19 37.5H136V36.5H19V37.5ZM153.5 55V116H154.5V55H153.5ZM136 133.5H19V134.5H136V133.5ZM1.5 116V55H0.5V116H1.5ZM19 133.5C9.33502 133.5 1.5 125.665 1.5 116H0.5C0.5 126.217 8.78273 134.5 19 134.5V133.5ZM153.5 116C153.5 125.665 145.665 133.5 136 133.5V134.5C146.217 134.5 154.5 126.217 154.5 116H153.5ZM136 37.5C145.665 37.5 153.5 45.335 153.5 55H154.5C154.5 44.7827 146.217 36.5 136 36.5V37.5ZM19 36.5C8.78273 36.5 0.5 44.7827 0.5 55H1.5C1.5 45.335 9.33502 37.5 19 37.5V36.5Z" fill="#587D71"/>
<mask id="mask0_1023_4400" style="mask-type:alpha" maskUnits="userSpaceOnUse" x="3" y="-1" width="155" height="136">
<path d="M4 18C4 8.05888 12.0589 0 22 0H139C148.941 0 157 8.05888 157 18V116C157 125.941 148.941 134 139 134H22C12.0589 134 4 125.941 4 116V18Z" fill="#FD5001"/>
<path d="M22 0.5H139V-0.5H22V0.5ZM156.5 18V116H157.5V18H156.5ZM139 133.5H22V134.5H139V133.5ZM4.5 116V18H3.5V116H4.5ZM22 133.5C12.335 133.5 4.5 125.665 4.5 116H3.5C3.5 126.217 11.7827 134.5 22 134.5V133.5ZM156.5 116C156.5 125.665 148.665 133.5 139 133.5V134.5C149.217 134.5 157.5 126.217 157.5 116H156.5ZM139 0.5C148.665 0.5 156.5 8.33502 156.5 18H157.5C157.5 7.78273 149.217 -0.5 139 -0.5V0.5ZM22 -0.5C11.7827 -0.5 3.5 7.78273 3.5 18H4.5C4.5 8.33502 12.335 0.5 22 0.5V-0.5Z" fill="#FD5001"/>
</mask>
<g mask="url(#mask0_1023_4400)">
<path d="M109.788 185.781C109.543 166.486 105.578 118.231 102.822 108.621C102.728 108.281 102.614 107.942 102.501 107.583C101.236 95.6889 93.4768 85.3242 93.4768 85.3242L74.2011 86.0794C74.2011 86.0794 67.348 94.5939 64.686 105.752C64.4594 106.507 64.2518 107.262 64.063 108.036C61.7031 117.759 59.7396 166.127 60.2871 185.422C60.3438 187.536 64.0252 190.085 64.0252 190.085L63.6665 195.315L75.3905 198.203C75.3905 198.203 75.1828 191.841 75.2772 191.671C75.2772 191.671 79.374 189.821 79.846 187.857C83.2065 174.132 80.7522 151.383 81.564 148.098C82.4513 144.416 83.282 129.955 83.6785 122.082C84.3393 129.502 85.8685 145.492 86.9824 149.363C87.9074 152.591 86.416 175.435 90.3429 189.009C90.9092 190.954 95.0815 192.634 95.0815 192.634C95.1759 192.804 95.2326 199.166 95.2326 199.166L106.824 195.787L106.258 190.576C106.258 190.576 109.826 187.876 109.807 185.762L109.788 185.781Z" fill="#000E39"/>
<path d="M74.6354 86.8154C71.1427 93.763 67.1592 100.427 66.0264 106.544C61.1933 132.654 62.345 157.839 62.3261 188.178" stroke="white" stroke-width="0.39" stroke-linecap="square" stroke-linejoin="round"/>
<path d="M92.4571 86.2678C95.591 92.649 99.3858 101.145 100.783 107.205C106.692 133.088 106.598 158.311 107.863 188.612" stroke="white" stroke-width="0.39" stroke-linecap="square" stroke-linejoin="round"/>
<path d="M95.1947 55.1743C95.1947 55.1743 96.3085 54.9288 97.5734 56.6846C98.8384 58.4215 105.389 65.8977 105.389 65.8977L102.897 48.8875L108.825 46.301C108.825 46.301 111.714 61.6498 113.149 65.5956C114.64 69.6924 114.829 75.847 112.979 77.2441C110.317 79.283 106.107 78.3391 104.03 76.4323C102.029 74.601 95.6478 66.9927 95.6478 66.9927L95.1947 55.1932V55.1743Z" fill="#7F4539"/>
<path d="M102.897 48.8873C102.897 48.8873 102.331 47.1504 102.161 45.3569C102.048 44.0542 102.067 42.053 102.123 41.7887C102.501 39.7498 102.935 37.7864 103.671 37.4088C104.332 37.0689 105.219 37.1633 105.333 40.2784L108.901 39.6365C108.901 39.6365 113.224 38.7114 113.451 40.5238C113.64 42.0908 112.45 41.9775 112.45 41.9775C112.45 41.9775 113.866 42.0342 113.791 43.3746C113.715 44.715 112.715 44.7717 112.715 44.7717C112.715 44.7717 113.375 44.8849 113.47 45.9799C113.564 47.1316 112.62 47.4147 112.62 47.4147C112.62 47.4147 114.017 48.4531 113.092 49.7558C112.412 50.6997 106.881 50.8885 106.881 50.8885L103.237 48.7174L102.916 48.8496L102.897 48.8873Z" fill="#7F4539"/>
<path d="M104.671 35.5962C104.671 35.936 107.05 47.1503 107.05 47.1503L112.506 45.9986L110.542 35.9927L104.671 35.5962Z" fill="white"/>
<path d="M109.845 28.6487C109.845 28.6487 122.4 25.7601 126.742 20.0586H128.309C128.309 20.0586 133.727 30.5932 130.518 39.6741H129.347C129.347 39.6741 121.815 34.7278 110.204 36.2947L109.826 28.6487H109.845Z" fill="white"/>
<path d="M103.69 29.3283C103.69 29.4604 104.823 36.6912 104.823 36.6912L111.657 36.1815L110.468 28.0823L103.69 29.3283Z" fill="#FFA81F"/>
<path d="M103.69 29.3281C103.69 29.3281 99.8573 29.819 100.443 33.727C101.009 37.635 104.992 36.691 104.992 36.691L103.69 29.3281Z" fill="#FFA81F"/>
<path d="M130.518 39.6742C127.478 33.614 126.062 26.6664 127.931 20.1531L128.309 20.0398C128.309 20.0398 131.178 26.2133 131.443 31.1974C131.707 36.1815 130.518 39.6553 130.518 39.6553V39.6742Z" stroke="#00113E" stroke-width="0.39" stroke-linecap="square" stroke-linejoin="round"/>
<path d="M126.571 20.1536C124.702 26.6669 126.118 33.6145 129.157 39.6747" stroke="#00113E" stroke-width="0.39" stroke-linecap="square" stroke-linejoin="round"/>
<path d="M105.011 36.7105C104.614 34.3317 104.199 31.9718 103.803 29.593" stroke="#00113E" stroke-width="0.39" stroke-linecap="square" stroke-linejoin="round"/>
<path d="M111.545 39.4478C110.525 39.5233 109.638 39.7877 108.637 40.0331C108.222 40.1464 107.788 40.2596 107.448 40.524C107.108 40.7883 106.881 41.2414 106.976 41.6567C107.07 42.0721 107.486 42.3552 107.901 42.4496C108.316 42.544 108.769 42.4874 109.185 42.4119C110.431 42.2231 111.318 42.1664 112.564 41.9965L111.526 39.429L111.545 39.4478Z" fill="#7F4539"/>
<path d="M111.545 39.4478C110.525 39.5233 109.638 39.7876 108.637 40.033C108.222 40.1463 107.788 40.2596 107.448 40.5239C107.108 40.7882 106.881 41.2413 106.976 41.6566C107.07 42.072 107.486 42.3552 107.901 42.4496C108.316 42.544 108.769 42.4873 109.185 42.4118C110.431 42.223 111.318 42.1664 112.564 41.9965" stroke="#00113E" stroke-width="0.39" stroke-linecap="square" stroke-linejoin="round"/>
<path d="M112.13 42.1096C111.11 42.1851 109.279 42.6194 108.297 42.8648C107.882 42.9781 107.448 43.0913 107.108 43.3557C106.768 43.62 106.542 44.0731 106.636 44.4884C106.73 44.9038 107.146 45.1869 107.561 45.2813C107.976 45.3757 108.411 45.3191 108.845 45.2436C110.091 45.0548 111.224 45.0359 112.47 44.866L112.13 42.1096Z" fill="#7F4539"/>
<path d="M111.393 42.1853C110.392 42.3363 109.278 42.6006 108.278 42.8461C107.862 42.9593 107.428 43.0726 107.088 43.3369C106.749 43.6012 106.522 44.0543 106.616 44.4697C106.711 44.885 107.126 45.1682 107.542 45.2626C107.957 45.357 108.391 45.3004 108.825 45.2249C110.071 45.0361 110.959 44.9794 112.205 44.8095" stroke="#00113E" stroke-width="0.39" stroke-linecap="square" stroke-linejoin="round"/>
<path d="M112.564 44.8281C111.544 44.9036 108.92 45.4323 107.938 45.6777C107.523 45.791 107.089 45.9043 106.749 46.1686C106.409 46.4329 106.183 46.886 106.277 47.3013C106.371 47.7166 106.787 47.9998 107.202 48.0942C107.618 48.1886 108.071 48.132 108.486 48.0565C109.732 47.8677 111.016 47.7355 112.262 47.5467L112.772 46.3007L112.564 44.8281Z" fill="#7F4539"/>
<path d="M111.261 44.9983C110.242 45.0738 108.92 45.4325 107.938 45.6779C107.523 45.7912 107.089 45.9045 106.749 46.1688C106.409 46.4331 106.183 46.8862 106.277 47.3016C106.371 47.7169 106.787 48.0001 107.202 48.0945C107.618 48.1889 108.071 48.1323 108.486 48.0567C109.732 47.868 110.827 47.7547 112.073 47.5659" stroke="#00113E" stroke-width="0.39" stroke-linecap="square" stroke-linejoin="round"/>
<path d="M111.507 47.7166C110.582 47.7921 109.751 48.0375 108.845 48.2641C108.448 48.3585 108.071 48.4717 107.75 48.7171C107.429 48.9626 107.221 49.3779 107.315 49.7555C107.41 50.1331 107.787 50.3974 108.165 50.4918C108.543 50.5862 108.958 50.5296 109.354 50.454C110.487 50.2841 111.318 50.2275 112.451 50.0765" stroke="#00113E" stroke-width="0.39" stroke-linecap="square" stroke-linejoin="round"/>
<path d="M105.842 45.5834C106.201 44.3752 105.786 42.5628 104.747 41.8454C105.238 40.958 105.238 39.4099 105.03 38.4282" stroke="#00113E" stroke-width="0.39" stroke-linecap="square" stroke-linejoin="round"/>
<path d="M69.2164 56.6278L51.9231 76.13C50.9414 77.225 50.2617 78.5654 50.0163 80.0191C49.752 81.5861 49.9219 83.4552 51.6777 84.6823C55.1892 87.1177 71.7274 92.6493 71.7274 92.6493L72.4637 86.3437L59.8146 80.1135L74.295 65.2178L74.0684 54.872C74.0684 54.872 71.2743 54.3434 69.2353 56.6278H69.2164Z" fill="#7F4539"/>
<path d="M96.2703 41.8075C95.8927 39.7119 94.8355 37.7862 93.7782 35.9172C93.4384 35.313 93.0797 34.7089 92.7587 34.0859C92.9853 31.8581 92.4189 29.5549 91.1351 27.6858C89.4171 25.2127 86.4531 23.5702 83.3569 23.3625C80.2418 23.1737 77.0701 24.4197 74.9934 26.6664C74.3326 27.3838 73.7662 28.1956 73.0488 28.8752C72.2937 29.5926 71.3875 30.159 70.5568 30.8009C67.5927 33.1231 65.7237 36.7856 65.9691 40.4293C66.0257 41.3733 66.2523 42.3172 66.5921 43.2046C67.4606 45.9043 68.8954 48.302 70.7645 50.4542C71.1043 50.8507 71.5763 51.1339 72.086 51.266C73.181 51.5681 74.3137 50.9451 75.2766 50.3409C75.1067 50.0011 74.9368 49.6613 74.7668 49.3026C75.1067 49.7557 75.7108 50.0389 76.3149 50.1144C77.1079 50.2088 77.8819 50.0011 78.656 49.7934C82.9793 48.6984 87.3782 47.9244 91.8148 47.4713C91.7959 47.981 91.7582 48.4908 91.7393 49.0194C93.0608 48.7739 94.1558 47.6789 94.3635 46.414C94.5145 46.886 94.6467 47.358 94.7977 47.83C96.2892 46.2252 96.6668 43.9031 96.2892 41.7886L96.2703 41.8075Z" fill="#00113E"/>
<path d="M68.3848 23.891C68.6113 26.402 70.8391 28.271 73.3689 28.0256C75.8987 27.7802 77.7489 25.5713 77.5035 23.0415C77.2769 20.5305 75.0492 18.6615 72.5193 18.9069C70.0084 19.1335 68.1394 21.3612 68.3848 23.891Z" fill="#00113E"/>
<path d="M87.6046 47.6789L88.3597 55.8726L78.939 56.741L77.3343 43.0347L87.6046 47.6789Z" fill="#7F4539"/>
<path d="M91.2673 31.7637C91.3239 31.9336 92.5699 39.8817 92.5133 41.8074C92.4567 43.7331 91.0973 47.0936 87.4159 47.6977C82.9793 48.4151 77.089 43.4121 77.089 43.4121L75.9373 30.933C75.9373 30.933 77.9196 26.2132 83.2625 25.7789C88.6053 25.3258 91.2673 31.7637 91.2673 31.7637Z" fill="#7F4539"/>
<path d="M91.7195 34.4448C91.7195 34.4448 91.2286 34.407 90.8699 34.5203C88.3401 35.2754 88.1136 37.1445 88.1136 37.1445C88.1136 37.1445 89.1708 38.0696 91.2286 37.5598C91.6251 37.4654 91.7573 37.3899 92.0782 37.2011L91.7006 34.4636L91.7195 34.4448Z" fill="white"/>
<path d="M79.9584 33.9911C80.9968 33.2737 82.8847 33.1415 84.0175 33.5758" stroke="#00113E" stroke-width="0.39" stroke-linecap="square" stroke-linejoin="round"/>
<path d="M87.2651 37.6538C87.6238 38.1258 87.9637 38.6167 88.3035 39.1075C88.3979 39.2397 88.4923 39.4096 88.4357 39.5606C88.3979 39.6928 88.2846 39.7683 88.1714 39.8438C87.8882 40.0137 87.5861 40.1459 87.2651 40.2592" stroke="#00113E" stroke-width="0.39" stroke-linecap="square" stroke-linejoin="round"/>
<path d="M77.8057 38.8815C77.6736 37.8998 76.0689 37.4089 75.0871 37.4278C74.0865 37.4466 73.1803 38.1829 72.8594 39.1269C72.5196 40.0709 72.7461 41.147 73.3314 41.9588C73.9166 42.7706 74.8228 43.2992 75.7857 43.5258C76.7485 43.7523 77.768 43.6957 78.7497 43.4503L77.8246 38.8626L77.8057 38.8815Z" fill="#7F4539"/>
<path d="M80.695 45.8101C80.695 45.8101 81.79 49.9635 87.7936 49.7369L87.6048 47.7357C86.4343 47.8679 83.6401 47.698 80.695 45.8101Z" fill="#00113E"/>
<path d="M88.2276 33.4065C89.1149 32.8779 90.1722 32.6325 91.2105 32.708" stroke="#00113E" stroke-width="0.39" stroke-linecap="square" stroke-linejoin="round"/>
<path d="M91.2295 37.5598C91.626 37.4654 91.777 37.371 92.098 37.1822L91.9847 36.125C91.9847 35.9362 91.9469 35.7474 91.9092 35.5586L91.7204 34.4259C91.7204 34.4259 91.2106 34.407 90.8519 34.5014C90.5687 34.5769 90.4366 34.6335 90.21 34.7468C90.21 34.7846 90.0024 37.0501 90.6254 37.6542C90.7953 37.6353 91.0596 37.5976 91.2484 37.5409L91.2295 37.5598Z" fill="#00113E"/>
<path d="M84.169 25.458C79.4492 25.3636 76.6173 28.0444 76.6173 28.0444L74.7105 31.0085C74.4273 31.1973 75.0503 33.5383 74.786 33.746C74.635 33.8781 74.4651 34.0103 74.3895 34.1991C74.2951 34.4445 74.465 34.6899 74.465 34.9543C74.5594 36.5212 75.2769 38.277 76.9005 38.9378C77.7689 37.1254 77.8067 34.8032 77.1648 32.8775C78.3542 32.2356 79.3548 31.235 79.9589 30.0456C83.0362 32.6887 87.7749 33.2362 91.362 31.3294C91.362 31.3294 88.8699 25.5713 84.1501 25.4769L84.169 25.458Z" fill="#00113E"/>
<path d="M76.9758 39.4097C76.6926 39.1454 76.3339 38.9189 75.9563 38.8245C75.5787 38.7301 75.1445 38.749 74.8047 38.9377C74.2383 39.2398 73.9551 39.9572 74.1062 40.5991C74.2572 41.241 74.7669 41.7319 75.3711 41.9395C75.9752 42.1472 76.6548 42.0906 77.259 41.8451" stroke="#00113E" stroke-width="0.39" stroke-linecap="square" stroke-linejoin="round"/>
<path d="M79.0716 36.8612C79.0716 36.8612 79.8457 35.1243 82.4699 35.3319C85.0941 35.5396 85.5094 37.2954 85.5094 37.2954C85.5094 37.2954 83.8292 38.6736 81.9224 38.4281C79.8079 38.1449 79.0716 36.8612 79.0716 36.8612Z" fill="white"/>
<path d="M82.677 35.2749C82.677 35.2749 82.5825 35.2749 82.5448 35.2749C82.5448 35.3127 81.8274 37.0495 82.8091 38.4277C84.4138 38.3333 85.6976 37.2383 85.6976 37.2383C85.6976 37.2383 85.2823 35.4826 82.6581 35.2749H82.677Z" fill="#00113E"/>
<path d="M88.6623 41.5051C87.9638 41.2786 87.2464 41.1275 86.5101 41.0709C86.3968 41.0709 86.2646 41.052 86.1702 41.1087C86.0192 41.2031 86.0003 41.4107 86.0003 41.5806C86.0003 42.147 85.9626 42.6379 86.4157 43.1665C86.8876 43.714 88.1337 43.8462 88.3791 43.0721" fill="#7C2419"/>
<path d="M88.6623 41.5051C87.9638 41.2786 87.2464 41.1275 86.5101 41.0709C86.3968 41.0709 86.2646 41.052 86.1702 41.1087C86.0192 41.2031 86.0003 41.4107 86.0003 41.5806C86.0003 42.147 85.9626 42.6379 86.4157 43.1665C86.8876 43.714 88.1337 43.8462 88.3791 43.0721" stroke="#00113E" stroke-width="0.39" stroke-linecap="square" stroke-linejoin="round"/>
<path d="M72.6707 29.3279L71.5569 27.7799L77.4849 22.6636L78.8065 24.0984L72.6707 29.3279Z" fill="#ED73EE"/>
<path d="M61.0996 64.7081C64.1391 60.6868 65.9893 58.2326 67.7262 56.8732C70.7658 54.4945 72.295 54.5888 72.3328 54.5888L78.6573 53.626L88.4556 53.4561C90.8533 53.3806 95.4976 53.8714 97.2533 55.5328L104.163 61.6686L98.0085 70.4852L95.1389 67.3323L93.5908 85.3431L73.5788 86.1549L73.2956 83.795C73.2956 83.795 72.6348 75.5448 72.2572 67.7477L69.5952 71.1648L61.0807 64.6892L61.0996 64.7081Z" fill="#6537D3"/>
<path d="M98.0082 70.4853C99.9528 67.5779 102.199 64.5761 104.163 61.6687" stroke="#00113E" stroke-width="0.39" stroke-linecap="square" stroke-linejoin="round"/>
<path d="M59.9659 80.2081C58.6066 79.4907 57.0773 79.1509 55.5481 79.2264" stroke="#00113E" stroke-width="0.39" stroke-linecap="square" stroke-linejoin="round"/>
<mask id="mask1_1023_4400" style="mask-type:luminance" maskUnits="userSpaceOnUse" x="61" y="53" width="44" height="34">
<path d="M61.0996 64.7081C64.1391 60.6868 65.9893 58.2326 67.7262 56.8732C70.7658 54.4945 72.295 54.5888 72.3328 54.5888L78.6573 53.626L88.4556 53.4561C90.8533 53.3806 95.4976 53.8714 97.2533 55.5328L104.163 61.6686L98.0085 70.4852L95.1389 67.3323L93.5908 85.3431L73.5788 86.1549L73.2956 83.795C73.2956 83.795 72.6348 75.5448 72.2572 67.7477L69.5952 71.1648L61.0807 64.6892L61.0996 64.7081Z" fill="white"/>
</mask>
<g mask="url(#mask1_1023_4400)">
<path d="M72.9371 73.6379C73.2769 73.6001 73.6167 73.5435 73.9566 73.5246C74.2964 73.5057 74.6362 73.4679 74.976 73.4679C75.3159 73.4679 75.7123 73.5623 76.0522 73.5623C76.392 73.5623 76.694 73.3358 77.0339 73.3358C77.3737 73.3358 77.7135 73.4302 78.0534 73.4302C78.3743 73.4302 78.7141 73.4302 79.0351 73.4302C79.356 73.4302 79.6958 73.2792 80.0168 73.2792C80.3377 73.2792 80.5832 73.3169 80.9041 73.3169C81.2251 73.3169 81.6782 73.0526 81.9991 73.0526C82.3201 73.0526 82.6599 72.9204 82.9808 72.9582C83.3207 72.9771 83.6416 73.0526 83.9814 73.0904C84.3213 73.1281 84.6611 73.2603 84.982 73.298C85.3219 73.3547 85.6428 73.2414 85.9638 73.298C86.3036 73.3547 86.6245 73.4113 86.9644 73.4491C86.9832 73.4491 87.0021 73.4491 87.021 73.4491C87.0587 73.4491 87.1154 73.4113 87.1531 73.4113C87.4741 73.3547 87.8139 73.6001 88.1349 73.5246C88.4558 73.4679 88.7767 73.9777 89.0977 73.9022C89.4186 73.8455 89.7585 73.9211 90.0794 73.8644C90.4192 73.7889 90.7213 74.242 91.0611 74.1665C91.401 74.091 91.703 73.8267 92.0429 73.77C92.3827 73.7134 92.7414 73.7323 93.0812 73.7134C93.421 73.6756 93.7986 73.2792 94.1384 73.2792C94.4783 73.2792 94.8181 73.3358 95.1579 73.3735C95.6677 73.4491 95.6866 74.7706 95.1579 74.8839C94.8181 74.9594 94.4783 75.0349 94.1384 75.0916C93.7986 75.1482 93.4588 75.2048 93.119 75.2426C92.7791 75.2804 92.4393 75.0916 92.0995 75.1104C91.7597 75.1293 91.3066 75.7335 90.9667 75.7523C90.6269 75.7712 90.2682 75.5069 89.9284 75.5258C89.6074 75.5635 89.3242 76.3376 88.9844 76.3754C88.6635 76.4131 88.3048 76.0166 87.9838 76.0544C87.6629 76.0922 87.4363 76.3754 87.0965 76.3942C86.7567 76.4131 86.4357 76.4131 86.1148 76.432C85.7938 76.432 85.2652 75.8845 84.9443 75.8845C84.6044 75.8845 84.359 75.96 84.0381 75.9411C83.6982 75.9411 83.4528 76.1299 83.113 76.0922C82.7731 76.0733 82.5089 75.6957 82.1879 75.6768C81.8481 75.6579 81.5271 75.6202 81.1873 75.6013C80.8475 75.5824 80.5265 75.5069 80.1867 75.488C79.8469 75.488 79.4882 75.1105 79.1484 75.1293C78.8085 75.1482 78.5253 75.4125 78.1855 75.4503C77.8457 75.488 77.5247 75.5635 77.1849 75.5824C76.8451 75.6013 76.5241 75.6013 76.1843 75.6013C75.8634 75.6013 75.5424 75.7523 75.2403 75.7146C75.1648 75.7146 75.0704 75.7334 74.9949 75.7334C74.6551 75.7334 74.2964 75.1293 73.9566 75.1104C73.6167 75.0727 73.3147 75.3748 72.9748 75.2992C72.4651 75.1671 72.4085 73.6945 72.9371 73.619V73.6379Z" fill="#ED73EE"/>
<path d="M95.8749 84.7204C95.5351 84.7204 95.1764 84.7203 94.8365 84.7015C94.4967 84.7015 94.138 84.6826 93.7982 84.6448C93.4583 84.6071 93.0619 84.4749 92.722 84.4372C92.3822 84.3994 92.0424 84.5882 91.7026 84.5693C91.3627 84.5504 91.0229 84.4183 90.6831 84.3994C90.3433 84.3805 90.0223 84.3617 89.6825 84.3428C89.3427 84.3428 89.0217 84.4372 88.6819 84.4372C88.3421 84.4372 88.1155 84.3805 87.7757 84.3617C87.4359 84.3428 86.9828 84.6071 86.6618 84.5882C86.3409 84.5693 86.001 84.7015 85.6612 84.6826C85.3214 84.6448 85.0004 84.5882 84.6606 84.5316C84.3208 84.4938 83.981 84.3805 83.6411 84.3239C83.3013 84.2673 82.9804 84.3994 82.6405 84.3617L81.6211 84.2295H81.5644C81.5644 84.2295 81.47 84.2484 81.4323 84.2673C81.1113 84.3428 80.7526 84.1162 80.4317 84.1918C80.1107 84.2673 79.752 83.7764 79.4311 83.8708C79.1101 83.9652 78.7514 83.8708 78.4305 83.9841C78.0906 84.0785 77.7508 83.6631 77.411 83.7764C77.0712 83.8708 76.788 84.1729 76.4481 84.2673C76.1083 84.3617 75.7307 84.3617 75.4098 84.4561C75.07 84.5316 74.7301 84.9847 74.3903 85.0224C74.0505 85.0602 73.7107 85.0791 73.352 85.0602C72.8233 85.0602 72.6157 83.7575 73.1254 83.5687C73.4652 83.4366 73.805 83.3233 74.1449 83.2289C74.4847 83.1345 74.8245 83.0401 75.1644 82.9457C75.5042 82.8702 75.8818 83.0212 76.2216 82.9457C76.5614 82.8891 76.9768 82.2472 77.3355 82.1905C77.6942 82.1339 78.0906 82.3793 78.4305 82.3227C78.7703 82.2661 79.0157 81.4542 79.3556 81.3976C79.6954 81.341 80.073 81.6997 80.4317 81.6619C80.7715 81.6242 80.998 81.3032 81.3379 81.2655C81.6777 81.2277 82.0175 81.2088 82.3762 81.1899C82.716 81.1711 83.2824 81.7185 83.6223 81.7185C83.9621 81.7185 84.2264 81.643 84.5851 81.643C84.9249 81.643 85.2081 81.4731 85.5479 81.492C85.8878 81.5109 86.1709 81.8885 86.5296 81.9262L87.568 82.0206C87.9078 82.0584 88.2477 82.1528 88.6064 82.1717C88.9462 82.1905 89.3238 82.587 89.6636 82.587C90.0034 82.587 90.3244 82.3416 90.6831 82.3416C91.0229 82.3416 91.3816 82.2849 91.7403 82.2849C92.0802 82.2849 92.4389 82.3227 92.7787 82.3605C93.0996 82.3982 93.4583 82.2661 93.7793 82.3605C93.8737 82.3605 93.9492 82.3605 94.0436 82.3605C94.4023 82.3982 94.7044 83.0401 95.0442 83.1156C95.384 83.1911 95.7427 82.9268 96.0826 83.059C96.6112 83.2478 96.4224 84.7392 95.8938 84.7392L95.8749 84.7204Z" fill="#ED73EE"/>
<path d="M67.4421 54.7589C67.914 54.7589 68.386 54.74 68.858 54.7589C69.33 54.7589 69.802 54.7589 70.2551 54.7778C70.7271 54.7967 71.2746 54.9288 71.7465 54.9477C72.2185 54.9477 72.6527 54.7778 73.1247 54.7967C73.5967 54.7967 74.0498 54.9288 74.5218 54.9288H75.8811C76.3342 54.9477 76.7873 54.8155 77.2404 54.8155C77.6935 54.8155 78.0144 54.8533 78.4675 54.8533C78.9206 54.8533 79.5248 54.5701 79.9779 54.589C80.431 54.589 80.8841 54.4568 81.3183 54.4757C81.7714 54.4757 82.2434 54.5512 82.6965 54.589C83.1496 54.6079 83.6404 54.7211 84.0935 54.7589C84.5467 54.7966 84.9998 54.6645 85.4529 54.6834L86.831 54.7778H86.9066C86.9066 54.7778 87.0198 54.74 87.0953 54.74C87.5484 54.6645 88.0204 54.8722 88.4546 54.7778C88.9077 54.6834 89.3609 55.1554 89.814 55.061C90.2671 54.9666 90.7202 55.0232 91.1733 54.9099C91.6264 54.7966 92.0795 55.1931 92.5514 55.0799C93.0045 54.9666 93.401 54.6456 93.873 54.5512C94.3261 54.4379 94.8358 54.4191 95.2889 54.3247C95.742 54.2303 96.214 53.7772 96.686 53.7206C97.158 53.6639 97.6111 53.645 98.0831 53.645C98.8005 53.645 98.9893 54.9288 98.3096 55.1365C97.8565 55.2686 97.4034 55.4008 96.9314 55.5141C96.4783 55.6273 96.0063 55.7218 95.5344 55.8161C95.0624 55.9105 94.5715 55.7595 94.0995 55.835C93.6276 55.9105 93.0423 56.5713 92.5892 56.6279C92.1172 56.7035 91.5886 56.458 91.1166 56.5335C90.6635 56.6091 90.3237 57.4209 89.8706 57.4775C89.4175 57.553 88.9077 57.1943 88.4546 57.251C88.0015 57.3076 87.6995 57.6285 87.2275 57.6663C86.7744 57.7229 86.3024 57.7418 85.8493 57.7796C85.3962 57.8173 84.6222 57.2887 84.1691 57.2887C83.6971 57.2887 83.3573 57.3831 82.8853 57.3831C82.4133 57.3831 82.0735 57.5719 81.6015 57.5719C81.1295 57.5719 80.7519 57.1943 80.2799 57.1754L78.8829 57.1188C78.4109 57.0999 77.9578 57.0055 77.4858 57.0055C77.0138 57.0055 76.5041 56.6279 76.0321 56.6279C75.5601 56.6279 75.1448 56.8922 74.6917 56.9111C74.2197 56.93 73.7666 56.9866 73.2946 57.0055C72.8226 57.0055 72.3695 57.0055 71.8976 56.9678C71.4445 56.9489 70.9914 57.0811 70.5571 57.0244C70.4439 57.0244 70.3117 57.0244 70.1984 57.0244C69.7265 57.0055 69.2356 56.3825 68.7825 56.307C68.3105 56.2504 67.8763 56.5147 67.4043 56.4014C66.6869 56.2315 66.7435 54.74 67.461 54.7211L67.4421 54.7589Z" fill="#ED73EE"/>
<path d="M62.5716 59.139C62.7792 59.2334 62.9869 59.3467 63.1757 59.46C63.3645 59.5921 63.5533 59.7054 63.7232 59.8376C63.912 59.9697 64.0253 60.234 64.1952 60.3851C64.3651 60.5361 64.6671 60.5172 64.8182 60.6683C64.9692 60.8193 65.0636 61.0458 65.2146 61.1969L65.6678 61.65C65.8188 61.801 66.0642 61.8577 66.1964 62.0087C66.3474 62.1597 66.4229 62.2919 66.5551 62.4429C66.6872 62.5939 67.0837 62.6317 67.2158 62.7827C67.348 62.9526 67.5934 63.0093 67.7067 63.1792C67.82 63.3491 67.9144 63.5568 68.0088 63.7456C68.122 63.9344 68.1598 64.1609 68.2542 64.3497C68.3486 64.5385 68.5751 64.614 68.6695 64.8028L68.9527 65.3692V65.4069C68.9527 65.4069 69.0282 65.4258 69.0471 65.4447C69.217 65.558 69.1793 65.86 69.3492 65.9733C69.5191 66.0866 69.2737 66.5586 69.4625 66.6719C69.6513 66.7851 69.7079 66.9928 69.8967 67.0872C70.0855 67.1816 69.8967 67.6158 70.0855 67.7291C70.2743 67.8424 70.5952 67.7857 70.784 67.8801C70.9728 67.9934 71.105 68.1633 71.2749 68.2766C71.4448 68.3899 71.879 68.2766 72.03 68.4088C72.1622 68.5409 72.2944 68.7108 72.3888 68.8807C72.5587 69.145 71.7091 70.1456 71.3882 70.0135C71.1805 69.9191 70.9728 69.8436 70.784 69.7303C70.5952 69.617 70.4064 69.5037 70.2176 69.3905C70.0288 69.2772 70.0289 68.9751 69.8589 68.843C69.689 68.7108 69.066 68.8996 68.8961 68.7675C68.7262 68.6353 68.7828 68.2766 68.6129 68.1444C68.4619 68.0123 67.7445 68.4087 67.5745 68.2766C67.4046 68.1444 67.5557 67.7291 67.4046 67.5969C67.2536 67.4648 66.9327 67.5403 66.7816 67.4082C66.6306 67.276 66.4984 67.1249 66.3474 66.9739C66.1964 66.8229 66.4229 66.1999 66.2907 66.0489C66.1586 65.8978 66.0076 65.8223 65.8754 65.6524C65.7433 65.4825 65.4978 65.5013 65.3845 65.3314C65.2713 65.1615 65.4412 64.7839 65.3279 64.6329L64.9692 64.1232C64.8559 63.9532 64.7615 63.7645 64.6483 63.5945C64.5161 63.4435 64.6483 63.0282 64.4783 62.896C64.3273 62.7639 64.0064 62.8016 63.8553 62.6884C63.6854 62.5751 63.4966 62.4807 63.3267 62.3674C63.1757 62.2352 63.0246 62.1031 62.8736 61.9709C62.7414 61.8388 62.496 61.8199 62.3828 61.6689C62.345 61.65 62.2883 61.6122 62.2506 61.5934C62.0996 61.4801 62.3261 60.8759 62.1751 60.706C62.0429 60.555 61.7031 60.6871 61.5898 60.4984C61.4199 60.2152 62.2695 58.988 62.5904 59.139H62.5716Z" fill="#ED73EE"/>
<path d="M95.573 68.1444C95.6296 67.9745 95.7051 67.8045 95.7806 67.6346C95.8561 67.4647 95.9316 67.3137 96.026 67.1626C96.1204 67.0116 96.3281 66.8795 96.4225 66.7284C96.5169 66.5774 96.4225 66.3131 96.5169 66.162C96.6113 66.011 96.7812 65.9166 96.8756 65.7656L97.1399 65.3125C97.2154 65.1614 97.1966 64.9538 97.2721 64.8027C97.3476 64.6517 97.442 64.5573 97.5364 64.4252C97.6308 64.2741 97.4986 63.9343 97.593 63.8021C97.6874 63.6511 97.6497 63.4434 97.7441 63.3113C97.8573 63.1791 97.9895 63.047 98.1216 62.9148C98.2349 62.7827 98.4237 62.6694 98.5559 62.5372C98.688 62.4051 98.6503 62.1974 98.7824 62.0652L99.16 61.6688H99.1789C99.1789 61.6688 99.1789 61.5933 99.1789 61.5555C99.1978 61.3856 99.4998 61.3289 99.5187 61.1402C99.5376 60.9514 100.066 61.0269 100.085 60.8381C100.085 60.6493 100.255 60.536 100.274 60.3472C100.274 60.1584 100.746 60.1962 100.765 59.9885C100.784 59.7809 100.595 59.5354 100.614 59.3466C100.614 59.1578 100.727 58.9879 100.765 58.818C100.803 58.6292 100.5 58.3083 100.576 58.1384C100.651 57.9685 100.746 57.8174 100.859 57.6853C101.029 57.4587 102.256 57.9118 102.275 58.2139C102.275 58.4027 102.275 58.6103 102.275 58.7991C102.256 58.9879 102.237 59.1767 102.2 59.3655C102.162 59.5543 101.916 59.6487 101.86 59.8375C101.822 60.0263 102.256 60.4794 102.2 60.6682C102.143 60.857 101.803 60.9136 101.765 61.1024C101.728 61.2723 102.369 61.7443 102.313 61.9331C102.256 62.1219 101.841 62.1219 101.784 62.2918C101.728 62.4617 101.935 62.7071 101.879 62.8959C101.822 63.0659 101.746 63.2357 101.671 63.4057C101.595 63.5756 100.954 63.5756 100.878 63.7455C100.784 63.9154 100.784 64.0664 100.689 64.2175C100.595 64.3685 100.689 64.5951 100.576 64.7461C100.463 64.8971 100.066 64.8594 99.9529 64.9915L99.6131 65.4258C99.4998 65.5768 99.3488 65.6901 99.2355 65.8411C99.1223 65.9921 98.7069 65.9732 98.6314 66.1431C98.5559 66.3131 98.688 66.5774 98.6314 66.7473C98.5559 66.9172 98.537 67.1249 98.4615 67.2948C98.386 67.4647 98.2916 67.6157 98.1783 67.7668C98.0839 67.9178 98.1216 68.1443 97.9895 68.2765C97.9895 68.3143 97.9517 68.3709 97.9329 68.4087C97.8385 68.5597 97.2154 68.4087 97.1022 68.5408C96.97 68.673 97.121 68.9939 96.9511 69.0883C96.6868 69.2582 95.4597 68.3898 95.5541 68.1255L95.573 68.1444Z" fill="#ED73EE"/>
<path d="M72.408 64.0476C72.7478 63.991 73.0876 63.9155 73.4275 63.8777C73.7673 63.8399 74.1071 63.7833 74.4469 63.7644C74.7868 63.7455 75.2021 63.8211 75.5419 63.8022C75.8818 63.7833 76.1838 63.5568 76.5237 63.5379C76.8635 63.5379 77.2033 63.5945 77.5431 63.5757C77.8641 63.5568 78.2039 63.5379 78.5248 63.519C78.8458 63.5001 79.1667 63.3491 79.5065 63.3302C79.8275 63.3113 80.0729 63.3302 80.4128 63.3302C80.7337 63.3302 81.1679 63.0281 81.5078 63.0093C81.8287 63.0093 82.1685 62.8394 82.4895 62.8582C82.8293 62.8582 83.1691 62.9149 83.509 62.9526C83.8488 62.9715 84.2075 63.0848 84.5284 63.1037C84.8683 63.1414 85.1892 63.0092 85.529 63.047C85.8689 63.0848 86.2087 63.1225 86.5485 63.1414C86.5674 63.1414 86.5863 63.1414 86.6052 63.1414C86.6429 63.1414 86.6995 63.1037 86.7373 63.1037C87.0582 63.0282 87.4169 63.2547 87.7379 63.1792C88.0588 63.1037 88.3987 63.5945 88.7196 63.519C89.0406 63.4435 89.3804 63.519 89.7013 63.4246C90.0412 63.3302 90.3621 63.7644 90.7019 63.67C91.0418 63.5756 91.3249 63.2925 91.6648 63.2169C92.0046 63.1414 92.3633 63.1414 92.7031 63.1037C93.043 63.047 93.4017 62.6317 93.7415 62.6128C94.0813 62.6128 94.4211 62.6128 94.761 62.6694C95.2896 62.7261 95.3651 64.0287 94.8554 64.1798C94.5155 64.2742 94.1757 64.3686 93.8359 64.4441C93.4961 64.5196 93.1562 64.5951 92.8164 64.6518C92.4766 64.7084 92.1179 64.5196 91.778 64.5762C91.4382 64.6329 91.004 65.237 90.6642 65.2748C90.3244 65.3125 89.9468 65.0671 89.6069 65.1049C89.286 65.1615 89.0217 65.9544 88.7008 66.0111C88.3798 66.0677 88.0022 65.6901 87.6813 65.7468C87.3603 65.7845 87.1338 66.1054 86.8128 66.1432C86.4919 66.181 86.152 66.1998 85.8311 66.2376C85.5102 66.2754 84.9438 65.7279 84.604 65.7468C84.2641 65.7468 84.0187 65.8411 83.6789 65.86C83.339 65.86 83.0936 66.0677 82.7538 66.0677C82.414 66.0677 82.1308 65.709 81.7909 65.6901C81.4511 65.6901 81.1113 65.6901 80.7903 65.6712C80.4505 65.6712 80.1107 65.5957 79.7709 65.6146C79.4311 65.6335 79.0346 65.2748 78.7136 65.3125C78.3738 65.3503 78.0906 65.6146 77.7697 65.6712C77.4298 65.7279 77.1089 65.8223 76.7691 65.86C76.4292 65.8978 76.1083 65.9167 75.7685 65.9356C75.4475 65.9356 75.1266 66.1243 74.8056 66.1055C74.7301 66.1055 74.6357 66.1432 74.5413 66.1432C74.2015 66.1621 73.805 65.5957 73.4463 65.5768C73.1065 65.5768 72.8044 65.8789 72.4646 65.8223C71.936 65.7279 71.8227 64.2364 72.3325 64.142L72.408 64.0476Z" fill="#ED73EE"/>
</g>
<path d="M72.4257 70.7494L71.8027 61.6497" stroke="#00113E" stroke-width="0.39" stroke-linecap="square" stroke-linejoin="round"/>
<path d="M95.1004 69.1448L95.2891 61.4043" stroke="#00113E" stroke-width="0.39" stroke-linecap="square" stroke-linejoin="round"/>
<path d="M80.4502 77.8667C82.4892 79.8679 85.2455 81.1328 88.0963 81.3594" stroke="#00113E" stroke-width="0.39" stroke-linecap="square" stroke-linejoin="round"/>
<path d="M78.0525 73.4304C80.5634 76.6965 84.0749 79.1886 87.9829 80.4724" stroke="#00113E" stroke-width="0.39" stroke-linecap="square" stroke-linejoin="round"/>
<path d="M83.6211 84.9087C83.5645 84.6822 83.0358 84.4556 82.7526 84.399C80.9591 84.0403 76.9756 83.4739 76.1827 83.7382C75.2387 84.0403 72.4635 86.3435 72.4635 86.3435L68.7443 90.6102C68.7443 90.6102 72.388 93.2911 72.8599 93.1778C73.3508 93.0645 75.975 90.5725 75.975 90.5725C75.975 90.5725 79.9208 90.1949 80.3361 90.0439C80.7703 89.8928 80.8647 89.3831 80.8081 89.3076L76.9379 88.5335C76.9379 88.5335 80.7515 88.8167 81.5066 88.779C81.9031 88.7601 82.0919 88.5713 82.224 88.307C82.3373 88.0804 82.1863 87.8161 81.9597 87.7784L77.6742 87.1931L77.6175 86.9854C77.6175 86.9854 81.6577 87.7784 82.2996 87.2686C83.0736 87.0798 82.9037 86.117 82.2052 86.0226L78.6748 85.5506C78.6748 85.5506 81.4311 85.7205 82.7715 85.7394C83.2058 85.7394 83.7155 85.343 83.6211 84.9276V84.9087Z" fill="#7F4539"/>
<path d="M72.464 86.2678C72.2941 87.6271 72.1241 89.0053 71.9542 90.3646" stroke="#00113E" stroke-width="0.39" stroke-linecap="square" stroke-linejoin="round"/>
<path d="M39.236 15.3765C41.4449 12.7523 46.6744 12.7901 46.9199 12.8278C46.9199 12.8278 49.9028 12.8656 54.4338 13.2998C59.8521 13.8284 61.1359 16.4715 61.1359 16.4715C62.1743 18.0951 62.1554 20.153 62.061 22.0976C61.9477 24.8539 61.6834 27.7991 59.9088 29.9136C59.097 30.8764 58.0397 31.556 56.907 32.1035C57.7188 33.9537 59.3046 35.464 61.2492 36.0493C59.5689 37.1065 57.2846 36.7478 55.6043 35.6906C54.6604 35.0865 53.8486 34.2935 53.1311 33.4251C51.2243 33.9159 48.619 33.6705 46.6744 33.4628C43.6726 33.1608 41.9546 32.7077 40.3121 30.8764C37.7446 28.0256 37.7257 25.5713 37.7445 22.0787C37.7445 19.8887 37.3103 17.6609 39.236 15.3765Z" fill="#587D71"/>
<path d="M52.4895 23.0602C52.4895 23.9664 53.2258 24.7027 54.132 24.7027C55.0382 24.7027 55.7745 23.9664 55.7745 23.0602C55.7745 22.154 55.0382 21.4177 54.132 21.4177C53.2258 21.4177 52.4895 22.154 52.4895 23.0602Z" fill="#EBF4FA"/>
<path d="M47.7324 23.0602C47.7324 23.9664 48.4687 24.7027 49.3749 24.7027C50.2811 24.7027 51.0174 23.9664 51.0174 23.0602C51.0174 22.154 50.2811 21.4177 49.3749 21.4177C48.4687 21.4177 47.7324 22.154 47.7324 23.0602Z" fill="#EBF4FA"/>
<path d="M43.1817 23.0602C43.1817 23.9664 43.918 24.7027 44.8242 24.7027C45.7304 24.7027 46.4666 23.9664 46.4666 23.0602C46.4666 22.154 45.7304 21.4177 44.8242 21.4177C43.918 21.4177 43.1817 22.154 43.1817 23.0602Z" fill="#EBF4FA"/>
</g>
<path d="M65 207C65 197.059 73.0589 189 83 189H200C209.941 189 218 197.059 218 207V268C218 277.941 209.941 286 200 286H83C73.0589 286 65 277.941 65 268V207Z" fill="#587D71"/>
<path d="M83 189.5H200V188.5H83V189.5ZM217.5 207V268H218.5V207H217.5ZM200 285.5H83V286.5H200V285.5ZM65.5 268V207H64.5V268H65.5ZM83 285.5C73.335 285.5 65.5 277.665 65.5 268H64.5C64.5 278.217 72.7827 286.5 83 286.5V285.5ZM217.5 268C217.5 277.665 209.665 285.5 200 285.5V286.5C210.217 286.5 218.5 278.217 218.5 268H217.5ZM200 189.5C209.665 189.5 217.5 197.335 217.5 207H218.5C218.5 196.783 210.217 188.5 200 188.5V189.5ZM83 188.5C72.7827 188.5 64.5 196.783 64.5 207H65.5C65.5 197.335 73.335 189.5 83 189.5V188.5Z" fill="#587D71"/>
<mask id="mask2_1023_4400" style="mask-type:alpha" maskUnits="userSpaceOnUse" x="27" y="151" width="155" height="136">
<path d="M28 170C28 160.059 36.0589 152 46 152H163C172.941 152 181 160.059 181 170V268C181 277.941 172.941 286 163 286H46C36.0589 286 28 277.941 28 268V170Z" fill="#FD5001"/>
<path d="M46 152.5H163V151.5H46V152.5ZM180.5 170V268H181.5V170H180.5ZM163 285.5H46V286.5H163V285.5ZM28.5 268V170H27.5V268H28.5ZM46 285.5C36.335 285.5 28.5 277.665 28.5 268H27.5C27.5 278.217 35.7827 286.5 46 286.5V285.5ZM180.5 268C180.5 277.665 172.665 285.5 163 285.5V286.5C173.217 286.5 181.5 278.217 181.5 268H180.5ZM163 152.5C172.665 152.5 180.5 160.335 180.5 170H181.5C181.5 159.783 173.217 151.5 163 151.5V152.5ZM46 151.5C35.7827 151.5 27.5 159.783 27.5 170H28.5C28.5 160.335 36.335 152.5 46 152.5V151.5Z" fill="#FD5001"/>
</mask>
<g mask="url(#mask2_1023_4400)">
<path d="M127.895 163.577C125.968 161.314 121.441 161.343 121.237 161.373C121.237 161.373 118.653 161.402 114.725 161.781C110.023 162.234 108.913 164.526 108.913 164.526C108.008 165.928 108.023 167.724 108.11 169.403C108.212 171.783 108.431 174.353 109.979 176.178C110.68 177.011 111.6 177.609 112.578 178.077C111.877 179.683 110.49 180.982 108.811 181.508C110.271 182.428 112.242 182.121 113.703 181.201C114.535 180.676 115.221 179.989 115.849 179.245C117.499 179.668 119.748 179.449 121.456 179.274C124.055 179.011 125.544 178.617 126.975 177.025C129.209 174.558 129.224 172.426 129.209 169.389C129.209 167.491 129.589 165.549 127.91 163.577H127.895Z" fill="#EBF4FA"/>
<path d="M116.404 170.236C116.404 171.024 115.761 171.667 114.973 171.667C114.184 171.667 113.542 171.024 113.542 170.236C113.542 169.447 114.184 168.805 114.973 168.805C115.761 168.805 116.404 169.447 116.404 170.236Z" fill="#587D71"/>
<path d="M119.105 171.667C118.315 171.667 117.674 171.026 117.674 170.236C117.674 169.445 118.315 168.805 119.105 168.805C119.896 168.805 120.536 169.445 120.536 170.236C120.536 171.026 119.896 171.667 119.105 171.667Z" fill="#587D71"/>
<path d="M124.478 170.236C124.478 171.024 123.836 171.667 123.048 171.667C122.259 171.667 121.617 171.024 121.617 170.236C121.617 169.447 122.259 168.805 123.048 168.805C123.836 168.805 124.478 169.447 124.478 170.236Z" fill="#587D71"/>
<g clip-path="url(#clip0_1023_4400)">
<path d="M167.315 261.508C167.289 261.766 165.159 265.458 166.024 267.937C166.889 270.415 168.09 272.171 168.09 272.171L168.529 272.08C168.852 271.435 168.929 270.699 168.787 269.989L168.348 267.937L169.381 270.105L169.291 272.506C169.291 272.506 169.291 272.622 169.317 272.79C169.42 273.681 170.156 274.378 171.06 274.417L172.209 274.468C172.209 274.468 172.751 274.301 173.151 272.571C173.332 271.822 173.242 267.601 173.216 267.472C173.19 267.343 171.873 261.883 171.86 261.792C171.834 261.702 167.315 261.521 167.315 261.521V261.508Z" fill="#FFA81F"/>
<path d="M170.827 274.417C170.659 273.436 170.995 272.455 171.15 271.474C171.37 270.17 171.292 268.801 170.827 267.562" stroke="#00113E" stroke-width="0.44" stroke-linecap="square" stroke-linejoin="round"/>
<path d="M171.951 274.455C172.17 273.332 172.377 272.209 172.454 271.073C172.532 269.937 172.48 268.776 172.157 267.691" stroke="#00113E" stroke-width="0.44" stroke-linecap="square" stroke-linejoin="round"/>
<path d="M168.464 268.363C168.167 267.304 167.793 266.271 167.367 265.252" stroke="#00113E" stroke-width="0.44" stroke-linecap="square" stroke-linejoin="round"/>
<path d="M162.215 244.43L169.239 243.217L166.812 229.573L159.31 230.489L162.215 244.43Z" fill="#FFA81F"/>
<path d="M167.147 263.587L172.028 262.954L169.239 243.217L162.215 244.43L167.147 263.587Z" fill="#FFA81F"/>
<path d="M152.144 208.416L152.053 216.187L143.118 216.083L142.963 203.059L152.144 208.416Z" fill="#FFA81F"/>
<path d="M157.128 193.842C157.167 194.01 157.554 201.587 157.321 203.394C157.089 205.202 155.488 208.222 151.976 208.416C147.741 208.661 142.705 203.394 142.705 203.394L142.847 191.57C142.847 191.57 145.159 187.336 150.22 187.44C155.281 187.543 157.141 193.842 157.141 193.842H157.128Z" fill="#FFA81F"/>
<path d="M157.283 196.411C157.283 196.411 156.818 196.333 156.469 196.398C154.029 196.85 153.629 198.592 153.629 198.592C153.629 198.592 154.52 199.561 156.521 199.289C156.895 199.238 157.037 199.173 157.36 199.031L157.283 196.424V196.411Z" fill="#EBF4FA"/>
<path d="M146.308 194.849C147.341 194.281 149.122 194.333 150.155 194.862" stroke="#00113E" stroke-width="0.44" stroke-linecap="square" stroke-linejoin="round"/>
<path d="M152.802 198.98C153.099 199.457 153.37 199.948 153.629 200.451C153.693 200.58 153.771 200.748 153.719 200.89C153.667 201.006 153.551 201.071 153.435 201.123C153.151 201.252 152.854 201.355 152.544 201.419" stroke="#00113E" stroke-width="0.44" stroke-linecap="square" stroke-linejoin="round"/>
<path d="M143.803 199.212C143.764 198.27 142.318 197.663 141.388 197.586C140.446 197.508 139.529 198.115 139.129 198.954C138.728 199.806 138.819 200.838 139.297 201.652C139.761 202.465 140.562 203.059 141.453 203.368C142.344 203.678 143.299 203.717 144.242 203.588L143.816 199.199L143.803 199.212Z" fill="#FFA81F"/>
<path d="M145.843 205.925C145.843 205.925 146.476 209.926 152.131 210.288L152.157 208.403C151.033 208.416 148.438 207.977 145.856 205.925H145.843Z" fill="#00113E"/>
<path d="M154.106 195.081C154.997 194.668 156.017 194.539 156.973 194.707" stroke="#00113E" stroke-width="0.44" stroke-linecap="square" stroke-linejoin="round"/>
<path d="M156.521 199.277C156.895 199.225 157.037 199.16 157.36 199.018V198.012C157.373 197.831 157.36 197.65 157.36 197.469L157.283 196.411C157.283 196.411 156.818 196.333 156.469 196.398C156.198 196.45 156.056 196.488 155.837 196.566C155.837 196.605 155.411 198.709 155.927 199.328C156.082 199.328 156.34 199.315 156.521 199.289V199.277Z" fill="#00113E"/>
<path d="M142.963 199.625C142.718 199.341 142.408 199.096 142.06 198.967C141.711 198.838 141.311 198.812 140.962 198.967C140.407 199.199 140.071 199.845 140.149 200.451C140.226 201.058 140.652 201.574 141.207 201.832C141.75 202.091 142.408 202.091 142.989 201.923" stroke="#00113E" stroke-width="0.44" stroke-linecap="square" stroke-linejoin="round"/>
<path d="M145.197 197.444C145.197 197.444 146.101 195.882 148.541 196.333C150.982 196.785 151.201 198.476 151.201 198.476C151.201 198.476 149.51 199.548 147.741 199.135C145.778 198.67 145.197 197.444 145.197 197.444Z" fill="#EBF4FA"/>
<path d="M148.722 196.308C148.722 196.308 148.645 196.308 148.606 196.295C148.593 196.32 147.754 197.857 148.541 199.251C150.065 199.328 151.395 198.45 151.395 198.45C151.395 198.45 151.175 196.759 148.735 196.308H148.722Z" fill="#00113E"/>
<path d="M152.828 202.904C152.35 202.439 151.782 202.078 151.163 201.845C150.853 201.729 150.491 201.652 150.207 201.82C150.013 201.936 149.897 202.142 149.858 202.362C149.768 202.917 150.168 203.472 150.698 203.666C151.227 203.859 151.847 203.795 152.338 203.536C152.531 203.433 152.828 203.123 152.841 202.904" fill="#EBF4FA"/>
<path d="M144.797 189.479C144.565 187.659 146.101 185.8 147.935 185.697C148.877 185.645 149.807 185.981 150.736 185.865C151.434 185.775 152.079 185.426 152.738 185.194C153.409 184.961 154.184 184.858 154.791 185.232C155.591 185.723 155.772 186.846 156.508 187.44C157.812 188.472 160.098 187.298 161.247 188.511C161.763 189.053 161.841 189.931 162.422 190.422C163.054 190.938 164.1 190.848 164.578 191.506C164.952 192.035 164.733 192.81 164.255 193.236C163.777 193.662 163.119 193.816 162.473 193.894C161.828 193.971 161.182 193.984 160.575 194.204C159.943 194.423 159.374 194.875 158.703 194.875C156.921 194.875 156.237 191.983 154.468 191.971C153.964 191.971 153.5 192.203 153.022 192.358C151.408 192.874 149.484 192.242 148.49 190.86C148.038 191.79 147.018 192.409 145.985 192.397C145.714 192.397 145.404 192.358 145.171 192.5C144.874 192.693 144.81 193.094 144.784 193.455C144.655 194.952 144.539 196.437 144.41 197.934C144.371 198.322 144.203 198.838 143.816 198.799C143.596 198.773 143.454 198.58 143.299 198.412C142.731 197.779 141.634 197.521 140.936 197.586C140.73 196.063 140.665 194.72 140.704 193.184C140.73 192.009 140.846 190.783 141.517 189.828C142.189 188.873 143.583 188.33 144.565 188.963" fill="#00113E"/>
<path d="M158.432 258.281C158.432 258.888 162.047 293.728 161.544 297.329C161.04 300.944 151.834 324.708 151.834 324.708L142.679 324.514L148.606 297.523L142.215 264.697L142.085 256.345L158.445 258.268L158.432 258.281Z" fill="#FFA81F"/>
<path d="M142.757 256.358C142.705 256.487 143.738 259.34 143.57 263.625C142.86 281 140.226 323.959 140.226 323.959L131.963 324.54L129.871 306.03L128.76 264.335L130.155 256.952L142.757 256.371V256.358Z" fill="#FFA81F"/>
<path d="M158.716 257.532L162.964 277.966L144.965 279.477L143.699 271.732L143.118 279.838L125.21 279.98L126.695 264.322C127.146 259.495 128.799 254.796 131.524 250.51L156.482 250.859L157.463 252.795L158.729 257.558L158.716 257.532Z" fill="#6537D3"/>
<path d="M132.066 251.091C130.917 250.058 130.349 248.535 130.542 247.012L131.575 238.686L134.971 214.238L140.846 213.127L149.794 213.734L156.198 213.915C156.198 213.915 161.13 213.644 163.519 219.53C166.282 226.346 167.225 230.36 167.225 230.36L159.465 231.29L158.845 245.928L158.677 248.355C158.6 249.594 157.993 250.743 157.012 251.504L132.053 251.091H132.066Z" fill="#FF5B00"/>
<path d="M156.017 244.043C156.534 246.47 155.126 249.168 152.828 250.136" stroke="#00113E" stroke-width="0.44" stroke-linecap="square" stroke-linejoin="round"/>
<path d="M151.382 244.831C151.498 246.973 150.917 248.006 149.729 249.787" stroke="#00113E" stroke-width="0.44" stroke-linecap="square" stroke-linejoin="round"/>
<path d="M138.522 249.826C137.192 247.722 136.198 245.398 135.565 242.985" stroke="#00113E" stroke-width="0.44" stroke-linecap="square" stroke-linejoin="round"/>
<path d="M129.793 216.548L109.186 235.472C108.024 236.543 107.133 237.886 106.72 239.409C106.268 241.048 106.242 243.062 107.985 244.56C111.472 247.554 128.515 255.248 128.515 255.248L129.987 248.6L117.166 240.571L134.248 226.255L135.152 215.193C135.152 215.193 132.221 214.315 129.793 216.535V216.548Z" fill="#FFA81F"/>
<path d="M142.073 248.303C142.047 248.058 141.504 247.761 141.207 247.671C139.335 247.09 135.139 246.057 134.261 246.238C133.215 246.457 130 248.6 130 248.6L125.571 252.756C125.571 252.756 129.161 256.009 129.69 255.945C130.22 255.88 133.305 253.492 133.305 253.492C133.305 253.492 137.553 253.518 138.005 253.402C138.483 253.286 138.638 252.756 138.586 252.666L134.532 251.427C134.532 251.427 138.561 252.15 139.387 252.189C139.826 252.201 140.045 252.034 140.213 251.763C140.355 251.543 140.239 251.246 139.981 251.182L135.475 250.084L135.436 249.865C135.436 249.865 139.658 251.156 140.407 250.678C141.259 250.562 141.182 249.516 140.446 249.336L136.727 248.445C136.727 248.445 139.645 248.936 141.078 249.103C141.53 249.155 142.137 248.794 142.073 248.329V248.303Z" fill="#FFA81F"/>
<path d="M130.026 248.51C129.69 249.942 129.354 251.388 129.032 252.821" stroke="#000E39" stroke-width="0.44" stroke-linecap="square" stroke-linejoin="round"/>
<path d="M140.846 213.127C140.846 213.127 133.241 213.024 128.786 217.116C124.332 221.208 122.098 223.609 122.098 223.609L130.026 233.523L140.704 226.384L140.846 213.127Z" fill="#FF5B00"/>
</g>
</g>
<defs>
<clipPath id="clip0_1023_4400">
<rect width="87" height="160" fill="white" transform="matrix(-1 0 0 1 188 185)"/>
</clipPath>
</defs>
</svg>
