<svg width="24" height="24" viewBox="0 0 24 24" fill="none" xmlns="http://www.w3.org/2000/svg">
<path d="M9.83585 2.03422C9.94837 2.0725 10.0583 2.11803 10.1649 2.17053L11.4477 2.80207C11.7958 2.97348 12.2038 2.97348 12.5519 2.80207L13.8347 2.17053C15.1972 1.49966 16.8457 2.06042 17.5165 3.42301L17.59 3.58533L17.6528 3.75207L18.1133 5.10567C18.2383 5.47304 18.5268 5.76154 18.8941 5.88651L20.2477 6.34697C21.6856 6.8361 22.4547 8.39823 21.9656 9.8361C21.9273 9.94862 21.8818 10.0585 21.8293 10.1652L21.1977 11.4479C21.0263 11.796 21.0263 12.204 21.1977 12.5522L21.8293 13.8349C22.5002 15.1975 21.9394 16.8459 20.5768 17.5168C20.4702 17.5693 20.3603 17.6148 20.2477 17.6531L18.8941 18.1136C18.5268 18.2385 18.2383 18.527 18.1133 18.8944L17.6528 20.248C17.1637 21.6859 15.6016 22.455 14.1637 21.9658C14.0512 21.9276 13.9413 21.882 13.8347 21.8295L12.5519 21.198C12.2038 21.0266 11.7958 21.0266 11.4477 21.198L10.1649 21.8295C8.80233 22.5004 7.15389 21.9396 6.48303 20.5771C6.43053 20.4704 6.385 20.3605 6.34673 20.248L5.88627 18.8944C5.7613 18.527 5.4728 18.2385 5.10543 18.1136L3.75183 17.6531C2.31396 17.164 1.54486 15.6018 2.03398 14.164C2.07226 14.0514 2.11779 13.9415 2.17028 13.8349L2.80183 12.5522C2.97323 12.204 2.97323 11.796 2.80183 11.4479L2.17028 10.1652C1.49942 8.80257 2.06018 7.15414 3.42276 6.48327C3.52939 6.43078 3.63931 6.38525 3.75183 6.34697L5.10543 5.88651C5.4728 5.76154 5.7613 5.47304 5.88627 5.10567L6.34673 3.75207C6.83585 2.31421 8.39799 1.5451 9.83585 2.03422ZM15.4695 8.9697L10.0502 14.389L8.07595 12.0199C7.81078 11.7017 7.33786 11.6587 7.01965 11.9239C6.70144 12.189 6.65845 12.662 6.92362 12.9802L9.42362 15.9802C9.70596 16.319 10.2183 16.3422 10.5301 16.0304L16.5301 10.0304C16.823 9.73747 16.823 9.2626 16.5301 8.9697C16.2372 8.67681 15.7624 8.67681 15.4695 8.9697Z" fill="white"/>
</svg>
