<?xml version="1.0" encoding="UTF-8" standalone="no"?>
<!-- Created with Inkscape (http://www.inkscape.org/) -->

<svg
   version="1.1"
   id="svg2"
   width="1122.52"
   height="264"
   viewBox="0 0 1122.52 264"
   sodipodi:docname="MIQ_Logo_quer_RGB.eps"
   xmlns:inkscape="http://www.inkscape.org/namespaces/inkscape"
   xmlns:sodipodi="http://sodipodi.sourceforge.net/DTD/sodipodi-0.dtd"
   xmlns="http://www.w3.org/2000/svg"
   xmlns:svg="http://www.w3.org/2000/svg">
  <defs
     id="defs6">
    <clipPath
       clipPathUnits="userSpaceOnUse"
       id="clipPath20">
      <path
         d="m 2669.38,1587.54 c -82.65,-36.66 -147.23,-90.51 -193.76,-161.47 -46.56,-70.99 -72.17,-158.28 -76.8,-261.84 -1.17,-51.22 -1.75,-102.72 -1.75,-154.48 0,-51.801 0.58,-102.121 1.75,-151 4.63,-104.73 30.24,-192.309 76.8,-262.711 46.53,-70.418 111.11,-123.051 193.76,-157.961 82.61,-34.918 179.19,-52.379 289.77,-52.379 46.53,0 89.02,4.672 127.43,13.973 l 54.11,-69.832 c 5.81,-6.969 13.96,-15.41 24.43,-25.309 10.48,-9.871 25.59,-14.84 45.39,-14.84 h 286.28 c 9.3,0 17.72,3.797 25.31,11.348 7.55,7.59 10.74,16.59 9.6,27.063 0,2.339 -0.6,5.226 -1.75,8.718 -1.18,3.5 -2.35,5.852 -3.49,6.989 l -134.41,190.273 c 77.95,79.117 120.44,187.348 127.43,324.668 2.32,48.879 3.49,99.199 3.49,151 0,51.76 -1.17,103.26 -3.49,154.48 -3.49,103.56 -29.11,190.85 -76.81,261.84 -47.73,70.96 -112.89,124.81 -195.51,161.47 -82.63,36.65 -178.65,54.98 -288.01,54.98 -110.58,0 -207.16,-18.33 -289.77,-54.98"
         id="path18" />
    </clipPath>
  </defs>
  <sodipodi:namedview
     id="namedview4"
     pagecolor="#ffffff"
     bordercolor="#000000"
     borderopacity="0.25"
     inkscape:showpageshadow="2"
     inkscape:pageopacity="0.0"
     inkscape:pagecheckerboard="0"
     inkscape:deskcolor="#d1d1d1" />
  <g
     id="g8"
     inkscape:groupmode="layer"
     inkscape:label="ink_ext_XXXXXX"
     transform="matrix(1.3333333,0,0,-1.3333333,0,264)">
    <g
       id="g10"
       transform="scale(0.1)">
      <path
         d="m 668.969,403.16 c 12.789,0 23.57,4.36 32.289,13.09 8.73,8.73 13.101,19.48 13.101,32.301 V 1014.11 L 871.457,738.309 c 5.813,-9.329 13.359,-18.629 22.691,-27.93 9.301,-9.328 22.09,-13.957 38.399,-13.957 h 106.483 c 17.46,0 30.82,4.629 40.15,13.957 9.3,9.301 16.86,18.601 22.69,27.93 l 157.11,275.801 V 448.551 c 0,-12.821 4.36,-23.571 13.09,-32.301 8.73,-8.73 19.47,-13.09 32.29,-13.09 h 261.84 c 12.79,0 23.56,4.36 32.29,13.09 8.73,8.73 13.09,19.48 13.09,32.301 V 1579.68 c 0,12.79 -4.36,23.57 -13.09,32.29 -8.73,8.73 -19.5,13.1 -32.29,13.1 h -232.16 c -20.95,0 -36.66,-5.84 -47.14,-17.46 -10.47,-11.65 -17.45,-19.8 -20.94,-24.44 L 986.668,1097.9 707.367,1583.17 c -3.488,4.64 -10.469,12.79 -20.937,24.44 -10.481,11.62 -26.192,17.46 -47.133,17.46 H 407.129 c -12.82,0 -23.859,-4.37 -33.16,-13.1 -9.332,-8.72 -13.973,-19.5 -13.973,-32.29 V 448.551 c 0,-12.821 4.641,-23.571 13.973,-32.301 9.301,-8.73 20.34,-13.09 33.16,-13.09 z m 1502.941,0 c 12.79,0 23.56,4.36 32.29,13.09 8.73,8.73 13.09,19.48 13.09,32.301 V 1579.68 c 0,12.79 -4.36,23.57 -13.09,32.29 -8.73,8.73 -19.5,13.1 -32.29,13.1 h -296.75 c -11.65,0 -22.12,-4.37 -31.42,-13.1 -9.33,-8.72 -13.97,-19.5 -13.97,-32.29 V 448.551 c 0,-12.821 4.64,-23.571 13.97,-32.301 9.3,-8.73 19.77,-13.09 31.42,-13.09 h 296.75"
         style="fill:#09090a;fill-opacity:1;fill-rule:nonzero;stroke:none"
         id="path12" />
      <g
         id="g14">
        <g
           id="g16"
           clip-path="url(#clipPath20)">
          <path
             d="m 2112.91,1529.65 h 2346.43 v 112.87 H 2112.91 v -112.87"
             style="fill:#ed2123;fill-opacity:1;fill-rule:nonzero;stroke:none"
             id="path22" />
          <path
             d="m 2112.9,1418.38 h 2346.44 v 112.87 H 2112.9 v -112.87"
             style="fill:#f57c14;fill-opacity:1;fill-rule:nonzero;stroke:none"
             id="path24" />
          <path
             d="m 2112.9,1305.51 h 2346.44 v 112.87 H 2112.9 v -112.87"
             style="fill:#f7f11c;fill-opacity:1;fill-rule:nonzero;stroke:none"
             id="path26" />
          <path
             d="m 2112.9,1192.64 h 2346.44 v 112.87 H 2112.9 v -112.87"
             style="fill:#27842f;fill-opacity:1;fill-rule:nonzero;stroke:none"
             id="path28" />
          <path
             d="m 2112.9,1079.77 h 2346.44 v 112.87 H 2112.9 v -112.87"
             style="fill:#3b42a1;fill-opacity:1;fill-rule:nonzero;stroke:none"
             id="path30" />
          <path
             d="M 2112.9,966.898 H 4459.34 V 1079.77 H 2112.9 V 966.898"
             style="fill:#6c2190;fill-opacity:1;fill-rule:nonzero;stroke:none"
             id="path32" />
          <path
             d="M 4459.34,854.031 H 2112.9 V 741.16 h 2346.44 v 112.871"
             style="fill:#e9e5f5;fill-opacity:1;fill-rule:nonzero;stroke:none"
             id="path34" />
          <path
             d="M 4459.34,741.16 H 2112.9 V 628.289 H 4459.34 V 741.16"
             style="fill:#f794bd;fill-opacity:1;fill-rule:nonzero;stroke:none"
             id="path36" />
          <path
             d="M 4459.34,628.289 H 2112.9 V 515.422 h 2346.44 v 112.867"
             style="fill:#7cd4df;fill-opacity:1;fill-rule:nonzero;stroke:none"
             id="path38" />
          <path
             d="M 4459.34,515.43 H 2112.9 V 402.559 H 4459.34 V 515.43"
             style="fill:#522c16;fill-opacity:1;fill-rule:nonzero;stroke:none"
             id="path40" />
          <path
             d="M 4459.34,402.559 H 2112.9 V 289.691 h 2346.44 v 112.868"
             style="fill:#09090a;fill-opacity:1;fill-rule:nonzero;stroke:none"
             id="path42" />
          <path
             d="M 2112.9,854.031 H 4459.34 V 966.898 H 2112.9 V 854.031"
             style="fill:#f7f11c;fill-opacity:1;fill-rule:nonzero;stroke:none"
             id="path44" />
        </g>
      </g>
      <path
         d="m 4039.13,401.141 -25.8,30.168 c 14.29,16.671 21.83,39.703 21.83,66.691 v 90.512 c 0,62.718 -39.3,101.629 -111.15,101.629 -71.85,0 -111.15,-38.911 -111.15,-101.629 V 498 c 0,-62.719 39.3,-101.621 111.15,-101.621 24.21,0 44.86,4.762 60.34,13.492 l 27.39,-32.152 c 4.76,-5.957 8.73,-5.957 14.69,-1.188 l 11.51,9.528 c 5.95,5.16 5.95,9.132 1.19,15.082 M 3851.36,498 v 90.512 c 0,42.078 25.81,65.898 72.65,65.898 46.84,0 72.64,-23.82 72.64,-65.898 V 498 c 0,-42.078 -25.8,-65.898 -72.64,-65.898 -46.84,0 -72.65,23.82 -72.65,65.898 m 398.56,109.172 h -16.28 c -7.15,0 -9.53,-2.383 -9.53,-9.531 V 444.809 c 0,-3.969 -0.79,-6.75 -5.95,-9.129 -11.51,-3.578 -25.41,-6.75 -44.86,-6.75 -34.14,0 -50.02,15.879 -50.02,47.242 v 121.469 c 0,7.148 -2.38,9.531 -9.13,9.531 h -16.67 c -7.15,0 -9.53,-2.383 -9.53,-9.531 V 474.98 c 0,-49.23 25.01,-78.601 80.59,-78.601 36.92,0 59.94,7.543 75.82,13.492 12.3,5.16 15.08,9.93 15.08,22.231 v 165.539 c 0,7.148 -2.38,9.531 -9.52,9.531 m 56.64,-79 v -49.223 c 0,-48.429 26.2,-82.57 88.13,-82.57 45.65,0 71.45,16.672 85.35,40.883 4.36,6.75 3.57,11.91 -3.57,15.488 l -10.72,5.551 c -7.15,3.969 -10.72,3.179 -15.48,-3.571 -9.93,-16.671 -27,-27.39 -55.18,-27.39 -34.94,0 -53.2,17.469 -53.2,47.64 v 19.051 h 129.41 c 11.12,0 14.69,5.559 14.69,13.899 v 23.019 c 0,46.84 -28.58,82.172 -89.71,82.172 -58.75,0 -89.72,-31.359 -89.72,-84.949 m 144.1,4.758 v -11.508 h -108.77 v 11.508 c 0,30.968 18.66,50.019 54.39,50.019 36.12,0 54.38,-19.051 54.38,-50.019 m 76.58,-4.758 v -49.223 c 0,-48.429 26.2,-82.57 88.12,-82.57 45.66,0 71.46,16.672 85.35,40.883 4.37,6.75 3.58,11.91 -3.57,15.488 l -10.72,5.551 c -7.14,3.969 -10.72,3.179 -15.48,-3.571 -9.92,-16.671 -26.99,-27.39 -55.18,-27.39 -34.93,0 -53.19,17.469 -53.19,47.64 v 19.051 h 129.41 c 11.11,0 14.69,5.559 14.69,13.899 v 23.019 c 0,46.84 -28.58,82.172 -89.72,82.172 -58.75,0 -89.71,-31.359 -89.71,-84.949 m 144.1,4.758 v -11.508 h -108.77 v 11.508 c 0,30.968 18.65,50.019 54.38,50.019 36.13,0 54.39,-19.051 54.39,-50.019 m 167.64,80.191 c -34.94,-0.789 -57.96,-6.75 -72.65,-12.301 -12.31,-5.16 -15.08,-9.929 -15.08,-22.23 V 411.859 c 0,-7.148 2.38,-9.527 9.13,-9.527 h 16.67 c 7.14,0 9.53,2.379 9.53,9.527 v 154.02 c 0,3.582 0.39,5.961 5.55,7.941 11.52,3.578 26.2,6.75 45.66,6.75 h 13.89 c 7.15,0 9.53,2.379 9.53,9.532 v 13.5 c 0,7.136 -2.38,9.519 -9.53,9.519 z m 177,82.969 h -3.57 c -58.35,-0.789 -83.36,-25.801 -83.36,-81.781 v -7.137 h -30.17 c -6.75,0 -9.13,-2.383 -9.13,-9.531 V 583.75 c 0,-7.148 2.38,-9.531 9.13,-9.531 h 30.17 v -162.36 c 0,-7.148 2.38,-9.527 9.92,-9.527 h 15.88 c 7.54,0 9.92,2.379 9.92,9.527 v 162.36 h 52.01 c 6.75,0 9.13,2.383 9.13,9.531 v 13.891 c 0,7.148 -2.38,9.531 -9.13,9.531 h -52.01 v 7.137 c 0,36.921 12.71,48.832 51.21,48.832 7.15,0 9.53,2.379 9.53,9.531 v 13.887 c 0,7.152 -2.38,9.531 -9.53,9.531 m 40.29,-167.918 v -49.223 c 0,-48.429 26.2,-82.57 88.13,-82.57 45.65,0 71.46,16.672 85.35,40.883 4.37,6.75 3.57,11.91 -3.57,15.488 l -10.72,5.551 c -7.15,3.969 -10.72,3.179 -15.48,-3.571 -9.93,-16.671 -27,-27.39 -55.18,-27.39 -34.94,0 -53.2,17.469 -53.2,47.64 v 19.051 h 129.42 c 11.11,0 14.68,5.559 14.68,13.899 v 23.019 c 0,46.84 -28.58,82.172 -89.71,82.172 -58.75,0 -89.72,-31.359 -89.72,-84.949 m 144.1,4.758 V 521.422 H 5091.6 v 11.508 c 0,30.968 18.66,50.019 54.39,50.019 36.12,0 54.38,-19.051 54.38,-50.019 m 99.17,149.269 h -2.39 c -14.29,0 -19.05,-4.769 -19.05,-19.058 v -3.172 c 0,-14.688 4.76,-19.059 19.05,-19.059 h 2.39 c 14.68,0 19.05,4.762 19.05,19.059 v 3.172 c 0,14.289 -4.37,19.058 -19.05,19.058 m 7.14,-75.027 h -16.67 c -7.15,0 -9.53,-2.383 -9.53,-9.531 V 411.859 c 0,-7.148 2.38,-9.527 9.53,-9.527 h 16.67 c 7.15,0 9.53,2.379 9.53,9.527 v 185.782 c 0,7.148 -2.38,9.531 -9.53,9.531 m 76.77,-7.543 c -12.31,-5.168 -15.08,-9.93 -15.08,-22.231 V 411.859 c 0,-7.148 2.38,-9.527 9.13,-9.527 h 16.67 c 7.14,0 9.53,2.379 9.53,9.527 v 154.422 c 0,3.18 0.79,5.559 4.76,7.149 11.11,3.57 26.6,7.14 46.05,7.14 34.14,0 49.62,-15.879 49.62,-47.242 V 411.859 c 0,-7.148 2.38,-9.527 9.53,-9.527 h 16.67 c 7.15,0 9.53,2.379 9.53,9.527 V 534.52 c 0,49.23 -25.01,78.601 -80.59,78.601 -36.92,0 -60.34,-7.141 -75.82,-13.492 m 202.89,-67.488 v -55.969 c 0,-50.813 26.6,-79.793 84.95,-79.793 33.74,0 55.58,6.351 71.06,12.301 12.7,5.16 15.48,8.742 15.48,21.84 v 256.039 c 0,7.152 -2.38,9.531 -9.13,9.531 h -16.67 c -7.15,0 -9.53,-2.379 -9.53,-9.531 v -82.168 c -10.32,2.781 -30.96,8.73 -55.57,8.73 -53.99,0 -80.59,-29.371 -80.59,-80.98 M 5722.5,571.84 V 442.82 c 0,-4.359 -0.4,-5.558 -5.56,-7.539 -10.32,-3.57 -25.01,-6.351 -42.47,-6.351 -34.94,0 -52.4,16.672 -52.4,48.429 v 53.59 c 0,32.551 15.88,49.621 51.6,49.621 22.23,0 39.7,-5.949 48.83,-8.73 m 124.09,-159.981 v 274.7 c 0,7.152 -2.38,9.531 -9.53,9.531 h -16.27 c -7.15,0 -9.53,-2.379 -9.53,-9.531 v -274.7 c 0,-7.148 2.38,-9.527 9.53,-9.527 h 16.27 c 7.15,0 9.53,2.379 9.53,9.527 m 72.21,270.34 h -2.39 c -14.29,0 -19.05,-4.769 -19.05,-19.058 v -3.172 c 0,-14.688 4.76,-19.059 19.05,-19.059 h 2.39 c 14.68,0 19.05,4.762 19.05,19.059 v 3.172 c 0,14.289 -4.37,19.058 -19.05,19.058 m 7.14,-75.027 h -16.67 c -7.15,0 -9.53,-2.383 -9.53,-9.531 V 411.859 c 0,-7.148 2.38,-9.527 9.53,-9.527 h 16.67 c 7.15,0 9.53,2.379 9.53,9.527 v 185.782 c 0,7.148 -2.38,9.531 -9.53,9.531 m 55.93,-73.844 v -56.769 c 0,-49.618 27.79,-80.18 86.54,-80.18 47.24,0 74.23,19.449 86.94,54.781 2.77,7.539 0.39,10.719 -6.75,13.5 l -13.9,3.969 c -7.54,2.383 -10.32,1.191 -13.49,-6.359 -7.15,-22.231 -23.42,-34.532 -52.01,-34.532 -34.14,0 -51.6,17.864 -51.6,47.242 v 59.942 c 0,29.379 17.07,46.84 51.6,46.84 29.38,0 44.46,-11.512 51.61,-33.34 2.78,-7.152 6.35,-9.531 13.5,-6.363 l 13.89,4.371 c 6.75,2.379 9.13,5.961 6.35,13.5 -9.92,31.359 -35.73,53.191 -83.76,53.191 -60.34,0 -88.92,-30.562 -88.92,-79.793 m 244.49,162.762 h -16.67 c -7.15,0 -9.53,-2.379 -9.53,-9.531 v -274.7 c 0,-7.148 2.38,-9.527 9.53,-9.527 h 16.67 c 6.75,0 9.13,2.379 9.13,9.527 v 159.582 c 8.73,4.368 28.58,9.129 50.81,9.129 33.35,0 50.02,-16.672 50.02,-47.242 V 411.859 c 0,-7.148 2.38,-9.527 9.53,-9.527 h 16.27 c 7.15,0 9.53,2.379 9.53,9.527 V 534.52 c 0,49.621 -25.01,78.601 -80.58,78.601 -25.81,0 -47.24,-4.762 -55.58,-8.73 v 82.168 c 0,7.152 -2.38,9.531 -9.13,9.531 m 366.76,-282.641 -34.93,70.66 c -8.34,16.672 -17.87,27.391 -31.76,32.551 l 63.51,79.391 c 5.56,7.148 3.58,11.121 -5.95,11.121 h -15.09 c -10.71,0 -13.49,0 -18.65,-7.152 l -59.15,-76.61 h -3.18 -28.98 v 163.149 c 0,7.152 -2.38,9.531 -9.92,9.531 h -15.48 c -7.55,0 -9.93,-2.379 -9.93,-9.531 V 412.262 c 0,-7.551 2.38,-9.93 9.93,-9.93 h 15.48 c 7.54,0 9.92,2.379 9.92,9.93 v 78.199 h 33.35 c 18.66,0 28.18,-6.352 35.73,-21.832 l 27.39,-57.57 c 3.57,-7.539 5.56,-8.727 16.27,-8.727 h 15.48 c 9.14,0 10.33,3.18 5.96,11.117 m 30.05,114.723 v -49.223 c 0,-48.429 26.2,-82.57 88.12,-82.57 45.66,0 71.46,16.672 85.35,40.883 4.37,6.75 3.58,11.91 -3.57,15.488 l -10.72,5.551 c -7.14,3.969 -10.72,3.179 -15.48,-3.571 -9.92,-16.671 -26.99,-27.39 -55.18,-27.39 -34.93,0 -53.19,17.469 -53.19,47.64 v 19.051 h 129.41 c 11.12,0 14.69,5.559 14.69,13.899 v 23.019 c 0,46.84 -28.58,82.172 -89.72,82.172 -58.75,0 -89.71,-31.359 -89.71,-84.949 m 144.1,4.758 V 521.422 H 6658.5 v 11.508 c 0,30.968 18.66,50.019 54.38,50.019 36.13,0 54.39,-19.051 54.39,-50.019 m 99.16,149.269 h -2.38 c -14.29,0 -19.06,-4.769 -19.06,-19.058 v -3.172 c 0,-14.688 4.77,-19.059 19.06,-19.059 h 2.38 c 14.69,0 19.05,4.762 19.05,19.059 v 3.172 c 0,14.289 -4.36,19.058 -19.05,19.058 m 7.14,-75.027 h -16.67 c -7.14,0 -9.53,-2.383 -9.53,-9.531 V 411.859 c 0,-7.148 2.39,-9.527 9.53,-9.527 h 16.67 c 7.15,0 9.53,2.379 9.53,9.527 v 185.782 c 0,7.148 -2.38,9.531 -9.53,9.531 m 116.15,47.629 h -16.67 c -7.14,0 -9.13,-2.379 -9.13,-9.52 v -38.109 h -32.95 c -7.14,0 -9.53,-2.383 -9.53,-9.531 V 583.75 c 0,-7.148 2.39,-9.531 9.53,-9.531 h 32.95 V 480.93 c 0,-66.289 23.42,-85.739 86.54,-84.16 7.54,0.402 9.93,2.39 9.93,9.531 v 14.289 c 0,7.539 -2.39,9.531 -9.93,9.531 -38.5,0 -51.21,8.34 -51.21,51.609 v 92.489 h 52 c 6.75,0 9.14,2.383 9.14,9.531 v 13.891 c 0,7.148 -2.39,9.531 -9.14,9.531 h -52 v 38.109 c 0,7.141 -2.38,9.52 -9.53,9.52 m 418.41,29.379 h -16.28 c -7.94,0 -10.32,-2.782 -10.32,-10.321 V 530.16 c 0,-35.328 6.35,-67.89 6.35,-76.621 h -1.98 c -4.77,6.75 -15.88,36.52 -34.14,63.52 L 7240.21,679.02 c -1.99,3.179 -4.76,5.16 -10.32,5.16 h -17.47 c -7.54,0 -10.32,-2.782 -10.32,-10.321 V 412.648 c 0,-7.539 2.78,-10.316 10.32,-10.316 h 16.28 c 7.94,0 10.71,2.777 10.71,10.316 v 146.883 c 0,32.949 -6.74,66.297 -6.74,73.84 h 1.98 c 3.97,-5.562 15.88,-36.519 32.16,-61.141 l 113.13,-164.742 c 2.78,-3.968 5.56,-5.156 10.72,-5.156 h 17.47 c 7.54,0 10.32,2.777 10.32,10.316 v 261.211 c 0,7.539 -2.78,10.321 -10.32,10.321 m 193.6,0 h -111.55 c -7.54,0 -10.32,-2.782 -10.32,-10.321 V 412.648 c 0,-7.539 2.78,-10.316 10.32,-10.316 h 17.47 c 7.94,0 10.71,2.777 10.71,10.316 v 102.821 h 42.48 c 29.38,0 40.89,-7.938 52.4,-31.36 l 36.12,-72.648 c 3.58,-7.539 7.55,-9.129 20.65,-9.129 h 17.46 c 7.94,0 8.74,4.758 5.56,10.719 l -44.06,85.347 c -5.56,9.922 -11.12,17.461 -19.85,22.231 36.52,8.332 58.35,36.121 58.35,79 0,53.59 -32.55,84.551 -85.74,84.551 m 45.65,-84.551 c 0,-30.969 -17.86,-48.43 -49.23,-48.43 h -79.79 v 97.25 h 79.79 c 31.37,0 49.23,-17.461 49.23,-48.82 m 403.75,84.551 h -18.26 c -8.73,0 -12.3,-1.59 -13.89,-9.129 l -40.89,-172.68 c -3.17,-13.902 -6.35,-39.699 -7.14,-46.84 h -1.99 c -0.79,8.328 -4.37,32.149 -8.34,47.231 l -46.44,169.109 c -1.99,7.551 -5.96,9.129 -13.89,9.129 h -16.68 c -7.54,0 -11.51,-1.578 -13.89,-9.129 l -46.84,-169.109 c -3.97,-13.891 -7.15,-38.5 -8.34,-47.231 h -1.99 c -0.79,7.93 -3.97,34.528 -6.74,47.629 l -41.29,171.891 c -1.59,7.539 -5.16,9.129 -13.89,9.129 h -21.04 c -7.54,0 -8.74,-3.18 -6.75,-10.321 l 68.28,-263.187 c 1.59,-7.152 5.95,-8.34 13.1,-8.34 h 16.67 c 7.15,0 11.12,1.188 13.1,8.727 l 48.03,176.261 c 3.58,12.7 6.36,27.391 7.55,41.282 h 2.38 c 1.19,-13.891 3.97,-29.372 7.14,-41.282 l 47.64,-176.648 c 1.59,-6.75 5.95,-8.34 13.1,-8.34 h 16.67 c 7.55,0 11.52,1.188 13.1,8.727 l 68.68,262.8 c 1.59,7.141 0.4,10.321 -7.15,10.321"
         style="fill:#161717;fill-opacity:1;fill-rule:nonzero;stroke:none"
         id="path46" />
      <path
         d="M 3821.2,1137.97 V 876.762 c 0,-7.543 2.78,-10.321 10.32,-10.321 h 17.47 c 7.94,0 10.72,2.778 10.72,10.321 v 261.208 c 0,7.54 -2.78,10.32 -10.72,10.32 h -17.47 c -7.54,0 -10.32,-2.78 -10.32,-10.32 m 110.04,-74.23 c -12.31,-5.16 -15.09,-9.93 -15.09,-22.23 V 875.969 c 0,-7.149 2.39,-9.528 9.13,-9.528 h 16.68 c 7.14,0 9.52,2.379 9.52,9.528 v 154.421 c 0,3.18 0.8,5.56 4.77,7.15 11.11,3.57 26.59,7.14 46.05,7.14 34.14,0 49.62,-15.88 49.62,-47.242 V 875.969 c 0,-7.149 2.38,-9.528 9.53,-9.528 h 16.67 c 7.14,0 9.53,2.379 9.53,9.528 v 122.66 c 0,49.231 -25.01,78.601 -80.59,78.601 -36.92,0 -60.34,-7.14 -75.82,-13.49 m 317.93,96.46 h -3.57 c -58.36,-0.79 -83.37,-25.8 -83.37,-81.78 v -7.14 h -30.17 c -6.74,0 -9.13,-2.38 -9.13,-9.53 v -13.89 c 0,-7.15 2.39,-9.53 9.13,-9.53 h 30.17 V 875.969 c 0,-7.149 2.39,-9.528 9.93,-9.528 h 15.88 c 7.54,0 9.92,2.379 9.92,9.528 v 162.361 h 52 c 6.75,0 9.13,2.38 9.13,9.53 v 13.89 c 0,7.15 -2.38,9.53 -9.13,9.53 h -52 v 7.14 c 0,36.92 12.7,48.83 51.21,48.83 7.15,0 9.53,2.38 9.53,9.53 v 13.89 c 0,7.15 -2.38,9.53 -9.53,9.53 m 41.44,-159.19 v -64.701 c 0,-46.84 32.95,-75.821 88.92,-75.821 57.17,0 89.32,28.981 89.32,75.821 v 64.701 c 0,47.24 -32.15,76.22 -89.32,76.22 -55.97,0 -88.92,-28.98 -88.92,-76.22 m 142.91,0.4 v -65.101 c 0,-27.387 -20.24,-43.668 -53.99,-43.668 -33.34,0 -53.59,16.281 -53.59,43.668 v 65.101 c 0,27.39 20.25,43.67 53.59,43.67 33.75,0 53.99,-16.28 53.99,-43.67 m 170.97,75.82 c -34.93,-0.79 -57.96,-6.75 -72.65,-12.3 -12.3,-5.16 -15.08,-9.93 -15.08,-22.23 V 875.969 c 0,-7.149 2.38,-9.528 9.13,-9.528 h 16.67 c 7.15,0 9.53,2.379 9.53,9.528 v 154.021 c 0,3.58 0.4,5.96 5.56,7.94 11.51,3.58 26.2,6.75 45.65,6.75 h 13.89 c 7.15,0 9.53,2.38 9.53,9.53 v 13.5 c 0,7.14 -2.38,9.52 -9.53,9.52 z m 193.72,-15.08 c -11.91,9.92 -28.58,15.08 -50.81,15.08 -31.76,0 -52.4,-6.75 -67.09,-13.1 -12.31,-5.16 -15.09,-10.32 -15.09,-22.62 V 875.969 c 0,-7.149 2.39,-9.528 9.13,-9.528 h 16.68 c 7.14,0 9.52,2.379 9.52,9.528 v 154.021 c 0,3.58 0.4,5.96 4.77,8.34 11.11,3.97 22.23,6.35 37.31,6.35 30.17,0 45.26,-15.08 45.26,-45.653 V 875.969 c 0,-7.149 2.38,-9.528 9.53,-9.528 h 16.67 c 6.75,0 9.13,2.379 9.13,9.528 v 124.251 c 0,13.1 -1.59,24.61 -5.96,33.74 8.34,3.58 25.01,10.72 46.85,10.72 30.17,0 44.46,-15.08 44.46,-45.653 V 875.969 c 0,-7.149 2.38,-9.528 9.52,-9.528 h 16.68 c 6.75,0 9.13,2.379 9.13,9.528 v 124.251 c 0,49.23 -23.03,77.01 -75.03,77.01 -36.12,0 -59.94,-10.71 -70.66,-15.08 m 196.42,-26.6 c -3.58,-7.14 -1.59,-10.72 5.16,-13.5 l 12.3,-5.55 c 7.15,-2.78 8.74,-1.59 13.1,4.76 9.53,15.88 25.41,24.22 49.23,24.22 37.31,0 47.24,-19.06 47.24,-47.242 v -15.09 c -6.75,0.801 -25.81,2.782 -45.26,2.782 -63.12,0 -88.52,-15.879 -88.52,-62.321 0,-40.5 17.07,-63.121 86.93,-63.121 30.97,0 53.6,3.973 68.28,10.321 11.12,4.761 14.29,8.73 14.29,22.632 v 103.61 c 0,44.849 -17.86,80.179 -82.17,80.179 -40.49,0 -67.09,-15.48 -80.58,-41.68 m 127.03,-81.769 v -50.019 c 0,-5.563 -1.19,-6.75 -5.96,-8.742 -9.13,-3.168 -22.62,-4.758 -44.06,-4.758 -39.7,0 -48.03,12.699 -48.03,33.347 0,22.621 11.51,33.34 48.82,33.34 19.45,0 41.29,-2.379 49.23,-3.168 m 137.94,165.139 h -16.67 c -7.15,0 -9.13,-2.39 -9.13,-9.53 v -38.11 h -32.95 c -7.15,0 -9.53,-2.38 -9.53,-9.53 v -13.89 c 0,-7.15 2.38,-9.53 9.53,-9.53 h 32.95 v -93.291 c 0,-66.289 23.42,-85.738 86.54,-84.16 7.54,0.402 9.92,2.391 9.92,9.531 v 14.289 c 0,7.539 -2.38,9.531 -9.92,9.531 -38.51,0 -51.21,8.34 -51.21,51.61 v 92.49 h 52 c 6.75,0 9.13,2.38 9.13,9.53 v 13.89 c 0,7.15 -2.38,9.53 -9.13,9.53 h -52 v 38.11 c 0,7.14 -2.38,9.53 -9.53,9.53 m 129.81,27.39 h -2.38 c -14.29,0 -19.06,-4.77 -19.06,-19.06 v -3.17 c 0,-14.69 4.77,-19.06 19.06,-19.06 h 2.38 c 14.69,0 19.05,4.77 19.05,19.06 v 3.17 c 0,14.29 -4.36,19.06 -19.05,19.06 m 7.14,-75.03 h -16.67 c -7.14,0 -9.53,-2.38 -9.53,-9.53 V 875.969 c 0,-7.149 2.39,-9.528 9.53,-9.528 h 16.67 c 7.15,0 9.53,2.379 9.53,9.528 v 185.781 c 0,7.15 -2.38,9.53 -9.53,9.53 m 56.09,-70.27 v -64.701 c 0,-46.84 32.95,-75.821 88.92,-75.821 57.17,0 89.32,28.981 89.32,75.821 v 64.701 c 0,47.24 -32.15,76.22 -89.32,76.22 -55.97,0 -88.92,-28.98 -88.92,-76.22 m 142.91,0.4 v -65.101 c 0,-27.387 -20.24,-43.668 -53.99,-43.668 -33.34,0 -53.59,16.281 -53.59,43.668 v 65.101 c 0,27.39 20.25,43.67 53.59,43.67 33.75,0 53.99,-16.28 53.99,-43.67 m 98.32,62.33 c -12.3,-5.16 -15.08,-9.93 -15.08,-22.23 V 875.969 c 0,-7.149 2.38,-9.528 9.13,-9.528 h 16.67 c 7.15,0 9.53,2.379 9.53,9.528 v 154.421 c 0,3.18 0.79,5.56 4.76,7.15 11.12,3.57 26.6,7.14 46.05,7.14 34.14,0 49.62,-15.88 49.62,-47.242 V 875.969 c 0,-7.149 2.39,-9.528 9.53,-9.528 h 16.67 c 7.15,0 9.53,2.379 9.53,9.528 v 122.66 c 0,49.231 -25.01,78.601 -80.58,78.601 -36.92,0 -60.34,-7.14 -75.83,-13.49 m 202.81,-48.04 c 0,-51.212 40.89,-57.95 80.59,-61.919 33.35,-3.179 52.8,-7.551 52.8,-31.371 0,-19.449 -15.88,-30.172 -49.62,-30.172 -27.79,0 -45.66,7.942 -53.6,28.59 -3.17,7.141 -6.35,7.942 -12.7,5.953 l -13.5,-4.761 c -7.14,-2.379 -8.73,-6.348 -5.95,-12.711 12.31,-32.547 41.68,-48.821 86.94,-48.821 55.57,0 82.96,25.801 82.96,63.512 0,46.852 -33.34,56.77 -78.6,61.141 -32.95,2.769 -53.98,5.949 -53.98,31.359 0,19.05 14.68,28.58 45.25,28.58 30.57,0 43.27,-10.32 50.81,-25.8 3.97,-6.36 5.96,-7.55 13.1,-4.37 l 13.5,5.56 c 6.35,2.78 8.34,6.74 4.76,13.89 -11.91,25.8 -36.92,42.87 -82.96,42.87 -52.8,0 -79.8,-24.61 -79.8,-61.53 m 209.8,0 c 0,-51.212 40.89,-57.95 80.59,-61.919 33.34,-3.179 52.8,-7.551 52.8,-31.371 0,-19.449 -15.88,-30.172 -49.62,-30.172 -27.79,0 -45.66,7.942 -53.6,28.59 -3.17,7.141 -6.35,7.942 -12.7,5.953 l -13.5,-4.761 c -7.14,-2.379 -8.73,-6.348 -5.95,-12.711 12.31,-32.547 41.68,-48.821 86.94,-48.821 55.57,0 82.96,25.801 82.96,63.512 0,46.852 -33.34,56.77 -78.6,61.141 -32.95,2.769 -53.99,5.949 -53.99,31.359 0,19.05 14.69,28.58 45.26,28.58 30.57,0 43.27,-10.32 50.81,-25.8 3.97,-6.36 5.96,-7.55 13.1,-4.37 l 13.5,5.56 c 6.35,2.78 8.34,6.74 4.76,13.89 -11.91,25.8 -36.92,42.87 -82.96,42.87 -52.8,0 -79.8,-24.61 -79.8,-61.53 m 266.61,103.22 h -16.67 c -7.15,0 -9.13,-2.39 -9.13,-9.53 v -38.11 h -32.95 c -7.15,0 -9.53,-2.38 -9.53,-9.53 v -13.89 c 0,-7.15 2.38,-9.53 9.53,-9.53 h 32.95 v -93.291 c 0,-66.289 23.42,-85.738 86.54,-84.16 7.54,0.402 9.92,2.391 9.92,9.531 v 14.289 c 0,7.539 -2.38,9.531 -9.92,9.531 -38.51,0 -51.21,8.34 -51.21,51.61 v 92.49 h 52 c 6.75,0 9.13,2.38 9.13,9.53 v 13.89 c 0,7.15 -2.38,9.53 -9.13,9.53 h -52 v 38.11 c 0,7.14 -2.39,9.53 -9.53,9.53 m 102.38,-126.643 v -49.218 c 0,-48.43 26.2,-82.571 88.12,-82.571 45.66,0 71.46,16.672 85.35,40.891 4.37,6.742 3.58,11.902 -3.57,15.48 l -10.72,5.551 c -7.14,3.969 -10.72,3.18 -15.48,-3.57 -9.92,-16.668 -26.99,-27.391 -55.18,-27.391 -34.93,0 -53.19,17.473 -53.19,47.641 v 19.051 h 129.41 c 11.11,0 14.69,5.558 14.69,13.898 v 23.02 c 0,46.841 -28.58,82.171 -89.72,82.171 -58.75,0 -89.71,-31.36 -89.71,-84.953 m 144.1,4.774 V 985.527 H 6510.8 v 11.524 c 0,30.959 18.65,50.009 54.38,50.009 36.13,0 54.39,-19.05 54.39,-50.009 m 116.19,-121.082 v 274.701 c 0,7.15 -2.38,9.53 -9.53,9.53 h -16.27 c -7.15,0 -9.53,-2.38 -9.53,-9.53 V 875.969 c 0,-7.149 2.38,-9.528 9.53,-9.528 h 16.27 c 7.15,0 9.53,2.379 9.53,9.528 m 89.35,0 v 274.701 c 0,7.15 -2.38,9.53 -9.52,9.53 h -16.28 c -7.14,0 -9.53,-2.38 -9.53,-9.53 V 875.969 c 0,-7.149 2.39,-9.528 9.53,-9.528 h 16.28 c 7.14,0 9.52,2.379 9.52,9.528 m 47.72,116.308 v -49.218 c 0,-48.43 26.2,-82.571 88.12,-82.571 45.66,0 71.46,16.672 85.35,40.891 4.37,6.742 3.58,11.902 -3.57,15.48 l -10.72,5.551 c -7.14,3.969 -10.72,3.18 -15.48,-3.57 -9.92,-16.668 -26.99,-27.391 -55.18,-27.391 -34.93,0 -53.19,17.473 -53.19,47.641 v 19.051 h 129.41 c 11.12,0 14.69,5.558 14.69,13.898 v 23.02 c 0,46.841 -28.58,82.171 -89.72,82.171 -58.75,0 -89.71,-31.36 -89.71,-84.953 m 144.1,4.774 v -11.524 h -108.77 v 11.524 c 0,30.959 18.66,50.009 54.38,50.009 36.13,0 54.39,-19.05 54.39,-50.009"
         style="fill:#161717;fill-opacity:1;fill-rule:nonzero;stroke:none"
         id="path48" />
      <path
         d="m 4071.69,1612.4 h -15.09 c -8.33,0 -10.71,-1.59 -14.29,-8.34 l -90.9,-161.96 -91.31,162.36 c -3.57,6.35 -5.95,7.94 -14.68,7.94 h -13.9 c -7.54,0 -10.32,-2.78 -10.32,-10.32 v -261.21 c 0,-7.54 2.78,-10.32 10.32,-10.32 h 15.09 c 7.94,0 10.32,2.78 10.32,10.32 v 143.31 c 0,23.42 -1.59,46.44 -6.35,74.63 h 2.38 c 9.53,-27.79 17.47,-44.86 29.77,-65.9 l 51.21,-90.51 c 3.57,-5.95 5.96,-7.54 12.31,-7.54 h 9.92 c 6.35,0 9.13,1.98 12.31,7.54 l 50.41,89.72 c 11.91,21.04 21.84,40.09 31.76,66.69 h 1.99 c -4.77,-27.79 -7.15,-52.4 -7.15,-74.63 v -143.31 c 0,-7.54 2.38,-10.32 10.32,-10.32 h 15.88 c 7.54,0 10.32,2.78 10.32,10.32 v 261.21 c 0,7.54 -2.78,10.32 -10.32,10.32 m 62.2,-156.01 v -49.22 c 0,-48.43 26.2,-82.57 88.13,-82.57 45.65,0 71.45,16.67 85.35,40.88 4.37,6.75 3.57,11.91 -3.57,15.49 l -10.72,5.55 c -7.15,3.97 -10.72,3.18 -15.48,-3.57 -9.93,-16.67 -27,-27.39 -55.18,-27.39 -34.94,0 -53.2,17.47 -53.2,47.64 v 19.05 h 129.42 c 11.11,0 14.68,5.56 14.68,13.89 v 23.03 c 0,46.84 -28.58,82.17 -89.71,82.17 -58.75,0 -89.72,-31.36 -89.72,-84.95 m 144.1,4.76 v -11.51 h -108.77 v 11.51 c 0,30.97 18.66,50.02 54.39,50.02 36.12,0 54.38,-19.05 54.38,-50.02 m 116.19,-121.07 v 274.7 c 0,7.15 -2.38,9.53 -9.52,9.53 h -16.28 c -7.14,0 -9.53,-2.38 -9.53,-9.53 v -274.7 c 0,-7.15 2.39,-9.53 9.53,-9.53 h 16.28 c 7.14,0 9.52,2.38 9.52,9.53 m 48.51,120.28 v -55.97 c 0,-50.82 26.6,-79.79 84.95,-79.79 33.75,0 55.58,6.35 71.06,12.3 12.7,5.16 15.48,8.74 15.48,21.84 v 256.04 c 0,7.15 -2.38,9.53 -9.13,9.53 h -16.67 c -7.15,0 -9.53,-2.38 -9.53,-9.53 v -82.17 c -10.32,2.78 -30.96,8.73 -55.57,8.73 -53.99,0 -80.59,-29.37 -80.59,-80.98 m 136.16,39.7 v -129.02 c 0,-4.37 -0.39,-5.56 -5.55,-7.54 -10.33,-3.57 -25.01,-6.35 -42.48,-6.35 -34.93,0 -52.4,16.67 -52.4,48.43 v 53.59 c 0,32.55 15.88,49.62 51.61,49.62 22.23,0 39.69,-5.95 48.82,-8.73 m 82.45,-43.67 v -49.22 c 0,-48.43 26.2,-82.57 88.13,-82.57 45.65,0 71.45,16.67 85.34,40.88 4.37,6.75 3.58,11.91 -3.57,15.49 l -10.72,5.55 c -7.14,3.97 -10.71,3.18 -15.48,-3.57 -9.92,-16.67 -26.99,-27.39 -55.18,-27.39 -34.93,0 -53.19,17.47 -53.19,47.64 v 19.05 h 129.41 c 11.12,0 14.69,5.56 14.69,13.89 v 23.03 c 0,46.84 -28.58,82.17 -89.72,82.17 -58.75,0 -89.71,-31.36 -89.71,-84.95 m 144.1,4.76 v -11.51 h -108.77 v 11.51 c 0,30.97 18.66,50.02 54.38,50.02 36.13,0 54.39,-19.05 54.39,-50.02 m 188.56,-8.33 h -97.26 c -7.94,0 -10.32,-2.38 -10.32,-10.32 V 1429 c 0,-7.94 2.38,-10.32 10.32,-10.32 h 97.26 c 7.94,0 10.72,2.38 10.72,10.32 v 13.5 c 0,7.94 -2.78,10.32 -10.72,10.32 m 325.51,82.57 h -16.28 c -7.14,0 -9.52,-2.38 -9.52,-9.53 v -152.83 c 0,-3.97 -0.8,-6.75 -5.96,-9.13 -11.51,-3.58 -25.4,-6.75 -44.85,-6.75 -34.14,0 -50.02,15.88 -50.02,47.24 v 121.47 c 0,7.15 -2.39,9.53 -9.13,9.53 h -16.68 c -7.14,0 -9.52,-2.38 -9.52,-9.53 V 1403.2 c 0,-49.23 25.01,-78.6 80.58,-78.6 36.92,0 59.94,7.54 75.82,13.49 12.31,5.16 15.09,9.93 15.09,22.23 v 165.54 c 0,7.15 -2.38,9.53 -9.53,9.53 m 77.01,-7.54 c -12.3,-5.17 -15.08,-9.93 -15.08,-22.24 v -165.53 c 0,-7.15 2.38,-9.53 9.13,-9.53 h 16.67 c 7.14,0 9.53,2.38 9.53,9.53 v 154.42 c 0,3.18 0.79,5.56 4.76,7.14 11.12,3.58 26.6,7.15 46.05,7.15 34.14,0 49.62,-15.88 49.62,-47.24 v -121.47 c 0,-7.15 2.38,-9.53 9.53,-9.53 h 16.67 c 7.15,0 9.53,2.38 9.53,9.53 v 122.66 c 0,49.23 -25.01,78.6 -80.59,78.6 -36.92,0 -60.34,-7.14 -75.82,-13.49 m 202.89,-67.49 v -55.97 c 0,-50.82 26.6,-79.79 84.95,-79.79 33.74,0 55.58,6.35 71.06,12.3 12.7,5.16 15.48,8.74 15.48,21.84 v 256.04 c 0,7.15 -2.38,9.53 -9.13,9.53 h -16.67 c -7.15,0 -9.53,-2.38 -9.53,-9.53 v -82.17 c -10.32,2.78 -30.96,8.73 -55.57,8.73 -53.99,0 -80.59,-29.37 -80.59,-80.98 m 136.16,39.7 v -129.02 c 0,-4.37 -0.4,-5.56 -5.56,-7.54 -10.32,-3.57 -25.01,-6.35 -42.47,-6.35 -34.94,0 -52.4,16.67 -52.4,48.43 v 53.59 c 0,32.55 15.88,49.62 51.6,49.62 22.23,0 39.7,-5.95 48.83,-8.73"
         style="fill:#161717;fill-opacity:1;fill-rule:nonzero;stroke:none"
         id="path50" />
    </g>
  </g>
</svg>
