<svg width="157" height="68" viewBox="0 0 157 68" fill="none" xmlns="http://www.w3.org/2000/svg">
<path d="M1 37.2241C1 27.283 9.05888 19.2241 19 19.2241H57.5385C67.4796 19.2241 75.5385 27.283 75.5385 37.2241V49.0002C75.5385 58.9414 67.4796 67.0002 57.5385 67.0002H19C9.05886 67.0002 1 58.9414 1 49.0002V37.2241Z" fill="#587D71"/>
<path d="M19 19.7241H57.5385V18.7241H19V19.7241ZM75.0385 37.2241V49.0002H76.0385V37.2241H75.0385ZM57.5385 66.5002H19V67.5002H57.5385V66.5002ZM1.5 49.0002V37.2241H0.5V49.0002H1.5ZM19 66.5002C9.335 66.5002 1.5 58.6652 1.5 49.0002H0.5C0.5 59.2175 8.78271 67.5002 19 67.5002V66.5002ZM75.0385 49.0002C75.0385 58.6652 67.2034 66.5002 57.5385 66.5002V67.5002C67.7557 67.5002 76.0385 59.2175 76.0385 49.0002H75.0385ZM57.5385 19.7241C67.2035 19.7241 75.0385 27.5591 75.0385 37.2241H76.0385C76.0385 27.0069 67.7557 18.7241 57.5385 18.7241V19.7241ZM19 18.7241C8.78273 18.7241 0.5 27.0069 0.5 37.2241H1.5C1.5 27.5591 9.33502 19.7241 19 19.7241V18.7241Z" fill="#587D71"/>
<mask id="mask0_1064_3342" style="mask-type:alpha" maskUnits="userSpaceOnUse" x="1" y="0" width="77" height="68">
<path d="M2.46155 19C2.46155 9.05887 10.5204 1 20.4615 1H59C68.9412 1 77 9.05888 77 19V49C77 58.9411 68.9411 67 59 67H20.4615C10.5204 67 2.46155 58.9411 2.46155 49V19Z" fill="#FD5001"/>
<path d="M20.4615 1.5H59V0.5H20.4615V1.5ZM76.5 19V49H77.5V19H76.5ZM59 66.5H20.4615V67.5H59V66.5ZM2.96155 49V19H1.96155V49H2.96155ZM20.4615 66.5C10.7965 66.5 2.96155 58.665 2.96155 49H1.96155C1.96155 59.2173 10.2443 67.5 20.4615 67.5V66.5ZM76.5 49C76.5 58.665 68.665 66.5 59 66.5V67.5C69.2173 67.5 77.5 59.2173 77.5 49H76.5ZM59 1.5C68.665 1.5 76.5 9.33502 76.5 19H77.5C77.5 8.78273 69.2173 0.5 59 0.5V1.5ZM20.4615 0.5C10.2443 0.5 1.96155 8.78273 1.96155 19H2.96155C2.96155 9.33502 10.7966 1.5 20.4615 1.5V0.5Z" fill="#FD5001"/>
</mask>
<g mask="url(#mask0_1064_3342)">
<path d="M53.9998 92.5039C53.8803 83.0006 51.9488 59.2331 50.6059 54.5C50.5599 54.3326 50.5048 54.1653 50.4496 53.9886C49.8333 48.1304 46.0531 43.0254 46.0531 43.0254L36.6624 43.3973C36.6624 43.3973 33.3237 47.5911 32.0268 53.0866C31.9165 53.4586 31.8153 53.8305 31.7233 54.2118C30.5736 59.0006 29.6171 82.8239 29.8838 92.3272C29.9114 93.3687 31.7049 94.624 31.7049 94.624L31.5302 97.1998L37.2419 98.6225C37.2419 98.6225 37.1407 95.4888 37.1867 95.4051C37.1867 95.4051 39.1825 94.4938 39.4125 93.5268C41.0497 86.7666 39.854 75.5616 40.2495 73.9437C40.6818 72.1304 41.0864 65.0076 41.2796 61.13C41.6015 64.7844 42.3465 72.6604 42.8892 74.5667C43.3399 76.1567 42.6132 87.4082 44.5263 94.094C44.8023 95.0518 46.8349 95.8793 46.8349 95.8793C46.8809 95.963 46.9085 99.0967 46.9085 99.0967L52.5558 97.4322L52.2799 94.8658C52.2799 94.8658 54.0182 93.5361 54.009 92.4946L53.9998 92.5039Z" fill="#000E39"/>
<path d="M36.8738 43.7598C35.1722 47.1817 33.2315 50.4641 32.6797 53.4769C30.3251 66.3371 30.8862 78.7416 30.877 93.6846" stroke="white" stroke-width="0.39" stroke-linecap="square" stroke-linejoin="round"/>
<path d="M45.5563 43.4902C47.0831 46.6332 48.9318 50.8176 49.6124 53.8025C52.4912 66.5511 52.4453 78.9742 53.0615 93.8986" stroke="white" stroke-width="0.39" stroke-linecap="square" stroke-linejoin="round"/>
<path d="M46.8898 28.1751C46.8898 28.1751 47.4324 28.0542 48.0487 28.919C48.6649 29.7745 51.8565 33.4568 51.8565 33.4568L50.6424 25.0786L53.5304 23.8047C53.5304 23.8047 54.9376 31.3646 55.6367 33.308C56.3633 35.3258 56.4552 38.3572 55.5539 39.0453C54.257 40.0496 52.206 39.5846 51.1942 38.6455C50.2193 37.7435 47.1105 33.9961 47.1105 33.9961L46.8898 28.1844V28.1751Z" fill="#7F4539"/>
<path d="M50.6426 25.0786C50.6426 25.0786 50.3666 24.2231 50.2839 23.3397C50.2287 22.6981 50.2379 21.7124 50.2655 21.5822C50.4494 20.578 50.661 19.6109 51.0197 19.4249C51.3416 19.2576 51.7739 19.304 51.8291 20.8383L53.5674 20.5222C53.5674 20.5222 55.6736 20.0665 55.784 20.9592C55.876 21.731 55.2966 21.6752 55.2966 21.6752C55.2966 21.6752 55.9864 21.7031 55.9496 22.3633C55.9128 23.0235 55.4253 23.0514 55.4253 23.0514C55.4253 23.0514 55.7472 23.1072 55.7932 23.6466C55.8392 24.2138 55.3793 24.3533 55.3793 24.3533C55.3793 24.3533 56.0599 24.8647 55.6093 25.5063C55.2782 25.9712 52.5833 26.0642 52.5833 26.0642L50.8081 24.9949L50.6518 25.06L50.6426 25.0786Z" fill="#7F4539"/>
<path d="M51.5065 18.5322C51.5065 18.6996 52.6654 24.223 52.6654 24.223L55.3235 23.6558L54.3669 18.7275L51.5065 18.5322Z" fill="white"/>
<path d="M54.0272 15.1103C54.0272 15.1103 60.1436 13.6876 62.259 10.8794H63.0224C63.0224 10.8794 65.6621 16.0681 64.0985 20.5408H63.5283C63.5283 20.5408 59.8584 18.1045 54.2019 18.8763L54.018 15.1103H54.0272Z" fill="white"/>
<path d="M51.0285 15.4452C51.0285 15.5103 51.5803 19.0718 51.5803 19.0718L54.9099 18.8207L54.3304 14.8315L51.0285 15.4452Z" fill="#FFA81F"/>
<path d="M51.028 15.4453C51.028 15.4453 49.1609 15.6871 49.446 17.6119C49.722 19.5368 51.6626 19.0718 51.6626 19.0718L51.028 15.4453Z" fill="#FFA81F"/>
<path d="M64.0984 20.5408C62.6176 17.5559 61.9278 14.134 62.8383 10.9259L63.0223 10.8701C63.0223 10.8701 64.4203 13.9108 64.5491 16.3657C64.6778 18.8205 64.0984 20.5315 64.0984 20.5315V20.5408Z" stroke="#00113E" stroke-width="0.39" stroke-linecap="square" stroke-linejoin="round"/>
<path d="M62.1758 10.9263C61.2653 14.1343 61.9551 17.5563 63.4359 20.5412" stroke="#00113E" stroke-width="0.39" stroke-linecap="square" stroke-linejoin="round"/>
<path d="M51.672 19.0808C51.4789 17.9092 51.2766 16.7468 51.0834 15.5752" stroke="#00113E" stroke-width="0.39" stroke-linecap="square" stroke-linejoin="round"/>
<path d="M54.8553 20.4292C54.3587 20.4664 53.9264 20.5966 53.4389 20.7175C53.2366 20.7733 53.025 20.8291 52.8594 20.9592C52.6939 21.0894 52.5835 21.3126 52.6295 21.5172C52.6755 21.7218 52.8778 21.8612 53.0802 21.9077C53.2825 21.9542 53.5033 21.9263 53.7056 21.8891C54.3127 21.7961 54.745 21.7682 55.352 21.6845L54.8461 20.4199L54.8553 20.4292Z" fill="#7F4539"/>
<path d="M54.8553 20.4292C54.3587 20.4664 53.9264 20.5966 53.4389 20.7175C53.2366 20.7733 53.025 20.8291 52.8594 20.9592C52.6939 21.0894 52.5835 21.3126 52.6295 21.5172C52.6755 21.7217 52.8778 21.8612 53.0802 21.9077C53.2825 21.9542 53.5033 21.9263 53.7056 21.8891C54.3127 21.7961 54.745 21.7682 55.352 21.6845" stroke="#00113E" stroke-width="0.39" stroke-linecap="square" stroke-linejoin="round"/>
<path d="M55.1402 21.7402C54.6436 21.7774 53.7514 21.9913 53.2731 22.1122C53.0708 22.168 52.8592 22.2238 52.6937 22.354C52.5281 22.4841 52.4178 22.7073 52.4637 22.9119C52.5097 23.1165 52.7121 23.2559 52.9144 23.3024C53.1168 23.3489 53.3283 23.321 53.5399 23.2838C54.1469 23.1908 54.6987 23.1815 55.3058 23.0979L55.1402 21.7402Z" fill="#7F4539"/>
<path d="M54.7812 21.7778C54.2937 21.8522 53.7511 21.9824 53.2636 22.1033C53.0613 22.1591 52.8497 22.2149 52.6842 22.3451C52.5186 22.4752 52.4082 22.6984 52.4542 22.903C52.5002 23.1075 52.7026 23.247 52.9049 23.2935C53.1072 23.34 53.3188 23.3121 53.5303 23.2749C54.1374 23.1819 54.5697 23.154 55.1767 23.0704" stroke="#00113E" stroke-width="0.39" stroke-linecap="square" stroke-linejoin="round"/>
<path d="M55.3517 23.0791C54.8551 23.1163 53.5766 23.3767 53.0983 23.4975C52.896 23.5533 52.6844 23.6091 52.5189 23.7393C52.3533 23.8695 52.2429 24.0927 52.2889 24.2972C52.3349 24.5018 52.5373 24.6413 52.7396 24.6878C52.942 24.7343 53.1627 24.7064 53.365 24.6692C53.9721 24.5762 54.5975 24.5111 55.2046 24.4181L55.4529 23.8044L55.3517 23.0791Z" fill="#7F4539"/>
<path d="M54.7171 23.1631C54.2204 23.2003 53.5766 23.377 53.0983 23.4978C52.896 23.5536 52.6844 23.6094 52.5189 23.7396C52.3533 23.8698 52.2429 24.093 52.2889 24.2975C52.3349 24.5021 52.5373 24.6416 52.7396 24.6881C52.942 24.7346 53.1627 24.7067 53.365 24.6695C53.9721 24.5765 54.5055 24.5207 55.1126 24.4277" stroke="#00113E" stroke-width="0.39" stroke-linecap="square" stroke-linejoin="round"/>
<path d="M54.8366 24.502C54.3859 24.5391 53.9812 24.66 53.5397 24.7716C53.3466 24.8181 53.1626 24.8739 53.0063 24.9948C52.8499 25.1157 52.7487 25.3202 52.7947 25.5062C52.8407 25.6922 53.0247 25.8224 53.2086 25.8689C53.3926 25.9154 53.5949 25.8875 53.7881 25.8503C54.3399 25.7666 54.7446 25.7387 55.2965 25.6643" stroke="#00113E" stroke-width="0.39" stroke-linecap="square" stroke-linejoin="round"/>
<path d="M52.077 23.4515C52.2518 22.8563 52.0494 21.9637 51.5436 21.6103C51.7827 21.1733 51.7827 20.4108 51.6815 19.9272" stroke="#00113E" stroke-width="0.39" stroke-linecap="square" stroke-linejoin="round"/>
<path d="M34.2341 28.8913L25.8091 38.4969C25.3308 39.0362 24.9997 39.6964 24.8801 40.4124C24.7514 41.1842 24.8341 42.1048 25.6895 42.7092C27.4003 43.9088 35.4573 46.6333 35.4573 46.6333L35.816 43.5275L29.6537 40.4589L36.7082 33.1222L36.5978 28.0266C36.5978 28.0266 35.2366 27.7662 34.2433 28.8913H34.2341Z" fill="#7F4539"/>
<path d="M47.4137 21.5916C47.2297 20.5595 46.7147 19.611 46.1996 18.6904C46.0341 18.3929 45.8593 18.0953 45.703 17.7885C45.8133 16.6912 45.5374 15.5568 44.912 14.6362C44.075 13.4181 42.631 12.6091 41.1226 12.5068C39.605 12.4138 38.0598 13.0275 37.048 14.1341C36.7261 14.4874 36.4502 14.8873 36.1007 15.222C35.7328 15.5754 35.2913 15.8543 34.8866 16.1705C33.4426 17.3142 32.532 19.1182 32.6516 20.9128C32.6792 21.3778 32.7896 21.8427 32.9551 22.2798C33.3782 23.6095 34.0772 24.7904 34.9878 25.8505C35.1533 26.0457 35.3833 26.1852 35.6316 26.2503C36.1651 26.3991 36.7169 26.0922 37.186 25.7947C37.1032 25.6273 37.0204 25.4599 36.9377 25.2832C37.1032 25.5064 37.3975 25.6459 37.6919 25.6831C38.0782 25.7296 38.4553 25.6273 38.8324 25.525C40.9386 24.9857 43.0816 24.6044 45.2431 24.3813C45.2339 24.6323 45.2155 24.8834 45.2063 25.1438C45.8501 25.0229 46.3836 24.4835 46.4848 23.8605C46.5583 24.093 46.6227 24.3255 46.6963 24.5579C47.4229 23.7675 47.6069 22.6238 47.4229 21.5823L47.4137 21.5916Z" fill="#00113E"/>
<path d="M33.8287 12.7673C33.939 14.004 35.0244 14.9246 36.2568 14.8037C37.4893 14.6828 38.3907 13.5949 38.2711 12.3489C38.1607 11.1121 37.0754 10.1915 35.8429 10.3124C34.6197 10.424 33.7091 11.5213 33.8287 12.7673Z" fill="#00113E"/>
<path d="M43.1922 24.4838L43.5601 28.5194L38.9705 28.9472L38.1887 22.1963L43.1922 24.4838Z" fill="#7F4539"/>
<path d="M44.9765 16.645C45.0041 16.7287 45.6111 20.6434 45.5835 21.5919C45.5559 22.5404 44.8937 24.1955 43.1002 24.4931C40.9387 24.8465 38.0691 22.3823 38.0691 22.3823L37.508 16.2358C37.508 16.2358 38.4738 13.9112 41.0767 13.6973C43.6796 13.4741 44.9765 16.645 44.9765 16.645Z" fill="#7F4539"/>
<path d="M45.1969 17.9654C45.1969 17.9654 44.9577 17.9468 44.783 18.0026C43.5505 18.3745 43.4402 19.2951 43.4402 19.2951C43.4402 19.2951 43.9552 19.7507 44.9577 19.4997C45.1509 19.4532 45.2153 19.416 45.3716 19.323L45.1877 17.9747L45.1969 17.9654Z" fill="white"/>
<path d="M39.4673 17.7421C39.9731 17.3887 40.8929 17.3236 41.4447 17.5375" stroke="#00113E" stroke-width="0.39" stroke-linecap="square" stroke-linejoin="round"/>
<path d="M43.0268 19.5459C43.2016 19.7784 43.3671 20.0201 43.5327 20.2619C43.5787 20.327 43.6247 20.4107 43.5971 20.4851C43.5787 20.5502 43.5235 20.5874 43.4683 20.6246C43.3304 20.7082 43.1832 20.7733 43.0268 20.8291" stroke="#00113E" stroke-width="0.39" stroke-linecap="square" stroke-linejoin="round"/>
<path d="M38.4184 20.1503C38.354 19.6668 37.5722 19.425 37.0939 19.4343C36.6064 19.4436 36.165 19.8063 36.0086 20.2712C35.8431 20.7362 35.9534 21.2662 36.2385 21.666C36.5237 22.0659 36.9652 22.3262 37.4342 22.4378C37.9033 22.5494 38.4 22.5215 38.8782 22.4006L38.4276 20.141L38.4184 20.1503Z" fill="#7F4539"/>
<path d="M39.8259 23.563C39.8259 23.563 40.3594 25.6087 43.2842 25.4971L43.1922 24.5114C42.622 24.5765 41.2607 24.4929 39.8259 23.563Z" fill="#00113E"/>
<path d="M43.4956 17.4542C43.9279 17.1938 44.4429 17.0729 44.9488 17.1101" stroke="#00113E" stroke-width="0.39" stroke-linecap="square" stroke-linejoin="round"/>
<path d="M44.9581 19.4994C45.1513 19.4529 45.2249 19.4064 45.3812 19.3134L45.326 18.7927C45.326 18.6997 45.3076 18.6067 45.2892 18.5138L45.1973 17.9558C45.1973 17.9558 44.9489 17.9465 44.7742 17.993C44.6362 18.0302 44.5718 18.0581 44.4615 18.1139C44.4615 18.1325 44.3603 19.2484 44.6638 19.5459C44.7466 19.5366 44.8753 19.518 44.9673 19.4901L44.9581 19.4994Z" fill="#00113E"/>
<path d="M41.5185 13.5388C39.2191 13.4923 37.8394 14.8127 37.8394 14.8127L36.9105 16.2726C36.7725 16.3656 37.076 17.5187 36.9473 17.6209C36.8737 17.686 36.7909 17.7511 36.7541 17.8441C36.7081 17.965 36.7909 18.0859 36.7909 18.2161C36.8369 18.9878 37.1864 19.8526 37.9774 20.1781C38.4005 19.2854 38.4189 18.1417 38.1062 17.1932C38.6856 16.877 39.1731 16.3842 39.4674 15.7984C40.9666 17.1002 43.2752 17.3699 45.0227 16.4307C45.0227 16.4307 43.8087 13.5946 41.5093 13.5481L41.5185 13.5388Z" fill="#00113E"/>
<path d="M38.014 20.4108C37.8761 20.2806 37.7013 20.169 37.5174 20.1225C37.3334 20.076 37.1219 20.0853 36.9563 20.1783C36.6804 20.3271 36.5424 20.6804 36.616 20.9966C36.6896 21.3127 36.9379 21.5545 37.2322 21.6568C37.5266 21.7591 37.8577 21.7312 38.152 21.6103" stroke="#00113E" stroke-width="0.39" stroke-linecap="square" stroke-linejoin="round"/>
<path d="M39.0351 19.1557C39.0351 19.1557 39.4122 18.3002 40.6907 18.4025C41.9692 18.5048 42.1715 19.3696 42.1715 19.3696C42.1715 19.3696 41.3529 20.0484 40.424 19.9275C39.3938 19.788 39.0351 19.1557 39.0351 19.1557Z" fill="white"/>
<path d="M40.7916 18.374C40.7916 18.374 40.7456 18.374 40.7272 18.374C40.7272 18.3926 40.3777 19.2481 40.856 19.9269C41.6377 19.8804 42.2632 19.3411 42.2632 19.3411C42.2632 19.3411 42.0608 18.4763 40.7824 18.374H40.7916Z" fill="#00113E"/>
<path d="M43.7074 21.4429C43.3671 21.3313 43.0175 21.2569 42.6588 21.229C42.6037 21.229 42.5393 21.2197 42.4933 21.2476C42.4197 21.2941 42.4105 21.3964 42.4105 21.4801C42.4105 21.7591 42.3921 22.0008 42.6128 22.2612C42.8428 22.5308 43.4498 22.596 43.5694 22.2147" fill="#7C2419"/>
<path d="M43.7074 21.4429C43.3671 21.3313 43.0175 21.2569 42.6588 21.229C42.6037 21.229 42.5393 21.2197 42.4933 21.2476C42.4197 21.2941 42.4105 21.3964 42.4105 21.4801C42.4105 21.7591 42.3921 22.0008 42.6128 22.2612C42.8428 22.5308 43.4498 22.596 43.5694 22.2147" stroke="#00113E" stroke-width="0.39" stroke-linecap="square" stroke-linejoin="round"/>
<path d="M35.9166 15.445L35.374 14.6826L38.262 12.1626L38.9059 12.8693L35.9166 15.445Z" fill="#ED73EE"/>
<path d="M30.2795 32.8714C31.7603 30.8907 32.6616 29.6819 33.5078 29.0124C34.9886 27.8407 35.7336 27.8872 35.752 27.8872L38.8332 27.413L43.6067 27.3293C44.7748 27.2921 47.0374 27.5339 47.8928 28.3522L51.2591 31.3743L48.2607 35.7168L46.8627 34.1639L46.1085 43.0349L36.3591 43.4347L36.2211 42.2724C36.2211 42.2724 35.8992 38.2088 35.7152 34.3684L34.4184 36.0515L30.2703 32.8621L30.2795 32.8714Z" fill="#6537D3"/>
<path d="M48.2606 35.717C49.208 34.285 50.3025 32.8065 51.259 31.3745" stroke="#00113E" stroke-width="0.39" stroke-linecap="square" stroke-linejoin="round"/>
<path d="M29.7271 40.5057C29.0648 40.1524 28.3198 39.985 27.5748 40.0222" stroke="#00113E" stroke-width="0.39" stroke-linecap="square" stroke-linejoin="round"/>
<mask id="mask1_1064_3342" style="mask-type:luminance" maskUnits="userSpaceOnUse" x="30" y="27" width="22" height="17">
<path d="M30.2795 32.8714C31.7603 30.8907 32.6616 29.6819 33.5078 29.0124C34.9886 27.8407 35.7336 27.8872 35.752 27.8872L38.8332 27.413L43.6067 27.3293C44.7748 27.2921 47.0374 27.5339 47.8928 28.3522L51.2591 31.3743L48.2607 35.7168L46.8627 34.1639L46.1085 43.0349L36.3591 43.4347L36.2211 42.2724C36.2211 42.2724 35.8992 38.2088 35.7152 34.3684L34.4184 36.0515L30.2703 32.8621L30.2795 32.8714Z" fill="white"/>
</mask>
<g mask="url(#mask1_1064_3342)">
<path d="M36.0466 37.2697C36.2122 37.2511 36.3777 37.2232 36.5433 37.2139C36.7088 37.2046 36.8744 37.1861 37.04 37.1861C37.2055 37.1861 37.3987 37.2325 37.5642 37.2325C37.7298 37.2325 37.8769 37.121 38.0425 37.121C38.208 37.121 38.3736 37.1675 38.5392 37.1675C38.6955 37.1675 38.8611 37.1675 39.0174 37.1675C39.1738 37.1675 39.3393 37.0931 39.4957 37.0931C39.6521 37.0931 39.7716 37.1117 39.928 37.1117C40.0844 37.1117 40.3051 36.9815 40.4615 36.9815C40.6178 36.9815 40.7834 36.9164 40.9397 36.935C41.1053 36.9443 41.2616 36.9815 41.4272 37.0001C41.5928 37.0187 41.7583 37.0838 41.9147 37.1024C42.0802 37.1303 42.2366 37.0745 42.3929 37.1024C42.5585 37.1303 42.7149 37.1582 42.8804 37.1768C42.8896 37.1768 42.8988 37.1768 42.908 37.1768C42.9264 37.1768 42.954 37.1582 42.9724 37.1582C43.1287 37.1303 43.2943 37.2511 43.4507 37.2139C43.607 37.1861 43.7634 37.4371 43.9197 37.3999C44.0761 37.372 44.2417 37.4092 44.398 37.3813C44.5636 37.3441 44.7107 37.5673 44.8763 37.5301C45.0418 37.4929 45.189 37.3627 45.3546 37.3348C45.5201 37.3069 45.6949 37.3162 45.8604 37.3069C46.026 37.2883 46.2099 37.0931 46.3755 37.0931C46.541 37.0931 46.7066 37.121 46.8722 37.1396C47.1205 37.1768 47.1297 37.8277 46.8722 37.8835C46.7066 37.9207 46.541 37.9578 46.3755 37.9857C46.2099 38.0136 46.0444 38.0415 45.8788 38.0601C45.7133 38.0787 45.5477 37.9857 45.3822 37.995C45.2166 38.0043 44.9959 38.3019 44.8303 38.3112C44.6647 38.3205 44.49 38.1903 44.3244 38.1996C44.1681 38.2182 44.0301 38.5995 43.8646 38.6181C43.7082 38.6367 43.5334 38.4414 43.3771 38.46C43.2207 38.4786 43.1104 38.6181 42.9448 38.6274C42.7792 38.6367 42.6229 38.6367 42.4665 38.646C42.3102 38.646 42.0526 38.3763 41.8963 38.3763C41.7307 38.3763 41.6112 38.4135 41.4548 38.4042C41.2892 38.4042 41.1697 38.4972 41.0041 38.4786C40.8386 38.4693 40.7098 38.2833 40.5534 38.274C40.3879 38.2647 40.2315 38.2461 40.066 38.2368C39.9004 38.2275 39.744 38.1903 39.5785 38.181C39.4129 38.181 39.2382 37.995 39.0726 38.0043C38.9071 38.0136 38.7691 38.1438 38.6035 38.1624C38.438 38.181 38.2816 38.2182 38.1161 38.2275C37.9505 38.2368 37.7942 38.2368 37.6286 38.2368C37.4722 38.2368 37.3159 38.3112 37.1687 38.2926C37.1319 38.2926 37.0859 38.3019 37.0491 38.3019C36.8836 38.3019 36.7088 38.0043 36.5433 37.995C36.3777 37.9764 36.2306 38.1252 36.065 38.088C35.8167 38.0229 35.7891 37.2976 36.0466 37.2604V37.2697Z" fill="#ED73EE"/>
<path d="M47.2213 42.7284C47.0557 42.7284 46.881 42.7284 46.7154 42.7191C46.5499 42.7191 46.3751 42.7098 46.2095 42.6912C46.044 42.6726 45.8508 42.6075 45.6853 42.5889C45.5197 42.5703 45.3542 42.6633 45.1886 42.654C45.0231 42.6447 44.8575 42.5796 44.692 42.5703C44.5264 42.561 44.37 42.5517 44.2045 42.5424C44.0389 42.5424 43.8826 42.5889 43.717 42.5889C43.5514 42.5889 43.4411 42.561 43.2755 42.5517C43.11 42.5424 42.8892 42.6726 42.7329 42.6633C42.5765 42.654 42.411 42.7191 42.2454 42.7098C42.0798 42.6912 41.9235 42.6633 41.7579 42.6354C41.5924 42.6168 41.4268 42.561 41.2612 42.5331C41.0957 42.5052 40.9393 42.5703 40.7738 42.5517L40.2771 42.4866H40.2495C40.2495 42.4866 40.2035 42.4959 40.1851 42.5052C40.0288 42.5424 39.854 42.4308 39.6977 42.468C39.5413 42.5052 39.3666 42.2634 39.2102 42.3099C39.0538 42.3564 38.8791 42.3099 38.7227 42.3657C38.5572 42.4122 38.3916 42.2076 38.2261 42.2634C38.0605 42.3099 37.9225 42.4587 37.757 42.5052C37.5914 42.5517 37.4075 42.5517 37.2511 42.5982C37.0855 42.6354 36.92 42.8585 36.7544 42.8771C36.5889 42.8957 36.4233 42.905 36.2486 42.8957C35.991 42.8957 35.8899 42.2541 36.1382 42.1611C36.3038 42.0961 36.4693 42.0403 36.6349 41.9938C36.8004 41.9473 36.966 41.9008 37.1315 41.8543C37.2971 41.8171 37.4811 41.8915 37.6466 41.8543C37.8122 41.8264 38.0145 41.5102 38.1893 41.4823C38.364 41.4544 38.5572 41.5753 38.7227 41.5474C38.8883 41.5195 39.0079 41.1197 39.1734 41.0918C39.339 41.0639 39.5229 41.2406 39.6977 41.222C39.8632 41.2034 39.9736 41.0453 40.1391 41.0267C40.3047 41.0081 40.4703 40.9988 40.645 40.9895C40.8106 40.9802 41.0865 41.2499 41.2521 41.2499C41.4176 41.2499 41.5464 41.2127 41.7211 41.2127C41.8867 41.2127 42.0247 41.129 42.1902 41.1383C42.3558 41.1476 42.4937 41.3335 42.6685 41.3521L43.1743 41.3986C43.3399 41.4172 43.5055 41.4637 43.6802 41.473C43.8458 41.4823 44.0297 41.6776 44.1953 41.6776C44.3608 41.6776 44.5172 41.5567 44.692 41.5567C44.8575 41.5567 45.0323 41.5288 45.207 41.5288C45.3726 41.5288 45.5473 41.5474 45.7129 41.566C45.8692 41.5846 46.044 41.5195 46.2004 41.566C46.2463 41.566 46.2831 41.566 46.3291 41.566C46.5039 41.5846 46.651 41.9008 46.8166 41.938C46.9821 41.9752 47.1569 41.845 47.3225 41.9101C47.58 42.0031 47.488 42.7377 47.2305 42.7377L47.2213 42.7284Z" fill="#ED73EE"/>
<path d="M33.3695 27.971C33.5994 27.971 33.8294 27.9617 34.0593 27.971C34.2892 27.971 34.5192 27.971 34.7399 27.9803C34.9699 27.9896 35.2366 28.0547 35.4665 28.064C35.6965 28.064 35.908 27.9803 36.138 27.9896C36.3679 27.9896 36.5886 28.0547 36.8186 28.0547H37.4808C37.7015 28.064 37.9223 27.9989 38.143 27.9989C38.3638 27.9989 38.5201 28.0175 38.7409 28.0175C38.9616 28.0175 39.2559 27.878 39.4767 27.8873C39.6974 27.8873 39.9182 27.8222 40.1297 27.8315C40.3504 27.8315 40.5804 27.8687 40.8011 27.8873C41.0219 27.8966 41.261 27.9524 41.4818 27.971C41.7025 27.9896 41.9232 27.9245 42.144 27.9338L42.8154 27.9803H42.8522C42.8522 27.9803 42.9074 27.9617 42.9442 27.9617C43.1649 27.9245 43.3948 28.0268 43.6064 27.9803C43.8271 27.9338 44.0479 28.1663 44.2686 28.1198C44.4894 28.0733 44.7101 28.1012 44.9308 28.0454C45.1516 27.9896 45.3723 28.1849 45.6023 28.1291C45.823 28.0733 46.0161 27.9152 46.2461 27.8687C46.4668 27.8129 46.7152 27.8036 46.9359 27.7571C47.1566 27.7106 47.3866 27.4875 47.6165 27.4596C47.8465 27.4317 48.0672 27.4224 48.2972 27.4224C48.6467 27.4224 48.7386 28.0547 48.4075 28.157C48.1868 28.2221 47.966 28.2871 47.7361 28.3429C47.5154 28.3987 47.2854 28.4452 47.0555 28.4917C46.8255 28.5382 46.5864 28.4638 46.3565 28.501C46.1265 28.5382 45.8414 28.8637 45.6207 28.8916C45.3907 28.9288 45.1332 28.8079 44.9033 28.8451C44.6825 28.8823 44.5169 29.2821 44.2962 29.31C44.0755 29.3472 43.8271 29.1705 43.6064 29.1984C43.3856 29.2263 43.2385 29.3844 43.0086 29.403C42.7878 29.4309 42.5579 29.4402 42.3371 29.4588C42.1164 29.4774 41.7393 29.217 41.5185 29.217C41.2886 29.217 41.123 29.2635 40.8931 29.2635C40.6632 29.2635 40.4976 29.3565 40.2677 29.3565C40.0377 29.3565 39.8538 29.1705 39.6238 29.1612L38.9432 29.1333C38.7133 29.124 38.4925 29.0775 38.2626 29.0775C38.0327 29.0775 37.7843 28.8916 37.5544 28.8916C37.3244 28.8916 37.1221 29.0217 36.9014 29.031C36.6714 29.0403 36.4507 29.0682 36.2207 29.0775C35.9908 29.0775 35.7701 29.0775 35.5401 29.0589C35.3194 29.0496 35.0986 29.1147 34.8871 29.0868C34.8319 29.0868 34.7675 29.0868 34.7123 29.0868C34.4824 29.0775 34.2433 28.7707 34.0225 28.7335C33.7926 28.7056 33.581 28.8358 33.3511 28.78C33.0016 28.6963 33.0292 27.9617 33.3787 27.9524L33.3695 27.971Z" fill="#ED73EE"/>
<path d="M30.9964 30.1284C31.0976 30.1749 31.1988 30.2307 31.2907 30.2865C31.3827 30.3516 31.4747 30.4073 31.5575 30.4724C31.6495 30.5375 31.7046 30.6677 31.7874 30.7421C31.8702 30.8165 32.0174 30.8072 32.0909 30.8816C32.1645 30.956 32.2105 31.0676 32.2841 31.1419L32.5048 31.3651C32.5784 31.4395 32.698 31.4674 32.7624 31.5418C32.8359 31.6162 32.8727 31.6813 32.9371 31.7557C33.0015 31.8301 33.1946 31.8486 33.259 31.923C33.3234 32.0067 33.443 32.0346 33.4982 32.1183C33.5533 32.202 33.5993 32.3043 33.6453 32.3973C33.7005 32.4903 33.7189 32.6018 33.7649 32.6948C33.8109 32.7878 33.9213 32.825 33.9672 32.918L34.1052 33.197V33.2156C34.1052 33.2156 34.142 33.2249 34.1512 33.2342C34.234 33.29 34.2156 33.4387 34.2984 33.4945C34.3811 33.5503 34.2616 33.7828 34.3535 33.8386C34.4455 33.8944 34.4731 33.9966 34.5651 34.0431C34.6571 34.0896 34.5651 34.3035 34.6571 34.3593C34.749 34.4151 34.9054 34.3872 34.9974 34.4337C35.0893 34.4895 35.1537 34.5732 35.2365 34.629C35.3193 34.6848 35.5308 34.629 35.6044 34.6941C35.6688 34.7592 35.7332 34.8428 35.7792 34.9265C35.8619 35.0567 35.4481 35.5495 35.2917 35.4844C35.1905 35.438 35.0893 35.4008 34.9974 35.345C34.9054 35.2892 34.8134 35.2334 34.7214 35.1776C34.6295 35.1218 34.6295 34.973 34.5467 34.9079C34.4639 34.8428 34.1604 34.9358 34.0776 34.8707C33.9948 34.8057 34.0224 34.629 33.9397 34.5639C33.8661 34.4988 33.5166 34.6941 33.4338 34.629C33.351 34.5639 33.4246 34.3593 33.351 34.2942C33.2774 34.2291 33.1211 34.2663 33.0475 34.2012C32.9739 34.1361 32.9095 34.0617 32.8359 33.9874C32.7624 33.913 32.8727 33.6061 32.8083 33.5317C32.744 33.4573 32.6704 33.4201 32.606 33.3364C32.5416 33.2528 32.422 33.2621 32.3669 33.1784C32.3117 33.0947 32.3945 32.9087 32.3393 32.8343L32.1645 32.5833C32.1093 32.4996 32.0633 32.4066 32.0082 32.3229C31.9438 32.2485 32.0082 32.0439 31.9254 31.9788C31.8518 31.9137 31.6954 31.9323 31.6219 31.8766C31.5391 31.8208 31.4471 31.7743 31.3643 31.7185C31.2908 31.6534 31.2172 31.5883 31.1436 31.5232C31.0792 31.4581 30.9596 31.4488 30.9045 31.3744C30.8861 31.3651 30.8585 31.3465 30.8401 31.3372C30.7665 31.2814 30.8769 30.9839 30.8033 30.9002C30.7389 30.8258 30.5733 30.8909 30.5182 30.7979C30.4354 30.6584 30.8493 30.054 31.0056 30.1284H30.9964Z" fill="#ED73EE"/>
<path d="M47.0742 34.564C47.1018 34.4803 47.1386 34.3966 47.1754 34.3129C47.2122 34.2292 47.249 34.1548 47.295 34.0804C47.3409 34.0061 47.4421 33.941 47.4881 33.8666C47.5341 33.7922 47.4881 33.662 47.5341 33.5876C47.5801 33.5132 47.6629 33.4667 47.7089 33.3923L47.8376 33.1692C47.8744 33.0948 47.8652 32.9925 47.902 32.9181C47.9388 32.8437 47.9848 32.7972 48.0308 32.7321C48.0768 32.6577 48.0124 32.4904 48.0584 32.4253C48.1043 32.3509 48.086 32.2486 48.1319 32.1835C48.1871 32.1184 48.2515 32.0533 48.3159 31.9882C48.3711 31.9231 48.4631 31.8674 48.5274 31.8023C48.5918 31.7372 48.5734 31.6349 48.6378 31.5698L48.8218 31.3745H48.831C48.831 31.3745 48.831 31.3373 48.831 31.3187C48.8402 31.235 48.9873 31.2071 48.9965 31.1142C49.0057 31.0212 49.2632 31.0584 49.2724 30.9654C49.2724 30.8724 49.3552 30.8166 49.3644 30.7236C49.3644 30.6306 49.5944 30.6492 49.6036 30.5469C49.6128 30.4446 49.5208 30.3238 49.53 30.2308C49.53 30.1378 49.5852 30.0541 49.6036 29.9704C49.622 29.8774 49.4748 29.7193 49.5116 29.6357C49.5484 29.552 49.5944 29.4776 49.6495 29.4125C49.7323 29.3009 50.3302 29.5241 50.3394 29.6728C50.3394 29.7658 50.3394 29.8681 50.3394 29.9611C50.3302 30.0541 50.321 30.1471 50.3026 30.2401C50.2842 30.3331 50.1646 30.3795 50.137 30.4725C50.1186 30.5655 50.3302 30.7887 50.3026 30.8817C50.275 30.9747 50.1094 31.0026 50.091 31.0955C50.0726 31.1792 50.3853 31.4117 50.3578 31.5047C50.3302 31.5977 50.1278 31.5977 50.1002 31.6814C50.0726 31.7651 50.1738 31.886 50.1462 31.9789C50.1186 32.0626 50.0818 32.1463 50.045 32.23C50.0082 32.3137 49.6955 32.3137 49.6587 32.3974C49.6128 32.4811 49.6127 32.5555 49.5668 32.6298C49.5208 32.7042 49.5668 32.8158 49.5116 32.8902C49.4564 32.9646 49.2632 32.946 49.2081 33.0111L49.0425 33.225C48.9873 33.2994 48.9137 33.3551 48.8586 33.4295C48.8034 33.5039 48.601 33.4946 48.5642 33.5783C48.5274 33.662 48.5918 33.7922 48.5642 33.8759C48.5274 33.9596 48.5182 34.0618 48.4815 34.1455C48.4447 34.2292 48.3987 34.3036 48.3435 34.378C48.2975 34.4524 48.3159 34.564 48.2515 34.6291C48.2515 34.6477 48.2331 34.6756 48.2239 34.6942C48.1779 34.7686 47.8744 34.6942 47.8192 34.7592C47.7548 34.8243 47.8284 34.9824 47.7456 35.0289C47.6169 35.1126 47.019 34.6849 47.065 34.5547L47.0742 34.564Z" fill="#ED73EE"/>
<path d="M35.7887 32.5461C35.9543 32.5182 36.1198 32.481 36.2854 32.4624C36.451 32.4438 36.6165 32.4159 36.7821 32.4066C36.9476 32.3973 37.15 32.4345 37.3155 32.4252C37.4811 32.4159 37.6282 32.3043 37.7938 32.295C37.9594 32.295 38.1249 32.3229 38.2905 32.3136C38.4468 32.3043 38.6124 32.295 38.7687 32.2857C38.9251 32.2764 39.0814 32.202 39.247 32.1927C39.4034 32.1834 39.5229 32.1927 39.6885 32.1927C39.8449 32.1927 40.0564 32.0439 40.222 32.0346C40.3783 32.0346 40.5439 31.9509 40.7002 31.9602C40.8658 31.9602 41.0313 31.9881 41.1969 32.0067C41.3625 32.016 41.5372 32.0718 41.6936 32.0811C41.8591 32.0997 42.0155 32.0346 42.181 32.0532C42.3466 32.0718 42.5122 32.0904 42.6777 32.0997C42.6869 32.0997 42.6961 32.0997 42.7053 32.0997C42.7237 32.0997 42.7513 32.0811 42.7697 32.0811C42.926 32.0439 43.1008 32.1555 43.2571 32.1183C43.4135 32.0811 43.5791 32.3229 43.7354 32.2857C43.8918 32.2485 44.0573 32.2857 44.2137 32.2392C44.3793 32.1927 44.5356 32.4066 44.7012 32.3601C44.8667 32.3136 45.0047 32.1741 45.1702 32.1369C45.3358 32.0997 45.5106 32.0997 45.6761 32.0811C45.8417 32.0532 46.0164 31.8487 46.182 31.8394C46.3475 31.8394 46.5131 31.8394 46.6786 31.8673C46.9362 31.8951 46.973 32.5368 46.7246 32.6112C46.5591 32.6576 46.3935 32.7041 46.228 32.7413C46.0624 32.7785 45.8969 32.8157 45.7313 32.8436C45.5657 32.8715 45.391 32.7785 45.2254 32.8064C45.0599 32.8343 44.8483 33.1319 44.6828 33.1505C44.5172 33.1691 44.3333 33.0482 44.1677 33.0668C44.0114 33.0947 43.8826 33.4852 43.7262 33.5131C43.5699 33.541 43.3859 33.3551 43.2296 33.3829C43.0732 33.4015 42.9628 33.5596 42.8065 33.5782C42.6501 33.5968 42.4846 33.6061 42.3282 33.6247C42.1718 33.6433 41.8959 33.3736 41.7304 33.3829C41.5648 33.3829 41.4452 33.4294 41.2797 33.4387C41.1141 33.4387 40.9945 33.541 40.829 33.541C40.6634 33.541 40.5255 33.3644 40.3599 33.3551C40.1944 33.3551 40.0288 33.355 39.8724 33.3457C39.7069 33.3457 39.5413 33.3086 39.3758 33.3178C39.2102 33.3271 39.0171 33.1505 38.8607 33.1691C38.6952 33.1877 38.5572 33.3178 38.4008 33.3457C38.2353 33.3736 38.0789 33.4201 37.9134 33.4387C37.7478 33.4573 37.5914 33.4666 37.4259 33.4759C37.2695 33.4759 37.1132 33.5689 36.9568 33.5596C36.92 33.5596 36.874 33.5782 36.8281 33.5782C36.6625 33.5875 36.4693 33.3086 36.2946 33.2993C36.129 33.2993 35.9819 33.448 35.8163 33.4201C35.5588 33.3736 35.5036 32.639 35.7519 32.5925L35.7887 32.5461Z" fill="#ED73EE"/>
</g>
<path d="M35.7973 35.8472L35.4938 31.3652" stroke="#00113E" stroke-width="0.39" stroke-linecap="square" stroke-linejoin="round"/>
<path d="M46.8439 35.0566L46.9358 31.2441" stroke="#00113E" stroke-width="0.39" stroke-linecap="square" stroke-linejoin="round"/>
<path d="M39.7067 39.3525C40.7 40.3382 42.0429 40.9612 43.4317 41.0728" stroke="#00113E" stroke-width="0.39" stroke-linecap="square" stroke-linejoin="round"/>
<path d="M38.5385 37.1675C39.7617 38.7762 41.4725 40.0036 43.3764 40.6359" stroke="#00113E" stroke-width="0.39" stroke-linecap="square" stroke-linejoin="round"/>
<path d="M41.2515 42.8205C41.2239 42.7089 40.9663 42.5973 40.8284 42.5694C39.9546 42.3927 38.0139 42.1138 37.6276 42.244C37.1678 42.3927 35.8157 43.5272 35.8157 43.5272L34.0038 45.6287C34.0038 45.6287 35.7789 46.9491 36.0089 46.8933C36.248 46.8375 37.5265 45.6101 37.5265 45.6101C37.5265 45.6101 39.4487 45.4241 39.6511 45.3497C39.8626 45.2753 39.9086 45.0243 39.881 44.9871L37.9955 44.6058C37.9955 44.6058 39.8534 44.7453 40.2214 44.7267C40.4145 44.7174 40.5065 44.6244 40.5709 44.4943C40.626 44.3827 40.5525 44.2525 40.4421 44.2339L38.3542 43.9456L38.3266 43.8433C38.3266 43.8433 40.2949 44.2339 40.6076 43.9828C40.9847 43.8898 40.902 43.4156 40.5617 43.3691L38.8417 43.1366C38.8417 43.1366 40.1846 43.2203 40.8376 43.2296C41.0491 43.2296 41.2975 43.0344 41.2515 42.8298V42.8205Z" fill="#7F4539"/>
<path d="M35.8158 43.4897C35.7331 44.1593 35.6503 44.8381 35.5675 45.5076" stroke="#00113E" stroke-width="0.39" stroke-linecap="square" stroke-linejoin="round"/>
<path d="M19.6279 8.57372C20.7041 7.2812 23.2518 7.2998 23.3713 7.31839C23.3713 7.31839 24.8246 7.33699 27.032 7.55086C29.6717 7.81123 30.2971 9.11305 30.2971 9.11305C30.803 9.91274 30.7938 10.9263 30.7478 11.8841C30.6926 13.2417 30.5639 14.6923 29.6993 15.7337C29.3038 16.208 28.7887 16.5427 28.2369 16.8124C28.6324 17.7237 29.405 18.4676 30.3523 18.7558C29.5337 19.2766 28.4208 19.0999 27.6022 18.5792C27.1424 18.2816 26.7469 17.891 26.3974 17.4633C25.4684 17.7051 24.1991 17.5842 23.2518 17.4819C21.7894 17.3331 20.9524 17.11 20.1522 16.208C18.9013 14.8039 18.8921 13.595 18.9013 11.8748C18.9013 10.7961 18.6898 9.69887 19.6279 8.57372Z" fill="#112445"/>
<path d="M26.0847 12.3583C26.0847 12.8046 26.4434 13.1673 26.8849 13.1673C27.3263 13.1673 27.685 12.8046 27.685 12.3583C27.685 11.912 27.3263 11.5493 26.8849 11.5493C26.4434 11.5493 26.0847 11.912 26.0847 12.3583Z" fill="#EBF4FA"/>
<path d="M23.7671 12.3583C23.7671 12.8046 24.1258 13.1673 24.5673 13.1673C25.0088 13.1673 25.3675 12.8046 25.3675 12.3583C25.3675 11.912 25.0088 11.5493 24.5673 11.5493C24.1258 11.5493 23.7671 11.912 23.7671 12.3583Z" fill="#EBF4FA"/>
<path d="M21.5501 12.3583C21.5501 12.8046 21.9088 13.1673 22.3503 13.1673C22.7917 13.1673 23.1504 12.8046 23.1504 12.3583C23.1504 11.912 22.7917 11.5493 22.3503 11.5493C21.9088 11.5493 21.5501 11.912 21.5501 12.3583Z" fill="#EBF4FA"/>
</g>
<path d="M81 37.2241C81 27.283 89.0589 19.2241 99 19.2241H137.538C147.48 19.2241 155.538 27.283 155.538 37.2241V49.0002C155.538 58.9414 147.48 67.0002 137.538 67.0002H99C89.0589 67.0002 81 58.9414 81 49.0002V37.2241Z" fill="#587D71"/>
<path d="M99 19.7241H137.538V18.7241H99V19.7241ZM155.038 37.2241V49.0002H156.038V37.2241H155.038ZM137.538 66.5002H99V67.5002H137.538V66.5002ZM81.5 49.0002V37.2241H80.5V49.0002H81.5ZM99 66.5002C89.335 66.5002 81.5 58.6652 81.5 49.0002H80.5C80.5 59.2175 88.7827 67.5002 99 67.5002V66.5002ZM155.038 49.0002C155.038 58.6652 147.203 66.5002 137.538 66.5002V67.5002C147.756 67.5002 156.038 59.2175 156.038 49.0002H155.038ZM137.538 19.7241C147.203 19.7241 155.038 27.5591 155.038 37.2241H156.038C156.038 27.0069 147.756 18.7241 137.538 18.7241V19.7241ZM99 18.7241C88.7827 18.7241 80.5 27.0069 80.5 37.2241H81.5C81.5 27.5591 89.335 19.7241 99 19.7241V18.7241Z" fill="#587D71"/>
<mask id="mask2_1064_3342" style="mask-type:alpha" maskUnits="userSpaceOnUse" x="81" y="0" width="77" height="68">
<path d="M82.4615 19C82.4615 9.05887 90.5204 1 100.462 1H139C148.941 1 157 9.05888 157 19V49C157 58.9411 148.941 67 139 67H100.462C90.5204 67 82.4615 58.9411 82.4615 49V19Z" fill="#FD5001"/>
<path d="M100.462 1.5H139V0.5H100.462V1.5ZM156.5 19V49H157.5V19H156.5ZM139 66.5H100.462V67.5H139V66.5ZM82.9615 49V19H81.9615V49H82.9615ZM100.462 66.5C90.7965 66.5 82.9615 58.665 82.9615 49H81.9615C81.9615 59.2173 90.2443 67.5 100.462 67.5V66.5ZM156.5 49C156.5 58.665 148.665 66.5 139 66.5V67.5C149.217 67.5 157.5 59.2173 157.5 49H156.5ZM139 1.5C148.665 1.5 156.5 9.33502 156.5 19H157.5C157.5 8.78273 149.217 0.5 139 0.5V1.5ZM100.462 0.5C90.2443 0.5 81.9615 8.78273 81.9615 19H82.9615C82.9615 9.33502 90.7966 1.5 100.462 1.5V0.5Z" fill="#FD5001"/>
</mask>
<g mask="url(#mask2_1064_3342)">
<mask id="mask3_1064_3342" style="mask-type:alpha" maskUnits="userSpaceOnUse" x="85" y="0" width="70" height="70">
<path d="M153.673 19C153.673 9.05888 145.614 1 135.673 1H104C94.0589 1 86 9.05888 86 19V51C86 60.9411 94.0589 69 104 69H135.673C145.614 69 153.673 60.9411 153.673 51V19Z" fill="#FD5001"/>
<path d="M135.673 1.5H104V0.5H135.673V1.5ZM86.5 19V51H85.5V19H86.5ZM104 68.5H135.673V69.5H104V68.5ZM153.173 51V19H154.173V51H153.173ZM135.673 68.5C145.338 68.5 153.173 60.665 153.173 51H154.173C154.173 61.2173 145.89 69.5 135.673 69.5V68.5ZM86.5 51C86.5 60.665 94.335 68.5 104 68.5V69.5C93.7827 69.5 85.5 61.2173 85.5 51H86.5ZM104 1.5C94.335 1.5 86.5 9.33502 86.5 19H85.5C85.5 8.78273 93.7827 0.5 104 0.5V1.5ZM135.673 0.5C145.89 0.5 154.173 8.78273 154.173 19H153.173C153.173 9.33502 145.338 1.5 135.673 1.5V0.5Z" fill="#FD5001"/>
</mask>
<g mask="url(#mask3_1064_3342)">
<g clip-path="url(#clip0_1064_3342)">
<path d="M106.811 26.2209C105.818 25.9529 104.722 25.4244 104.193 25.5807C103.759 25.7072 103.207 26.3698 102.832 26.8834C102.597 26.1688 102.369 25.4467 102.163 24.7172C102.972 23.5707 104.48 22.9752 105.84 23.2655C106.488 23.3995 107.142 23.7196 107.782 23.5633C108.746 23.3325 109.165 22.2233 109.783 21.4417C110.702 20.2581 112.342 19.6997 113.784 20.0868C114.733 20.34 115.733 20.9578 116.616 20.5261C117.3 20.1911 118.661 16.9677 119.014 16.2977C119.065 15.7394 119.227 15.196 119.506 14.7047C120.132 13.5806 121.316 12.7617 122.618 12.5607C123.92 12.3523 125.31 12.7692 126.266 13.6402C126.575 13.923 126.84 14.2431 127.171 14.5111C127.516 14.7866 127.921 14.9876 128.289 15.2332C129.627 16.1042 130.554 17.593 130.591 19.1563C130.591 19.3052 130.591 19.4541 130.576 19.603C130.613 22.3871 127.384 27.1067 126.141 27.8288C124.912 28.5435 123.589 29.2581 122.176 29.0944C121.257 28.9827 120.396 28.5733 119.521 28.268C118.638 27.9628 117.668 27.7693 116.792 28.1043C115.123 28.737 114.417 31.0299 112.681 31.417C111.467 31.6849 110.276 30.881 109.04 30.7619C107.915 30.6502 106.745 31.149 106.046 32.0572C105.958 32.1763 105.84 32.273 105.708 32.34C105.134 32.5931 104.862 32.1167 104.678 31.7073C104.119 30.4566 103.619 29.1837 103.156 27.8958C103.443 27.4938 103.568 27.278 103.987 26.8015C104.737 25.9529 106.488 27.2631 107.591 26.9281C108.407 26.6824 108.496 25.871 108.496 25.871C108.018 26.2656 107.385 26.4144 106.789 26.2507L106.811 26.2209Z" fill="#112445"/>
<path d="M131.164 45.5085C131.15 45.6425 130.068 47.5408 130.51 48.8212C130.951 50.1016 131.562 50.9949 131.562 50.9949L131.79 50.9503C131.951 50.6153 131.996 50.2356 131.922 49.8709L131.701 48.8138L132.224 49.9304L132.172 51.1661C132.172 51.1661 132.172 51.2257 132.187 51.315C132.238 51.7766 132.613 52.1339 133.077 52.1488L133.658 52.1711C133.658 52.1711 133.93 52.0892 134.143 51.1885C134.232 50.8014 134.187 48.6277 134.18 48.5607C134.165 48.4937 133.503 45.6872 133.489 45.6351C133.474 45.583 131.179 45.4937 131.179 45.4937L131.164 45.5085Z" fill="#FFA81F"/>
<path d="M132.952 52.156C132.863 51.6498 133.033 51.1436 133.121 50.6448C133.231 49.9748 133.187 49.2676 132.959 48.6274" stroke="#00113E" stroke-width="0.39" stroke-linecap="square" stroke-linejoin="round"/>
<path d="M133.518 52.1786C133.628 51.6054 133.739 51.0247 133.776 50.4441C133.82 49.856 133.79 49.2605 133.628 48.7021" stroke="#00113E" stroke-width="0.39" stroke-linecap="square" stroke-linejoin="round"/>
<path d="M131.745 49.037C131.591 48.4936 131.407 47.9576 131.186 47.4365" stroke="#00113E" stroke-width="0.39" stroke-linecap="square" stroke-linejoin="round"/>
<path d="M128.568 36.717L132.135 36.0991L130.907 29.0718L127.097 29.5482L128.568 36.717Z" fill="#FFA81F"/>
<path d="M131.076 46.5806L133.562 46.2605L132.135 36.0991L128.568 36.717L131.076 46.5806Z" fill="#FFA81F"/>
<path d="M121.154 22.841L120.669 26.2206L124.508 26.7789L125.449 21.1362L121.154 22.841Z" fill="#FFA81F"/>
<path d="M119.992 16.1786C119.962 16.253 119.293 19.5136 119.271 20.3101C119.249 21.1067 119.734 22.5285 121.227 22.856C123.03 23.2506 125.538 21.3002 125.538 21.3002L126.273 16.1637C126.273 16.1637 125.567 14.1686 123.39 13.8709C121.213 13.5731 119.992 16.1786 119.992 16.1786Z" fill="#FFA81F"/>
<path d="M119.756 17.2804C119.756 17.2804 119.962 17.2804 120.102 17.3251C121.117 17.6898 121.176 18.4715 121.176 18.4715C121.176 18.4715 120.727 18.8288 119.889 18.5757C119.727 18.531 119.676 18.4938 119.543 18.4045L119.749 17.2729L119.756 17.2804Z" fill="white"/>
<path d="M124.567 17.3471C124.162 17.027 123.39 16.9303 122.912 17.094" stroke="#00113E" stroke-width="0.39" stroke-linecap="square" stroke-linejoin="round"/>
<path d="M121.507 18.7021C121.353 18.8883 121.198 19.0818 121.051 19.2828C121.014 19.3349 120.97 19.4019 120.985 19.4689C120.999 19.521 121.044 19.5582 121.088 19.588C121.198 19.6625 121.323 19.7295 121.448 19.7741" stroke="#000E39" stroke-width="0.39" stroke-linecap="square" stroke-linejoin="round"/>
<path d="M125.346 19.4095C125.427 19.0075 126.082 18.8363 126.494 18.8661C126.898 18.8959 127.259 19.2234 127.369 19.618C127.487 20.0125 127.369 20.4592 127.119 20.7793C126.869 21.0994 126.479 21.3078 126.082 21.3748C125.685 21.4492 125.266 21.4046 124.876 21.2855L125.354 19.4095H125.346Z" fill="#FFA81F"/>
<path d="M124.022 22.186C124.022 22.186 123.486 23.8833 121.036 23.6525L121.154 22.8337C121.632 22.9156 122.779 22.9007 124.022 22.186Z" fill="#00113E"/>
<path d="M121.205 16.9231C120.852 16.6848 120.426 16.5583 119.999 16.5657" stroke="#00113E" stroke-width="0.39" stroke-linecap="square" stroke-linejoin="round"/>
<path d="M119.889 18.5756C119.727 18.5309 119.676 18.4937 119.543 18.4044L119.602 17.9651C119.617 17.8833 119.624 17.8088 119.646 17.7344L119.749 17.2803C119.749 17.2803 119.955 17.2803 120.095 17.3249C120.205 17.3622 120.264 17.3919 120.352 17.4366C120.352 17.4515 120.389 18.3969 120.124 18.6277C120.058 18.6128 119.948 18.5905 119.874 18.5681L119.889 18.5756Z" fill="#00113E"/>
<path d="M125.677 19.6478C125.802 19.5436 125.95 19.4542 126.104 19.4245C126.266 19.3872 126.435 19.4096 126.575 19.4989C126.795 19.6403 126.898 19.9381 126.825 20.1987C126.751 20.4518 126.531 20.6527 126.281 20.7272C126.03 20.8016 125.751 20.757 125.516 20.6453" stroke="#000E39" stroke-width="0.39" stroke-linecap="square" stroke-linejoin="round"/>
<path d="M124.868 18.546C124.868 18.546 124.589 17.809 123.508 17.8388C122.434 17.8685 122.228 18.5832 122.228 18.5832C122.228 18.5832 122.882 19.1862 123.669 19.1266C124.545 19.0596 124.868 18.546 124.868 18.546Z" fill="white"/>
<path d="M123.434 17.8164C123.434 17.8164 123.471 17.8164 123.486 17.8164C123.486 17.8313 123.743 18.5683 123.309 19.1191C122.654 19.0447 122.147 18.5683 122.147 18.5683C122.147 18.5683 122.353 17.8536 123.427 17.8239L123.434 17.8164Z" fill="#00113E"/>
<path d="M120.999 20.4888C121.213 20.5558 121.456 20.5483 121.661 20.459C121.875 20.3697 122.051 20.2133 122.154 20.0049" stroke="#000E39" stroke-width="0.39" stroke-linecap="square" stroke-linejoin="round"/>
<path d="M121.669 29.5557C121.522 29.6227 110.07 28.1041 109.422 27.0619C108.775 26.0197 105.553 19.2157 105.553 19.2157L108.032 18.3149L112.254 24.65L120.595 25.1264L121.661 29.5483L121.669 29.5557Z" fill="#FFA81F"/>
<path d="M125.376 36.1141L127.832 30.2331L129.76 29.5557C129.76 29.5557 127.251 25.7443 126.663 25.6847L122.073 25.1859L120.021 25.1189C119.602 25.0594 118.028 25.2083 117.631 25.3497L117.646 29.1165C117.55 31.4093 118.153 35.8237 118.153 35.8237L116.763 39.7989L127.766 40.387L125.376 36.1215V36.1141Z" fill="#FFA81F"/>
<path d="M118.116 24.8433L122.073 25.1783L126.163 25.6249C126.766 25.61 128.141 25.7589 129.76 27.0914C130.274 27.5157 131.444 29.7788 131.444 29.7788L127.634 33.4786L127.237 32.8086L126.722 34.9376L117.315 34.6622L117.646 29.1162L118.116 24.8507V24.8433Z" fill="#ED73EE"/>
<path d="M127.428 31.7073C127.796 30.5087 128.163 29.3177 128.531 28.1191" stroke="#00113E" stroke-width="0.39" stroke-linecap="square" stroke-linejoin="round"/>
<path d="M118.116 24.8435L114.902 24.7988L116.241 28.9229L117.653 29.109L118.116 24.8435Z" fill="#ED73EE"/>
<path d="M117.741 26.7417C117.579 29.6449 117.491 31.7517 117.329 34.6549" stroke="#00113E" stroke-width="0.39" stroke-linecap="square" stroke-linejoin="round"/>
<path d="M132.341 77.2065C132.246 69.5985 130.701 50.5562 129.62 46.7596C129.583 46.6256 129.539 46.4842 129.495 46.3502C129.002 41.6529 126.486 37.4097 126.486 37.4097L117.189 37.9159C117.189 37.9159 115.785 41.2286 114.748 45.6281C114.659 45.9259 114.578 46.2236 114.505 46.5288C113.585 50.3626 112.82 69.4496 113.034 77.065C113.056 77.9062 114.49 78.9037 114.49 78.9037L114.35 80.9658L118.918 82.1048C118.918 82.1048 118.837 79.5961 118.874 79.5291C118.874 79.5291 120.47 78.7995 120.661 78.0253C121.97 72.6059 121.014 63.6282 121.33 62.3404C121.684 60.8887 122 55.1865 122.154 52.0748C122.412 55.0004 123.007 61.3131 123.441 62.8391C123.802 64.1195 123.221 73.127 124.751 78.4869C124.971 79.2536 126.597 79.9162 126.597 79.9162C126.634 79.9832 126.656 82.4919 126.656 82.4919L131.172 81.1593L130.951 79.1047C130.951 79.1047 132.341 78.0402 132.334 77.2065H132.341Z" fill="#6537D3"/>
<path d="M117.874 38.3105C117.197 40.7597 116.035 42.5314 115.461 46.0228C114.159 53.9434 113.835 66.1891 113.835 78.152" stroke="white" stroke-width="0.39" stroke-linecap="square" stroke-linejoin="round"/>
<path d="M126.185 37.7671C126.957 40.1865 128.289 43.8118 128.833 46.2014C131.135 56.4149 131.098 66.3678 131.591 78.3232" stroke="white" stroke-width="0.39" stroke-linecap="square" stroke-linejoin="round"/>
<path d="M104.671 13.4242C104.671 13.4242 105.097 13.3126 105.37 13.7667C105.642 14.2208 106.789 15.9851 106.789 15.9851L107.025 19.2903L105.767 19.7295L104.31 17.9652C104.31 17.9652 102.553 17.392 102.891 16.4243C102.891 16.4243 102.442 15.6724 103.053 15.4788C103.053 15.4788 103.185 14.66 103.612 14.6228C104.038 14.5855 105.752 15.6352 105.752 15.6352C105.752 15.6352 103.854 14.1761 104.664 13.4391L104.671 13.4242Z" fill="#FFA81F"/>
<path d="M108.091 18.4044C108.091 18.4044 108.106 16.6177 107.561 15.5085L106.282 13.7666C106.282 13.7666 105.973 13.7666 105.855 14.3473C105.73 14.98 106.274 15.8882 106.274 15.8882C106.164 16.2604 105.833 17.0197 106.017 17.6376C106.193 18.2555 106.922 18.8063 106.922 18.8063L108.084 18.4044H108.091Z" fill="#FFA81F"/>
<path d="M106.113 18.0547C105.892 17.3922 105.965 16.6254 106.311 16.0224C106.333 15.9852 106.355 15.948 106.348 15.9108C106.348 15.8736 106.311 15.8363 106.289 15.8066C105.921 15.3971 105.767 14.7941 105.87 14.2507C105.914 14.0497 106.002 13.8338 106.193 13.752" stroke="#FF7439" stroke-width="0.39" stroke-linecap="square" stroke-linejoin="round"/>
<path d="M122.353 13.4613C124.339 13.2379 125.633 14.2727 125.633 14.2727L126.553 15.4563C126.678 15.5233 126.509 16.5432 126.626 16.6251C126.7 16.6697 126.773 16.7218 126.81 16.8037C126.854 16.9005 126.803 17.0196 126.81 17.1313C126.832 17.8012 126.597 18.5829 125.935 18.9253C125.501 18.1883 125.398 17.1983 125.589 16.3496C125.067 16.1188 124.604 15.7392 124.302 15.2479C123.11 16.4985 121.139 16.9079 119.551 16.238C119.551 16.238 120.382 13.6846 122.368 13.4613H122.353Z" fill="#112445"/>
<path d="M109.452 6.5605C110.32 5.53319 112.357 5.54064 112.445 5.55553C112.445 5.55553 113.607 5.57041 115.373 5.74163C117.484 5.95007 117.984 6.99226 117.984 6.99226C118.388 7.63246 118.381 8.45133 118.344 9.21064C118.3 10.2975 118.197 11.4662 117.506 12.2925C117.189 12.6722 116.778 12.9402 116.336 13.1561C116.653 13.8856 117.278 14.4811 118.028 14.7194C117.373 15.1362 116.483 14.9948 115.829 14.5779C115.461 14.3397 115.145 14.027 114.865 13.6846C114.122 13.8782 113.107 13.7814 112.342 13.6995C111.173 13.5804 110.504 13.4017 109.864 12.6796C108.863 11.5556 108.856 10.5878 108.863 9.20319C108.863 8.33966 108.694 7.46125 109.444 6.5605H109.452Z" fill="#CCBFD5"/>
<path d="M115.262 10.2382C115.616 10.2382 115.902 9.9482 115.902 9.59052C115.902 9.23283 115.616 8.94287 115.262 8.94287C114.909 8.94287 114.622 9.23283 114.622 9.59052C114.622 9.9482 114.909 10.2382 115.262 10.2382Z" fill="#000E39"/>
<path d="M113.409 10.2382C113.762 10.2382 114.049 9.9482 114.049 9.59052C114.049 9.23283 113.762 8.94287 113.409 8.94287C113.055 8.94287 112.769 9.23283 112.769 9.59052C112.769 9.9482 113.055 10.2382 113.409 10.2382Z" fill="#000E39"/>
<path d="M110.989 9.59052C110.989 9.94784 111.276 10.2382 111.629 10.2382C111.982 10.2382 112.269 9.94784 112.269 9.59052C112.269 9.2332 111.982 8.94287 111.629 8.94287C111.276 8.94287 110.989 9.2332 110.989 9.59052Z" fill="#000E39"/>
</g>
</g>
</g>
<defs>
<clipPath id="clip0_1064_3342">
<rect width="49.0962" height="104.86" fill="white" transform="translate(99 -3)"/>
</clipPath>
</defs>
</svg>
