<svg width="24" height="24" viewBox="0 0 24 24" fill="none" xmlns="http://www.w3.org/2000/svg">
<path d="M5.81187 2C3.70663 2 2 3.70663 2 5.81188V15.9769C2 18.0821 3.70663 19.7887 5.81188 19.7887H10.3858C9.89856 18.8357 9.62375 17.756 9.62375 16.6122C9.62375 12.7526 12.7526 9.62375 16.6122 9.62375C17.756 9.62375 18.8357 9.89856 19.7887 10.3858V5.81187C19.7887 3.70663 18.0821 2 15.9769 2H5.81187ZM16.6122 22.33C19.77 22.33 22.33 19.77 22.33 16.6122C22.33 13.4543 19.77 10.8944 16.6122 10.8944C13.4543 10.8944 10.8944 13.4543 10.8944 16.6122C10.8944 19.77 13.4543 22.33 16.6122 22.33ZM18.9674 14.257C19.2155 14.5051 19.2155 14.9074 18.9674 15.1555L17.5107 16.6122L18.9674 18.0689C19.2155 18.317 19.2155 18.7193 18.9674 18.9674C18.7193 19.2155 18.317 19.2155 18.0689 18.9674L16.6122 17.5107L15.1555 18.9674C14.9074 19.2155 14.5051 19.2155 14.257 18.9674C14.0089 18.7193 14.0089 18.317 14.257 18.0689L15.7137 16.6122L14.257 15.1555C14.0089 14.9074 14.0089 14.5051 14.257 14.257C14.5051 14.0089 14.9074 14.0089 15.1555 14.257L16.6122 15.7137L18.0689 14.257C18.317 14.0089 18.7193 14.0089 18.9674 14.257Z" fill="#828B8C"/>
</svg>
