<svg width="19" height="19" viewBox="0 0 19 19" fill="none" xmlns="http://www.w3.org/2000/svg">
<path d="M16.1953 4.98487C13.6978 4.73737 11.1853 4.60986 8.68031 4.60986C7.19531 4.60986 5.71031 4.68486 4.22531 4.83486L2.69531 4.98487" stroke="#F31260" stroke-width="1.35" stroke-linecap="round" stroke-linejoin="round"/>
<path d="M6.82031 4.2275L6.98532 3.245C7.10532 2.53249 7.19532 2 8.46281 2H10.4278C11.6953 2 11.7928 2.5625 11.9053 3.25249L12.0703 4.2275" stroke="#F31260" stroke-width="1.35" stroke-linecap="round" stroke-linejoin="round"/>
<path d="M14.5836 7.35498L14.0961 14.9075C14.0136 16.0849 13.9461 17 11.8536 17H7.03859C4.94609 17 4.87859 16.0849 4.79609 14.9075L4.30859 7.35498" stroke="#F31260" stroke-width="1.35" stroke-linecap="round" stroke-linejoin="round"/>
<path d="M8.19141 12.875H10.6889" stroke="#F31260" stroke-width="1.35" stroke-linecap="round" stroke-linejoin="round"/>
<path d="M7.57031 9.875H11.3204" stroke="#F31260" stroke-width="1.35" stroke-linecap="round" stroke-linejoin="round"/>
</svg>
