<svg width="24" height="24" viewBox="0 0 24 24" fill="none" xmlns="http://www.w3.org/2000/svg">
<path d="M13 2.03003C17.73 2.50003 21.5 6.25003 21.9501 11C22.0818 12.3057 21.9547 13.6245 21.576 14.881C21.1973 16.1374 20.5744 17.3068 19.743 18.3221C18.9116 19.3374 17.888 20.1787 16.731 20.7978C15.5739 21.417 14.306 21.8017 13 21.93V19.93C16.64 19.5 19.5 16.61 19.96 12.97C20.0896 11.9272 20.0123 10.8691 19.7325 9.85616C19.4527 8.84326 18.9759 7.89545 18.3295 7.06697C17.683 6.23849 16.8796 5.54559 15.9651 5.02791C15.0506 4.51024 14.0431 4.17794 13 4.05003V2.03003ZM11 2.06003V4.06003C9.57005 4.26003 8.22005 4.84003 7.10005 5.74003L5.67005 4.26003C7.18676 3.01022 9.04336 2.24389 11 2.06003ZM4.26005 5.67003L5.69005 7.10003C4.80403 8.22973 4.23764 9.57663 4.05005 11H2.05005C2.25005 9.04003 3.00005 7.19003 4.26005 5.67003ZM2.06005 13H4.06005C4.24005 14.42 4.81005 15.77 5.69005 16.9L4.27005 18.33C3.02773 16.8079 2.25932 14.9547 2.06005 13ZM7.10005 18.37C8.23005 19.25 9.58005 19.82 11 20V22C9.04005 21.79 7.18005 21 5.67005 19.74L7.10005 18.37ZM12 16.5L7.50005 12H11V8.00003H13V12H16.5L12 16.5Z" fill="black"/>
</svg>
