<svg width="12" height="11" viewBox="0 0 12 11" fill="none" xmlns="http://www.w3.org/2000/svg">
<path d="M6 3.25C5.55499 3.25 5.11998 3.38196 4.74997 3.62919C4.37996 3.87643 4.09157 4.22783 3.92127 4.63896C3.75097 5.0501 3.70642 5.5025 3.79323 5.93895C3.88005 6.37541 4.09434 6.77632 4.40901 7.09099C4.72368 7.40566 5.12459 7.61995 5.56105 7.70677C5.9975 7.79358 6.4499 7.74903 6.86104 7.57873C7.27217 7.40843 7.62357 7.12004 7.87081 6.75003C8.11804 6.38002 8.25 5.94501 8.25 5.5C8.24938 4.90345 8.01213 4.33152 7.59031 3.9097C7.16848 3.48787 6.59655 3.25062 6 3.25ZM6 6.625C5.7775 6.625 5.55999 6.55902 5.37498 6.4354C5.18998 6.31179 5.04578 6.13609 4.96064 5.93052C4.87549 5.72495 4.85321 5.49875 4.89662 5.28052C4.94002 5.06229 5.04717 4.86184 5.2045 4.7045C5.36184 4.54717 5.56229 4.44002 5.78052 4.39662C5.99875 4.35321 6.22495 4.37549 6.43052 4.46064C6.63609 4.54578 6.81179 4.68998 6.9354 4.87498C7.05902 5.05999 7.125 5.2775 7.125 5.5C7.125 5.79837 7.00647 6.08452 6.7955 6.2955C6.58452 6.50647 6.29837 6.625 6 6.625ZM8.25 0.4375H3.75C3.00435 0.438368 2.28948 0.734963 1.76222 1.26222C1.23496 1.78948 0.938368 2.50435 0.9375 3.25V7.75C0.938368 8.49566 1.23496 9.21052 1.76222 9.73778C2.28948 10.265 3.00435 10.5616 3.75 10.5625H8.25C8.99566 10.5616 9.71052 10.265 10.2378 9.73778C10.765 9.21052 11.0616 8.49566 11.0625 7.75V3.25C11.0616 2.50435 10.765 1.78948 10.2378 1.26222C9.71052 0.734963 8.99566 0.438368 8.25 0.4375ZM9.9375 7.75C9.9375 8.19755 9.75971 8.62677 9.44324 8.94324C9.12677 9.25971 8.69755 9.4375 8.25 9.4375H3.75C3.30245 9.4375 2.87322 9.25971 2.55676 8.94324C2.24029 8.62677 2.0625 8.19755 2.0625 7.75V3.25C2.0625 2.80245 2.24029 2.37322 2.55676 2.05676C2.87322 1.74029 3.30245 1.5625 3.75 1.5625H8.25C8.69755 1.5625 9.12677 1.74029 9.44324 2.05676C9.75971 2.37322 9.9375 2.80245 9.9375 3.25V7.75ZM9.1875 3.0625C9.1875 3.21084 9.14351 3.35584 9.0611 3.47918C8.97869 3.60251 8.86156 3.69864 8.72451 3.75541C8.58747 3.81218 8.43667 3.82703 8.29118 3.79809C8.1457 3.76915 8.01206 3.69772 7.90717 3.59283C7.80228 3.48794 7.73085 3.3543 7.70191 3.20882C7.67297 3.06333 7.68782 2.91253 7.74459 2.77549C7.80136 2.63844 7.89749 2.52131 8.02082 2.4389C8.14416 2.35649 8.28916 2.3125 8.4375 2.3125C8.63641 2.3125 8.82718 2.39152 8.96783 2.53217C9.10848 2.67282 9.1875 2.86359 9.1875 3.0625Z" fill="#393F44"/>
</svg>
