<svg width="187" height="187" viewBox="0 0 187 187" fill="none" xmlns="http://www.w3.org/2000/svg">
<mask id="mask0_915_3659" style="mask-type:alpha" maskUnits="userSpaceOnUse" x="0" y="0" width="187" height="187">
<circle cx="93.5" cy="93.5" r="93.5" fill="#D9D9D9"/>
</mask>
<g mask="url(#mask0_915_3659)">
<path d="M138.46 180.6L125.97 180.91L127.2 201.47L139.75 200.46L138.46 180.6Z" fill="#5AC4FF"/>
<path d="M152.19 178.17L165.78 177.1L169.77 200.96L155.98 201.18L152.19 178.17Z" fill="#5AC4FF"/>
<path d="M169.04 190.72C169.04 190.72 154.33 115.64 153.73 112.99C151.36 102.5 144.41 90.6902 142.2 87.6502C141.87 87.1902 141.29 86.9802 140.74 87.1102L133.4 88.8402C133.19 88.8902 132.97 88.8902 132.76 88.8402L125.42 87.1102C124.87 86.9802 118.85 86.9902 118.52 87.4502C116.31 90.4802 116.72 103.55 116.67 111.45C116.6 121.11 126.39 191.91 126.39 191.91L139.87 191.72L135.8 118.53L154.41 193.57L169.06 190.74L169.04 190.72Z" fill="#6537D3"/>
<path d="M131.75 46.7802L131.64 56.6702L143.01 56.8102L143.6 40.2402L131.75 46.7802Z" fill="#FFA81F"/>
<path d="M125.84 28.0802C125.78 28.3002 125.07 37.9202 125.32 40.2302C125.57 42.5302 127.51 46.4202 131.98 46.7902C137.36 47.2302 143.93 40.6702 143.93 40.6702L144.1 25.6202C144.1 25.6202 141.28 20.1702 134.84 20.1502C128.4 20.1302 125.84 28.0902 125.84 28.0902V28.0802Z" fill="#FFA81F"/>
<path d="M134.78 30.2501C134.65 30.0101 134.82 29.6301 135.28 29.3101C135.73 28.9901 136.45 28.7601 137.25 28.7701C138.05 28.7701 138.78 29.0301 139.23 29.3801C139.68 29.7301 139.83 30.1201 139.68 30.3601C139.53 30.6001 139.19 30.6801 138.78 30.7401C138.36 30.7901 137.83 30.8001 137.23 30.8001C136.63 30.8001 136.09 30.7701 135.66 30.7001C135.24 30.6301 134.9 30.5201 134.77 30.2701L134.78 30.2501Z" fill="#000E39"/>
<path d="M131.2 34.75C130.81 35.35 130.45 35.97 130.1 36.59C130.01 36.76 129.91 36.96 129.98 37.14C130.04 37.29 130.19 37.38 130.33 37.45C130.69 37.63 131.06 37.76 131.45 37.85" stroke="#000E39" stroke-width="0.79" stroke-linecap="square" stroke-linejoin="round"/>
<path d="M142.64 35.3102C142.71 34.1202 144.57 33.3802 145.76 33.3102C146.95 33.2402 148.11 34.0302 148.6 35.1302C149.09 36.2202 148.93 37.5402 148.31 38.5702C147.69 39.5902 146.65 40.3202 145.51 40.6902C144.37 41.0602 143.14 41.0802 141.96 40.8902L142.63 35.3102H142.64Z" fill="#FFA81F"/>
<path d="M139.85 43.8C139.85 43.8 138.93 48.88 131.73 49.17L131.76 46.7701C133.18 46.8201 136.51 46.34 139.86 43.8H139.85Z" fill="#000E39"/>
<path d="M126.1 29.87C126.06 29.6 126.23 29.31 126.6 29.1C126.96 28.89 127.52 28.78 128.11 28.87C128.7 28.96 129.2 29.23 129.49 29.54C129.78 29.85 129.86 30.18 129.74 30.42C129.62 30.67 129.33 30.81 128.98 30.87C128.63 30.93 128.23 30.93 127.8 30.87C127.37 30.81 126.99 30.69 126.68 30.52C126.37 30.36 126.14 30.14 126.09 29.86L126.1 29.87Z" fill="#000E39"/>
<path d="M145.82 24.4601C146.25 23.1401 145.94 21.6101 145.04 20.5601C144.14 19.5101 142.68 18.9701 141.31 19.1901C140.7 19.2901 140.09 19.5201 139.49 19.3701C138.76 19.1901 138.29 18.5001 137.71 18.0101C136.76 17.2201 135.37 16.9901 134.22 17.4201C133.32 17.7601 132.45 18.4801 131.51 18.2701C130.5 18.0501 130.01 16.8801 129.13 16.3301C127.95 15.5801 126.25 16.1701 125.5 17.3601C124.75 18.5401 124.82 20.1001 125.32 21.4001C124.41 20.7101 122.95 21.3301 122.55 22.4001C122.15 23.4701 122.45 24.9601 123.23 25.7901C123.99 26.6001 124.95 27.2801 125.95 27.7701C125.96 27.7401 125.97 27.7101 125.99 27.6801C130.41 29.4301 135.84 28.3201 139.18 24.9301C140.03 26.3101 141.32 27.4001 142.81 28.0601C142.24 30.4401 142.51 33.2101 143.71 35.2901C144.55 34.8701 145.15 34.1801 145.55 33.3901C146.03 33.2701 146.61 33.3201 147.31 33.7001C147.31 33.7001 147.92 31.2001 148.05 29.3301C148.18 27.4601 147.4 25.4701 145.82 24.4601Z" fill="#000E39"/>
<path d="M143.98 35.87C144.3 35.52 144.7 35.22 145.15 35.06C145.6 34.9 146.11 34.89 146.55 35.08C147.25 35.39 147.65 36.23 147.54 36.99C147.43 37.75 146.86 38.41 146.16 38.72C145.45 39.03 144.63 39.02 143.9 38.78" stroke="#000E39" stroke-width="0.79" stroke-linecap="square" stroke-linejoin="round"/>
<path d="M131.28 40.2601C131.9 39.6801 132.64 39.2301 133.44 38.9601C133.84 38.8201 134.31 38.7401 134.66 38.9601C134.9 39.1101 135.04 39.3801 135.08 39.6601C135.18 40.3601 134.65 41.0601 133.98 41.2901C133.31 41.5201 132.52 41.4201 131.89 41.0801C131.64 40.9501 131.28 40.5401 131.27 40.2601" fill="white"/>
<path d="M125.58 31.4602C125.58 31.4602 126.17 31.3602 126.61 31.4602C129.71 32.0802 130.19 34.3102 130.19 34.3102C130.19 34.3102 129.03 35.5202 126.5 35.1402C126.02 35.0702 125.85 34.9902 125.43 34.8002L125.58 31.4802V31.4602Z" fill="white"/>
<path d="M140.93 33.5901C140.93 33.5901 139.81 31.5901 136.7 32.1201C133.59 32.6501 133.28 34.8001 133.28 34.8001C133.28 34.8001 135.44 36.2701 137.69 35.7701C140.2 35.2101 140.93 33.6001 140.93 33.6001V33.5901Z" fill="white"/>
<mask id="mask1_915_3659" style="mask-type:luminance" maskUnits="userSpaceOnUse" x="133" y="32" width="8" height="4">
<path d="M140.87 33.5901C140.87 33.5901 139.75 31.5901 136.64 32.1201C133.53 32.6501 133.22 34.8001 133.22 34.8001C133.22 34.8001 135.38 36.3001 137.63 35.8001C140.14 35.2401 140.87 33.6001 140.87 33.6001V33.5901Z" fill="white"/>
</mask>
<g mask="url(#mask1_915_3659)">
<path d="M137.73 35.1202C137.73 36.4802 136.63 37.5802 135.27 37.5902C133.91 37.5902 132.81 36.4902 132.8 35.1302C132.8 33.7702 133.8 32.0002 135.16 32.0002C136.52 32.0002 137.72 33.7702 137.72 35.1302L137.73 35.1202Z" fill="#000E39"/>
</g>
<mask id="mask2_915_3659" style="mask-type:luminance" maskUnits="userSpaceOnUse" x="125" y="31" width="6" height="5">
<path d="M125.58 31.4602C125.58 31.4602 126.17 31.3602 126.61 31.4602C129.71 32.0802 130.19 34.3102 130.19 34.3102C130.19 34.3102 129.03 35.5202 126.5 35.1402C126.02 35.0702 125.81 34.9802 125.4 34.7802L125.59 31.4702L125.58 31.4602Z" fill="white"/>
</mask>
<g mask="url(#mask2_915_3659)">
<path d="M128.47 34.9902C128.47 36.3502 127.37 37.4502 126.01 37.4602C124.65 37.4602 123.55 36.3602 123.54 35.0002C123.54 33.6402 124.38 31.4902 125.74 31.4902C127.1 31.4902 128.47 33.6402 128.47 35.0002V34.9902Z" fill="#000E39"/>
</g>
<path d="M92.8601 71.9601L103.93 84.3701L110.55 67.3701L120.4 72.4701L112.1 92.0101C111.28 93.7401 110.04 95.2401 108.43 96.2801C106.7 97.4001 104.38 98.1401 102.02 96.6701C97.3201 93.7201 86.6201 76.3701 86.6201 76.3701L92.8501 71.9601H92.8601Z" fill="#FFA81F"/>
<path d="M105.12 89.4202C105.49 87.5302 105.01 85.4902 103.83 83.9702" stroke="#000E39" stroke-width="0.79" stroke-linecap="square" stroke-linejoin="round"/>
<path d="M150.88 76.0201L162.39 75.5301C161.98 74.2901 158.48 61.9301 157.79 60.8101C155 56.3201 148.44 54.8401 143.18 54.2901L131.64 53.3901L123.24 54.0201C119.16 54.3301 115.54 56.7301 113.67 60.3601C113.3 61.0901 112.97 61.7501 112.72 62.2601C110.4 67.0501 107.98 72.9201 107.98 72.9201L118.19 74.2901L115.09 104.54L151.33 104.56L151.23 100.31L150.87 76.0201H150.88Z" fill="#000E39"/>
<path d="M150.99 83.6401L150.96 64.6201" stroke="#000E39" stroke-width="0.79" stroke-linecap="square" stroke-linejoin="round"/>
<path d="M117.46 79.4902C117.46 79.4902 119.22 66.9502 119.92 61.9802" stroke="#000E39" stroke-width="0.79" stroke-linecap="square" stroke-linejoin="round"/>
<path d="M129.97 53.9102L131.72 51.3702L137.47 53.6502L143.37 51.2402L144.58 54.4602L137.03 56.8502L129.97 53.9102Z" fill="#000E39"/>
<path d="M130.26 53.4902L135.18 57.1902L137.45 53.7802" stroke="white" stroke-width="0.79" stroke-linecap="square" stroke-linejoin="round"/>
<path d="M144.44 54.38L139.69 57.19L137.42 53.78" stroke="white" stroke-width="0.79" stroke-linecap="square" stroke-linejoin="round"/>
<path d="M137.47 53.9502C136.9 57.8902 136.11 66.7602 136.09 66.9302" stroke="white" stroke-width="0.79" stroke-linecap="square" stroke-linejoin="round"/>
<path d="M139.19 61.34C139.13 61.75 138.75 62.03 138.35 61.97C137.94 61.91 137.66 61.53 137.72 61.13C137.78 60.72 138.16 60.44 138.56 60.5C138.97 60.56 139.25 60.94 139.19 61.34Z" fill="white"/>
<path d="M138.69 64.7702C138.63 65.1802 138.25 65.4602 137.85 65.4002C137.44 65.3402 137.16 64.9602 137.22 64.5602C137.28 64.1502 137.66 63.8702 138.06 63.9302C138.47 63.9902 138.75 64.3702 138.69 64.7702Z" fill="white"/>
<path d="M128.42 79.4601C128.17 78.4701 128.93 77.6101 128.93 77.6101C128.93 77.6101 128.46 77.2301 128.59 76.6801C128.72 76.1301 129.51 75.2101 129.51 75.2101C129.51 75.2101 128.72 74.4701 129.18 73.6801C129.64 72.8901 131.1 72.4001 131.1 72.4001C131.1 72.4001 125.7 69.9601 124.73 69.3201C123.76 68.6801 124.01 67.5701 125.2 67.2101C126.26 66.8801 133.8 69.9401 135.35 70.5701C135.53 70.6401 135.63 70.6801 135.63 70.6801L140.19 75.6301C140.19 75.6301 138.46 82.5501 137.89 82.9801C137.32 83.4101 129.4 80.8501 129.4 80.8501C129.4 80.8501 128.67 80.4401 128.42 79.4501V79.4601Z" fill="#FFA81F"/>
<path d="M141.95 76.2401L140.34 72.9301C139.92 72.0801 139.3 71.3401 138.52 70.8001C137.24 69.9101 135.65 69.5901 134.12 69.9301L131.22 70.5701C131.22 70.5701 130.56 71.9701 132.91 72.2101C135.26 72.4601 135.65 72.7601 135.65 72.7601C135.65 72.7601 136.17 76.4301 138.52 77.8901L141.93 76.2401H141.95Z" fill="#FFA81F"/>
<path d="M163.3 91.3802L161.56 75.5702L151.24 75.9802L152.21 84.8902L141.05 75.4902L135.89 81.9902C135.89 81.9902 146.22 93.5902 152.87 98.1102C154.58 99.2702 156.7 99.7302 158.7 99.2102C160.98 98.6202 163.39 96.7302 163.29 91.3902L163.3 91.3802Z" fill="#FFA81F"/>
<path d="M152.12 84.76C154.06 86.27 155.93 87.89 157.7 89.6" stroke="#000E39" stroke-width="0.79" stroke-linecap="square" stroke-linejoin="round"/>
<path d="M133.56 69.8801C134 70.0301 134.7 70.4001 135.18 70.6201C136.29 71.1201 137.19 71.6201 138.08 72.4501" stroke="#000E39" stroke-width="0.79" stroke-linecap="square" stroke-linejoin="round"/>
<path d="M84.25 60.0901C84.25 60.0901 85.45 59.7901 86.22 61.0201C86.99 62.2501 90.22 67.0501 90.22 67.0501L90.89 76.0401L87.34 77.2401L83.24 72.4301C83.24 72.4301 78.29 70.8701 79.24 68.2301C79.24 68.2301 77.98 66.1901 79.69 65.6501C79.69 65.6501 80.07 63.4201 81.27 63.3101C82.48 63.2001 87.3 66.0601 87.3 66.0601C87.3 66.0601 81.95 62.0901 84.24 60.0901H84.25Z" fill="#FFA81F"/>
<path d="M93.88 73.66C93.88 73.66 93.91 68.8 92.39 65.78L88.79 61.03C88.79 61.03 87.91 61.03 87.6 62.6C87.25 64.32 88.78 66.8 88.78 66.8C88.47 67.81 87.54 69.88 88.05 71.56C88.56 73.24 90.6 74.74 90.6 74.74L93.88 73.65V73.66Z" fill="#FFA81F"/>
<path d="M88.31 72.7002C87.69 70.8902 87.9 68.8102 88.86 67.1602C88.92 67.0602 88.98 66.9602 88.96 66.8502C88.95 66.7402 88.86 66.6502 88.79 66.5702C87.76 65.4502 87.31 63.8202 87.62 62.3302C87.74 61.7702 88 61.1802 88.53 60.9702" stroke="#000E39" stroke-width="0.79" stroke-linecap="square" stroke-linejoin="round"/>
<path d="M68.41 119.58C68.38 119.94 65.58 125.29 66.94 128.74C68.29 132.2 70.09 134.61 70.09 134.61L70.71 134.46C71.12 133.52 71.21 132.48 70.96 131.49L70.23 128.62L71.8 131.64V135.04C71.8 135.04 71.8 135.2 71.85 135.44C72.04 136.7 73.13 137.64 74.41 137.64H76.03C76.03 137.64 76.78 137.38 77.27 134.9C77.48 133.82 77.13 127.86 77.08 127.68C77.03 127.5 74.88 119.85 74.85 119.71C74.82 119.58 68.41 119.57 68.41 119.57V119.58Z" fill="#7F3119"/>
<path d="M74.08 137.66C73.79 136.29 74.2 134.87 74.38 133.48C74.62 131.62 74.43 129.7 73.71 127.96" stroke="#00113E" stroke-width="0.8" stroke-linecap="square" stroke-linejoin="round"/>
<path d="M75.68 137.66C75.92 136.07 76.16 134.47 76.21 132.86C76.26 131.25 76.12 129.62 75.61 128.09" stroke="#00113E" stroke-width="0.8" stroke-linecap="square" stroke-linejoin="round"/>
<path d="M70.41 129.22C69.93 127.74 69.35 126.29 68.69 124.88" stroke="#00113E" stroke-width="0.8" stroke-linecap="square" stroke-linejoin="round"/>
<path d="M60.27 95.7099L70.13 93.62L65.96 74.45L55.41 76.16L60.27 95.7099Z" fill="#7F3119"/>
<path d="M68.29 122.55L75.16 121.38L70.13 93.6199L60.27 95.7099L68.29 122.55Z" fill="#7F3119"/>
<path d="M40.3 179.71L52.96 179.91L52.23 200.79L39.56 199.77L40.3 179.71Z" fill="#7F3119"/>
<path d="M27 177.26L13.28 176.19L9.25 200.27L23.18 200.5L27 177.26Z" fill="#7F3119"/>
<path d="M49.36 19.1601C50.39 19.6601 50.64 19.4401 52.31 20.9201C53.58 22.0401 54.49 23.6701 55.3 25.6701C56.77 29.3101 57.67 42.7101 58.6 49.0001C59.76 56.7801 59.31 55.3201 59.76 58.7701L44.95 56.7801L43.09 19.7001C43.74 19.3301 48.68 18.8301 49.35 19.1501L49.36 19.1601Z" fill="#000E39"/>
<path d="M48.83 45.16L48.86 54.67L52.6 68.82L37.93 54.71L37.49 38.77L48.83 45.16Z" fill="#7F3119"/>
<path d="M54.63 27.2101C54.68 27.4201 55.29 36.6801 55.04 38.9001C54.78 41.1101 52.88 44.8401 48.59 45.1501C43.41 45.5301 37.15 39.1701 37.15 39.1701L37.1 24.6901C37.1 24.6901 39.85 19.4701 46.05 19.5001C52.25 19.5301 54.64 27.2101 54.64 27.2101H54.63Z" fill="#7F3119"/>
<path d="M54.88 29.7802C54.88 29.7802 54.31 29.6902 53.89 29.7802C50.91 30.3802 50.45 32.5202 50.45 32.5202C50.45 32.5202 51.56 33.6902 54 33.3102C54.46 33.2402 54.63 33.1602 55.02 32.9802L54.87 29.7802H54.88Z" fill="white"/>
<path d="M46.91 27.7501C46.99 27.6001 46.81 27.3101 46.37 27.0601C45.94 26.8101 45.28 26.6201 44.54 26.6201C43.8 26.6201 43.13 26.8201 42.7 27.0801C42.27 27.3501 42.1 27.6501 42.19 27.8001C42.29 27.9601 42.58 27.9601 42.99 27.9501C43.4 27.9401 43.94 27.9101 44.55 27.9101C45.77 27.8901 46.73 28.0501 46.91 27.7401V27.7501Z" fill="#000E39"/>
<path d="M49.46 33.5901C49.83 34.1701 50.18 34.7701 50.5 35.3701C50.59 35.5301 50.68 35.7301 50.61 35.9001C50.55 36.0401 50.41 36.1301 50.27 36.2001C49.93 36.3701 49.56 36.4901 49.19 36.5801" stroke="#000E39" stroke-width="0.8" stroke-linecap="square" stroke-linejoin="round"/>
<path d="M41.07 42.2202C41.07 42.2202 41.92 47.1102 48.84 47.4502V45.1402C47.46 45.1802 44.27 44.6802 41.07 42.2202Z" fill="#000E39"/>
<path d="M54.5 27.6101C54.53 27.4401 54.35 27.2401 54.01 27.1001C53.67 26.9601 53.16 26.8901 52.62 26.9601C52.07 27.0401 51.61 27.2501 51.32 27.4901C51.03 27.7201 50.92 27.9601 50.99 28.1201C51.16 28.4401 51.93 28.3601 52.8 28.2401C53.66 28.1101 54.43 27.9701 54.5 27.6101Z" fill="#000E39"/>
<path d="M40.12 31.85C40.12 31.85 41.19 29.92 44.19 30.43C47.19 30.94 47.48 33 47.48 33C47.48 33 45.41 34.41 43.24 33.94C40.82 33.41 40.12 31.86 40.12 31.86V31.85Z" fill="white"/>
<mask id="mask3_915_3659" style="mask-type:luminance" maskUnits="userSpaceOnUse" x="40" y="30" width="8" height="5">
<path d="M40.12 31.85C40.12 31.85 41.19 29.92 44.19 30.43C47.19 30.94 47.48 33 47.48 33C47.48 33 45.41 34.41 43.24 33.94C40.82 33.41 40.12 31.86 40.12 31.86V31.85Z" fill="white"/>
</mask>
<g mask="url(#mask3_915_3659)">
<path d="M41.98 33.6999C41.98 35.0099 43.04 36.0699 44.35 36.0699C45.66 36.0699 46.72 35.0099 46.72 33.6999C46.72 32.3899 45.75 30.6899 44.44 30.6899C43.13 30.6899 41.98 32.3899 41.98 33.6999Z" fill="#000E39"/>
</g>
<mask id="mask4_915_3659" style="mask-type:luminance" maskUnits="userSpaceOnUse" x="50" y="29" width="6" height="5">
<path d="M54.88 29.7802C54.88 29.7802 54.31 29.6902 53.89 29.7802C50.91 30.3802 50.45 32.5202 50.45 32.5202C50.45 32.5202 51.56 33.6902 54 33.3102C54.46 33.2402 54.63 33.1602 55.02 32.9802L54.87 29.7802H54.88Z" fill="white"/>
</mask>
<g mask="url(#mask4_915_3659)">
<path d="M50.36 33.8903C50.36 35.2003 51.42 36.2603 52.73 36.2603C54.04 36.2603 55.1 35.2003 55.1 33.8903C55.1 32.5803 54.29 30.5103 52.98 30.5103C51.67 30.5103 50.36 32.5803 50.36 33.8903Z" fill="#000E39"/>
</g>
<path d="M38.45 34.0402C38.39 32.8902 36.61 32.1702 35.46 32.0902C34.31 32.0202 33.19 32.7702 32.71 33.8102C32.23 34.8602 32.37 36.1302 32.96 37.1202C33.55 38.1102 34.54 38.8202 35.63 39.1802C36.72 39.5402 37.9 39.5702 39.04 39.4002L38.44 34.0302L38.45 34.0402Z" fill="#7F3119"/>
<path d="M37.43 34.5702C37.12 34.2302 36.75 33.9402 36.32 33.7802C35.89 33.6202 35.4 33.6102 34.97 33.7902C34.29 34.0902 33.9 34.8902 34 35.6202C34.1 36.3502 34.64 36.9902 35.32 37.3002C36 37.6002 36.79 37.6002 37.5 37.3802" stroke="#000E39" stroke-width="0.8" stroke-linecap="square" stroke-linejoin="round"/>
<path d="M48.94 37.9901C48.35 37.4301 47.65 36.9901 46.88 36.7201C46.5 36.5801 46.05 36.5001 45.7 36.7101C45.47 36.8501 45.33 37.1101 45.28 37.3801C45.17 38.0601 45.68 38.7301 46.32 38.9601C46.96 39.1901 47.72 39.1002 48.33 38.7802C48.57 38.6502 48.93 38.2601 48.93 37.9901" fill="white"/>
<path d="M52.77 23.0701C52.77 23.0701 51.44 20.4301 49.36 19.1601C49.36 19.1601 42.29 16.5301 37.49 19.3401C32.68 22.1601 31.94 27.0901 31.12 30.6201C30.31 34.1501 27.47 58.41 27.47 58.41L38.06 53.9001L37.66 39.0501C38.64 32.2801 36.37 30.1301 41.11 26.6601L52.76 23.0601L52.77 23.0701Z" fill="#000E39"/>
<path d="M49.91 32.43C49.91 34.59 51.66 36.35 53.82 36.35C55.98 36.35 57.74 34.6 57.74 32.43C57.74 30.26 55.99 28.52 53.82 28.52C51.65 28.52 49.91 30.27 49.91 32.43Z" stroke="#ED73EE" stroke-width="0.8" stroke-linecap="square" stroke-linejoin="round"/>
<path d="M40.4399 32.43C40.4399 34.59 42.1899 36.35 44.3499 36.35C46.5099 36.35 48.2599 34.6 48.2599 32.43C48.2599 30.26 46.5099 28.52 44.3499 28.52C42.1899 28.52 40.4399 30.27 40.4399 32.43Z" stroke="#ED73EE" stroke-width="0.8" stroke-linecap="square" stroke-linejoin="round"/>
<path d="M49.8999 32.09C49.6799 31.84 49.4299 31.71 49.0699 31.71C48.7299 31.71 48.4999 31.88 48.3199 32.09" stroke="#ED73EE" stroke-width="0.8" stroke-linecap="square" stroke-linejoin="round"/>
<path d="M40.44 31.8101C39.03 31.9801 38.28 32.2601 36.87 32.4301" stroke="#ED73EE" stroke-width="0.8" stroke-linecap="square" stroke-linejoin="round"/>
<path d="M5.85998 183.7C7.77998 181.82 10.09 180.1 10.94 177.54C12.09 174.06 10.15 170.11 11.35 166.65C12.27 164.02 14.81 162.26 15.99 159.74C16.98 157.62 16.92 155.19 17.06 152.86C17.43 146.59 19.37 140.58 21.72 134.71C23.59 123.42 24.85 114.12 25.45 111.44C27.84 100.85 34.86 88.9202 37.1 85.8602C37.44 85.4002 38.02 85.1802 38.57 85.3102L45.98 87.0502C46.19 87.1002 46.42 87.1002 46.63 87.0502L54.04 85.3102C54.6 85.1802 55.17 85.3902 55.51 85.8502C57.74 88.9102 62.83 101.9 62.88 109.88C62.95 119.63 56.94 191.22 56.94 191.22L34.57 190.97L46.09 115.59C46.19 114.93 46.24 114.26 46.23 113.6L46.21 112.01C46.21 112.01 46.2 112.03 46.18 112.06C45.54 113.13 45.07 114.3 44.8 115.52L32.31 190.8H7.82998C7.82998 190.8 7.82998 190.78 7.84998 190.75C6.24998 190.77 4.64998 190.79 3.04998 190.8C2.22998 188.24 3.93998 185.57 5.85998 183.68V183.7Z" fill="#000E39"/>
<path d="M22.83 73.5901L25.83 59.2201C25.83 59.2201 26.78 53.6401 33.37 54.0901L46.74 52.7001L55.14 51.8501C55.14 51.8501 59.94 52.3001 61.96 56.5901C63.92 60.7501 70.07 72.7401 70.07 72.7401C70.07 72.7401 60.76 80.4201 60.01 80.4201C59.67 85.8601 59.38 90.6501 59.38 90.6501L32.44 89.7801L32.69 73.9501L22.84 73.5901H22.83Z" fill="#FFA81F"/>
<path d="M59.37 90.6599C59.91 81.8799 60.38 70.7299 59.97 61.9399" stroke="#000E39" stroke-width="0.8" stroke-linecap="square" stroke-linejoin="round"/>
<path d="M32.43 85.28C32.3 78.84 32.48 65.85 32.93 59.76" stroke="#000E39" stroke-width="0.8" stroke-linecap="square" stroke-linejoin="round"/>
<path d="M32.68 73.9501L23.98 73.6301C23.98 73.6301 23.74 90.6401 24.34 94.8401C24.72 97.4801 28.42 100.77 32.43 98.9101C36.43 97.0501 45.4 80.3501 45.4 80.3501L40.12 76.1801L32.43 85.2901L32.68 73.9501Z" fill="#7F3119"/>
<path d="M54.64 81.3H43.8C43.06 81.3 42.46 80.7 42.46 79.96V58.94C42.46 58.2 43.06 57.6 43.8 57.6H54.64C55.38 57.6 55.98 58.2 55.98 58.94V79.96C55.98 80.7 55.38 81.3 54.64 81.3Z" fill="#000E39"/>
<path d="M42.46 67.4801C42.46 67.4801 42.02 67.6801 40.75 69.8401C39.48 72.0101 39.03 74.3001 39.48 76.3401C39.93 78.3801 40.74 81.3001 40.74 81.3001H44.37C44.37 81.3001 53.74 75.9601 53.74 74.8101C53.74 73.6601 51.89 74.6801 51.89 74.6801C51.89 74.6801 53.83 73.4801 53.74 72.8301C53.7 72.5501 53.47 72.0801 52.83 72.0701C51.64 72.0501 49.51 73.3901 48.58 73.7101C48.01 73.9001 47.96 73.0601 47.96 73.0601L54.58 68.3101C54.58 68.3101 54.58 67.2901 52.61 67.4801C50.64 67.6701 46.95 70.4101 46.95 70.4101L50.82 64.6201C50.82 64.6201 49.89 63.5401 48.19 65.0001C46.49 66.4601 42.48 72.3201 42.48 72.3201V67.4701L42.46 67.4801Z" fill="#7F3119"/>
<path d="M48.45 60.15C48.45 60.63 48.84 61.01 49.31 61.01C49.78 61.01 50.1699 60.62 50.1699 60.15C50.1699 59.68 49.78 59.29 49.31 59.29C48.84 59.29 48.45 59.68 48.45 60.15Z" fill="white"/>
</g>
</svg>
