<svg width="14" height="14" viewBox="0 0 14 14" fill="none" xmlns="http://www.w3.org/2000/svg">
<path d="M6.61468 8.10526C6.61468 7.67895 6.64798 7.37232 6.71459 7.18537C6.78119 6.99842 6.9222 6.79453 7.13761 6.57368C7.32569 6.38421 7.46908 6.21968 7.5678 6.0801C7.66651 5.94053 7.71578 5.78137 7.7156 5.60263C7.7156 5.38684 7.65257 5.20789 7.52651 5.06579C7.40046 4.92368 7.22495 4.85263 7 4.85263C6.76605 4.85263 6.58826 4.93421 6.46661 5.09737C6.34495 5.26053 6.25908 5.42632 6.20899 5.59474L5.5 5.24737C5.59633 4.91053 5.77294 4.61842 6.02982 4.37105C6.2867 4.12368 6.61009 4 7 4C7.48165 4 7.85211 4.154 8.11138 4.462C8.37064 4.77 8.50018 5.13968 8.5 5.57105C8.5 5.83421 8.45073 6.05926 8.3522 6.24621C8.25367 6.43316 8.09881 6.64495 7.88761 6.88158C7.66284 7.12895 7.52642 7.31716 7.47835 7.44621C7.43027 7.57526 7.40615 7.79495 7.40596 8.10526H6.61468ZM7 10C6.84862 10 6.71908 9.9381 6.61138 9.81432C6.50367 9.69053 6.44972 9.54189 6.44954 9.36842C6.44954 9.19474 6.50349 9.046 6.61138 8.92221C6.71927 8.79842 6.84881 8.73663 7 8.73684C7.15138 8.73684 7.28101 8.79874 7.3889 8.92253C7.49679 9.04631 7.55064 9.19495 7.55046 9.36842C7.55046 9.5421 7.49651 9.69084 7.38862 9.81463C7.28073 9.93842 7.15119 10.0002 7 10Z" fill="black" fill-opacity="0.5"/>
<rect x="0.5" y="0.5" width="13" height="13" rx="6.5" stroke="black" stroke-opacity="0.5"/>
</svg>
