<svg width="137" height="114" viewBox="0 0 137 114" fill="none" xmlns="http://www.w3.org/2000/svg">
<g clip-path="url(#clip0_209_33)">
<path d="M131.645 15.9584L125.487 18.1086L129.758 23.0787L123.36 21.8212L124.603 28.2845L119.681 23.9715L117.551 30.1895L115.425 23.9715L110.503 28.2814L111.745 21.8212L105.347 23.0755L109.619 18.1086L103.461 15.9584L109.619 13.8113L105.347 8.84126L111.745 10.0956L110.503 3.63544L115.425 7.94533L117.551 1.72726L119.681 7.94533L124.603 3.63544L123.36 10.0956L129.758 8.84126L125.487 13.8113L131.645 15.9584Z" fill="#D90429"/>
<path d="M119.351 23.772V70.4327C119.351 73.6612 116.761 76.2798 113.564 76.2798H67.3544C64.1571 76.2798 61.5669 73.6612 61.5669 70.4327V23.772C61.5669 20.5435 64.1571 17.928 67.3544 17.928H113.564C116.761 17.928 119.351 20.5435 119.351 23.772Z" fill="black"/>
<path d="M111.391 17.928V62.3913C111.391 65.6229 108.797 68.2384 105.6 68.2384H67.3544C64.1571 68.2384 61.5669 65.6229 61.5669 62.3913V23.772C61.5669 20.5435 64.1571 17.928 67.3544 17.928H111.391Z" stroke="white" stroke-miterlimit="10"/>
<path d="M110.099 66.0725L117.931 74.2679" stroke="white" stroke-miterlimit="10"/>
<path d="M18.8256 74.2584C29.2227 74.2584 37.6512 65.7476 37.6512 55.249C37.6512 44.7504 29.2227 36.2396 18.8256 36.2396C8.4285 36.2396 0 44.7504 0 55.249C0 65.7476 8.4285 74.2584 18.8256 74.2584Z" fill="black"/>
<path d="M86.0523 101.19C83.6738 96.2354 78.428 92.79 72.3292 92.79C66.2305 92.79 60.9847 96.2354 58.6062 101.19C60.9847 106.144 66.2305 109.589 72.3292 109.589C78.428 109.589 83.6738 106.144 86.0523 101.19Z" fill="#231F20"/>
<path d="M72.1424 108.744C76.1159 108.744 79.337 105.491 79.337 101.479C79.337 97.4667 76.1159 94.2141 72.1424 94.2141C68.1689 94.2141 64.9478 97.4667 64.9478 101.479C64.9478 105.491 68.1689 108.744 72.1424 108.744Z" fill="#6DC065"/>
<path d="M11.6535 111.697L18.4208 64.2083C18.9812 60.4014 20.6032 56.8334 23.0938 53.9193L43.3514 30.2227C45.3532 27.8399 48.8774 27.5255 51.2621 29.5123C53.597 31.4582 54.0017 34.9161 52.1774 37.3556L37.7757 56.6416L45.5649 53.4603C47.5947 52.6304 49.8892 52.7781 51.8007 53.8595L52.9308 54.5008C55.0197 53.9381 57.2114 53.8878 59.3253 54.3562L59.5028 54.394L60.0258 54.2116C63.3227 53.0611 66.9776 54.0419 69.2783 56.6888C71.2022 58.905 71.8778 61.9575 71.0715 64.7899L57.0651 114H10.8008L11.6535 111.697Z" fill="#095C30"/>
<path d="M20.1799 82.218L30.9205 66.4591C32.7199 63.8185 35.1981 61.7185 38.0902 60.3888H54.5342C57.6848 60.3888 60.2407 62.9666 60.2407 66.151C60.2407 69.3041 57.7284 71.8724 54.6058 71.9101L43.1772 72.0547C43.1772 72.0547 51.2311 87.9991 36.2877 104.16" stroke="white" stroke-miterlimit="10"/>
<path d="M43.6067 92.4914C43.753 92.5794 43.9118 92.6612 44.0799 92.7335C44.1266 92.7523 44.1764 92.7712 44.2231 92.7901C46.3339 93.5885 48.2983 92.1959 48.4664 92.0733C49.1824 91.5483 49.6245 90.8882 49.9545 90.0865C50.2783 89.2912 50.4962 88.3544 50.7546 87.273C50.8885 86.7134 51.0348 86.1602 51.1874 85.6069C51.8349 83.2712 52.5945 80.9638 53.0491 78.5809C53.5534 75.9246 54.0297 73.7429 54.4531 71.9102C55.8603 65.8179 56.6697 63.5765 55.9599 60.568C55.8914 60.2662 55.8043 59.955 55.7015 59.6344C55.0695 57.657 54.1356 56.1764 53.4569 55.249" stroke="white" stroke-miterlimit="10"/>
<path d="M49.9546 90.0865C50.0044 90.2972 50.0729 90.5109 50.1601 90.7247C50.3344 91.1585 50.8294 92.3971 52.056 93.1107C52.1961 93.1956 52.3455 93.2679 52.5043 93.3339C54.4936 94.1575 56.3647 92.9189 56.4768 92.8403C56.7725 92.6391 57.0185 92.4097 57.2333 92.155C58.0801 91.1365 58.3603 89.7219 58.765 88.04C58.9673 87.1881 59.2008 86.3425 59.4437 85.5031C60.0289 83.4598 60.664 81.4322 61.0594 79.348C63.413 66.9715 65.1439 64.8968 63.7119 60.4014C63.0799 58.4241 62.1459 56.9434 61.4672 56.0161" stroke="white" stroke-miterlimit="10"/>
<path d="M62.6006 92.6517C62.4294 92.8183 61.4051 93.7928 59.8952 93.6954C59.2632 93.6545 58.6592 93.4313 58.1425 93.0667C57.7969 92.8215 57.4856 92.5134 57.2334 92.155" stroke="white" stroke-miterlimit="10"/>
<path d="M58.1423 93.0667C58.93 91.6174 59.5059 90.4009 59.8951 89.5207C60.9505 87.1598 61.2991 85.8709 62.4386 85.4685C63.2605 85.1793 64.1104 85.478 64.6645 85.7483" stroke="white" stroke-miterlimit="10"/>
<path d="M45.8108 60.3857C46.7323 62.0675 48.3916 63.2055 50.2378 63.3564C52.3548 63.5293 54.4126 62.3724 55.524 60.4737C55.6205 60.3071 55.7139 60.131 55.7949 59.9487" stroke="white" stroke-miterlimit="10"/>
<path d="M43.3609 30.207C43.9774 30.8263 44.4288 31.3607 44.7557 31.7725C45.0078 32.0931 45.2942 32.4829 45.3285 33.0268C45.369 33.6492 45.0327 34.1145 44.3572 35.023C42.4581 37.5787 42.3242 37.7202 41.9787 37.9151C41.5459 38.1635 40.6275 38.6916 39.5473 38.4338C38.6008 38.2075 37.9969 37.4907 37.6482 36.8903" stroke="white" stroke-miterlimit="10"/>
<path d="M44.2231 92.79C45.0388 91.2025 45.6583 89.8885 46.0911 88.9328C47.0593 86.8077 47.4391 85.7421 48.5038 85.3208C49.4502 84.9467 50.4714 85.2674 51.1874 85.6069" stroke="white" stroke-miterlimit="10"/>
<path d="M52.0559 93.1107C52.8062 91.7652 53.379 90.6021 53.8024 89.681C54.9169 87.2604 55.3217 85.8552 56.6386 85.3208C57.5974 84.931 58.6341 85.1699 59.4436 85.5031" stroke="white" stroke-miterlimit="10"/>
<path d="M72.1426 104.557C73.8258 104.557 75.1904 103.179 75.1904 101.479C75.1904 99.7793 73.8258 98.4014 72.1426 98.4014C70.4593 98.4014 69.0947 99.7793 69.0947 101.479C69.0947 103.179 70.4593 104.557 72.1426 104.557Z" fill="white"/>
<path d="M101.257 45.0197C101.257 46.5883 99.9964 47.8615 98.4398 47.8615C98.3619 47.8615 98.2872 47.8615 98.2094 47.8521C96.7617 47.7326 95.6223 46.5129 95.6223 45.0197C95.6223 43.451 96.8832 42.1747 98.4398 42.1747C98.9815 42.1747 99.4858 42.3287 99.9123 42.596C100.719 43.0958 101.257 43.9949 101.257 45.0197Z" fill="white"/>
<path d="M94.4112 46.0759L93.6173 49.0749L91.6871 56.3335L88.9226 55.5885L90.9929 47.7986L91.6467 45.3309L94.4112 46.0759Z" fill="white"/>
<path d="M98.4398 42.1747C96.8864 42.1747 95.6224 43.4479 95.6224 45.0197C95.6224 46.5915 96.7618 47.7326 98.2095 47.8521L99.9124 42.596C99.4859 42.3287 98.9784 42.1747 98.4398 42.1747ZM90.9899 47.7986L93.6144 49.0718L94.4082 46.0759L91.6437 45.3278L90.9868 47.7986H90.9899Z" fill="#E6C229"/>
<path d="M101.257 38.459L99.9124 42.5959C99.4859 42.3287 98.9785 42.1747 98.4399 42.1747C96.8864 42.1747 95.6224 43.4479 95.6224 45.0197C95.6224 46.5915 96.7619 47.7326 98.2095 47.8521L97.2413 50.8322L93.6144 49.0749L94.4083 46.0791L91.6437 45.3309L90.9869 47.8018L90.2366 47.4403L77.5969 49.1661C79.6983 48.6883 80.7164 46.5821 82.3726 43.9697C83.3346 42.4545 84.4802 40.933 85.2025 39.1505C85.4796 38.4652 85.7068 37.7925 85.8812 37.1386C86.7591 33.9007 86.4229 31.106 85.0686 29.5751L93.6922 38.459H101.254H101.257Z" fill="#E6C229"/>
<path d="M86.7185 35.7712C86.6687 36.4471 86.5691 37.1512 86.4259 37.8743C86.046 39.7604 85.3829 41.5586 84.5424 43.143C83.1321 45.7962 81.2112 47.8552 79.2375 48.7229C79.2375 48.7229 79.2354 48.7239 79.2312 48.726C78.6864 48.9649 78.1416 49.1127 77.5999 49.163C73.917 49.4836 71.8965 44.9537 73.0889 39.0437C74.2781 33.1305 78.2319 28.0756 81.9117 27.755C82.911 27.6669 83.789 27.9373 84.5143 28.4969C86.1301 29.7449 86.9769 32.4264 86.7185 35.7712Z" fill="white"/>
<path d="M86.7186 35.7712C86.6688 36.4471 86.5692 37.1512 86.426 37.8743C86.0462 39.7604 85.383 41.5586 84.5425 43.143C82.8084 43.4007 81.1491 42.5394 80.3054 41.0776C80.0688 40.6752 79.9007 40.2257 79.8104 39.7416C79.4306 37.7297 80.5264 35.7743 82.3321 35.023C82.5905 34.9161 82.8645 34.8344 83.1478 34.7778C84.4771 34.52 85.7815 34.9256 86.7186 35.768V35.7712Z" fill="black"/>
<path d="M75.7165 2.19424C54.2322 2.07479 46.0569 7.63269 42.8099 13.2692C39.4601 19.0849 41.247 25.1646 36.6115 29.1602C31.4404 33.6147 22.5678 31.7882 15.6284 29.4022" stroke="#393F44" stroke-miterlimit="10"/>
<path d="M15.6252 31.4393C16.8253 31.4393 17.7982 30.4569 17.7982 29.245C17.7982 28.0332 16.8253 27.0508 15.6252 27.0508C14.425 27.0508 13.4521 28.0332 13.4521 29.245C13.4521 30.4569 14.425 31.4393 15.6252 31.4393Z" fill="#D51920"/>
<path d="M42.0129 16.9441C43.213 16.9441 44.1859 15.9617 44.1859 14.7498C44.1859 13.538 43.213 12.5556 42.0129 12.5556C40.8127 12.5556 39.8398 13.538 39.8398 14.7498C39.8398 15.9617 40.8127 16.9441 42.0129 16.9441Z" fill="#D51920"/>
<path d="M75.2931 4.38848C76.4933 4.38848 77.4662 3.40609 77.4662 2.19424C77.4662 0.982396 76.4933 0 75.2931 0C74.093 0 73.1201 0.982396 73.1201 2.19424C73.1201 3.40609 74.093 4.38848 75.2931 4.38848Z" fill="#D51920"/>
<path fill-rule="evenodd" clip-rule="evenodd" d="M124.761 74.8485H132.591C134.936 74.8485 136.837 76.7682 136.837 79.1364C136.837 81.5045 134.936 83.4243 132.591 83.4243H127.127L121.939 87.2781V82.3403C121.065 81.5549 120.514 80.4106 120.514 79.1364C120.514 76.7682 122.416 74.8485 124.761 74.8485Z" fill="black"/>
</g>
<defs>
<clipPath id="clip0_209_33">
<rect width="137" height="114" fill="white"/>
</clipPath>
</defs>
</svg>
