<svg width="19" height="19" viewBox="0 0 19 19" fill="none" xmlns="http://www.w3.org/2000/svg">
<path d="M12.1317 9.49995C12.1317 10.9849 10.9317 12.1849 9.44672 12.1849C7.96172 12.1849 6.76172 10.9849 6.76172 9.49995C6.76172 8.01495 7.96172 6.81494 9.44672 6.81494C10.9317 6.81494 12.1317 8.01495 12.1317 9.49995Z" stroke="#A1A1AA" stroke-width="1.35" stroke-linecap="round" stroke-linejoin="round"/>
<path d="M9.44421 15.7025C12.0918 15.7025 14.5592 14.1425 16.2768 11.4425C16.9518 10.385 16.9518 8.60754 16.2768 7.55004C14.5592 4.85004 12.0918 3.29004 9.44421 3.29004C6.79672 3.29004 4.32922 4.85004 2.61172 7.55004C1.93672 8.60754 1.93672 10.385 2.61172 11.4425C4.32922 14.1425 6.79672 15.7025 9.44421 15.7025Z" stroke="#A1A1AA" stroke-width="1.35" stroke-linecap="round" stroke-linejoin="round"/>
</svg>
