<svg width="60" height="60" viewBox="0 0 60 60" fill="none" xmlns="http://www.w3.org/2000/svg">
<g clip-path="url(#clip0_915_3656)">
<path fill-rule="evenodd" clip-rule="evenodd" d="M26.0017 8.93224C25.4589 9.77665 24.8106 10.7199 24.0152 11.5153C22.6819 12.8486 20.9319 12.8954 19.6732 12.7425C18.5554 12.6067 17.3258 12.2456 16.284 11.9397C16.1482 11.8999 16.0156 11.8609 15.8869 11.8235C14.6517 11.4649 13.6565 11.2101 12.8268 11.1741C12.0512 11.1404 11.7209 11.3095 11.5152 11.5153C11.3095 11.721 11.1403 12.0513 11.174 12.8269C11.2101 13.6565 11.4649 14.6517 11.8235 15.887C11.8609 16.0157 11.8998 16.1483 11.9397 16.2841C12.2456 17.3258 12.6066 18.5555 12.7424 19.6732C12.8953 20.9319 12.8485 22.682 11.5152 24.0153C10.7198 24.8106 9.77659 25.4589 8.93218 26.0018C8.60586 26.2116 8.30326 26.4005 8.01554 26.5802C7.49273 26.9066 7.01902 27.2024 6.54132 27.5368C5.07032 28.5665 4.64283 29.256 4.64283 30C4.64283 30.7441 5.07032 31.4336 6.54132 32.4633C7.01902 32.7977 7.49273 33.0935 8.01554 33.4199C8.30326 33.5996 8.60586 33.7885 8.93218 33.9983C9.77659 34.5411 10.7198 35.1894 11.5152 35.9848C12.8485 37.3181 12.8953 39.0681 12.7424 40.3268C12.6066 41.4446 12.2456 42.6742 11.9397 43.716C11.8998 43.8518 11.8609 43.9844 11.8235 44.1131C11.4649 45.3484 11.2101 46.3435 11.174 47.1732C11.1403 47.9488 11.3095 48.2791 11.5152 48.4848C11.7209 48.6905 12.0512 48.8597 12.8268 48.826C13.6565 48.7899 14.6517 48.5351 15.8869 48.1765C16.0156 48.1391 16.1482 48.1002 16.284 48.0603C17.3258 47.7545 18.5554 47.3934 19.6732 47.2576C20.9319 47.1047 22.6819 47.1515 24.0152 48.4848C24.8106 49.2802 25.4589 50.2234 26.0017 51.0678C26.2115 51.3941 26.4004 51.6967 26.5801 51.9845C26.9065 52.5073 27.2023 52.981 27.5367 53.4587C28.5664 54.9297 29.2559 55.3572 30 55.3572C30.744 55.3572 31.4335 54.9297 32.4632 53.4587C32.7976 52.981 33.0934 52.5073 33.4199 51.9845C33.5995 51.6967 33.7885 51.3941 33.9982 51.0678C34.5411 50.2234 35.1894 49.2802 35.9847 48.4848C37.3181 47.1515 39.0681 47.1047 40.3268 47.2576C41.4445 47.3934 42.6742 47.7545 43.7159 48.0603C43.8517 48.1002 43.9843 48.1391 44.113 48.1765C45.3483 48.5351 46.3435 48.7899 47.1731 48.826C47.9487 48.8597 48.279 48.6905 48.4847 48.4848C48.6905 48.2791 48.8597 47.9488 48.8259 47.1732C48.7899 46.3435 48.5351 45.3484 48.1765 44.1131C48.1391 43.9844 48.1002 43.8518 48.0603 43.716C47.7544 42.6742 47.3933 41.4446 47.2575 40.3268C47.1046 39.0681 47.1514 37.3181 48.4847 35.9848C49.2801 35.1894 50.2234 34.5411 51.0678 33.9983C51.3941 33.7885 51.6967 33.5996 51.9844 33.4199C52.5072 33.0935 52.9809 32.7977 53.4586 32.4633C54.9296 31.4336 55.3571 30.7441 55.3571 30C55.3571 29.256 54.9296 28.5665 53.4586 27.5368C52.9809 27.2024 52.5072 26.9066 51.9844 26.5801C51.6967 26.4005 51.3941 26.2115 51.0678 26.0018C50.2234 25.4589 49.2801 24.8106 48.4847 24.0153C47.1514 22.682 47.1046 20.9319 47.2575 19.6732C47.3933 18.5555 47.7544 17.3258 48.0603 16.2841C48.1002 16.1483 48.1391 16.0157 48.1765 15.887C48.5351 14.6517 48.7899 13.6565 48.8259 12.8269C48.8597 12.0513 48.6905 11.721 48.4847 11.5153C48.279 11.3095 47.9487 11.1404 47.1731 11.1741C46.3435 11.2101 45.3483 11.4649 44.113 11.8235C43.9843 11.8609 43.8517 11.8999 43.7159 11.9397C42.6742 12.2456 41.4445 12.6067 40.3268 12.7425C39.0681 12.8954 37.3181 12.8486 35.9847 11.5153C35.1894 10.7199 34.5411 9.77665 33.9982 8.93224C33.7885 8.60592 33.5995 8.30332 33.4198 8.0156C33.0934 7.49279 32.7976 7.01908 32.4632 6.54138C31.4335 5.07038 30.744 4.64289 30 4.64289C29.2559 4.64289 28.5664 5.07038 27.5367 6.54138C27.2023 7.01908 26.9065 7.49279 26.5801 8.0156C26.4004 8.30332 26.2115 8.60592 26.0017 8.93224ZM24.0257 4.08369C25.1835 2.42969 26.994 0.357178 30 0.357178C33.0059 0.357178 34.8164 2.42969 35.9742 4.08369C36.3702 4.64934 36.7731 5.29354 37.137 5.87539C37.3018 6.13899 37.4587 6.38979 37.6033 6.61471C38.1106 7.40386 38.5527 8.01918 39.0031 8.47267C39.0595 8.4971 39.268 8.55389 39.8099 8.48805C40.5517 8.39792 41.4145 8.14624 42.5276 7.82151C42.6545 7.78451 42.7846 7.74655 42.9182 7.70778C44.1048 7.36327 45.5705 6.95399 46.987 6.8924C48.4575 6.82847 50.1584 7.12802 51.5152 8.48481C52.872 9.84159 53.1715 11.5426 53.1076 13.013C53.046 14.4295 52.6367 15.8952 52.2922 17.0819C52.2535 17.2154 52.2155 17.3455 52.1785 17.4723C51.8538 18.5855 51.6021 19.4483 51.512 20.1901C51.4461 20.732 51.5029 20.9405 51.5273 20.9969C51.9808 21.4473 52.5962 21.8894 53.3853 22.3967C53.6102 22.5413 53.861 22.6982 54.1246 22.863C54.7065 23.2269 55.3507 23.6298 55.9163 24.0258C57.5703 25.1836 59.6428 26.9941 59.6428 30C59.6428 33.006 57.5703 34.8165 55.9163 35.9743C55.3507 36.3702 54.7065 36.7731 54.1246 37.137C53.861 37.3019 53.6102 37.4588 53.3853 37.6033C52.5962 38.1106 51.9808 38.5527 51.5274 39.0032C51.5029 39.0596 51.4461 39.2681 51.512 39.8099C51.6021 40.5518 51.8538 41.4146 52.1785 42.5277C52.2155 42.6546 52.2535 42.7847 52.2922 42.9182C52.6367 44.1048 53.046 45.5706 53.1076 46.987C53.1715 48.4575 52.872 50.1585 51.5152 51.5153C50.1584 52.8721 48.4575 53.1716 46.987 53.1077C45.5705 53.0461 44.1048 52.6368 42.9182 52.2923C42.7846 52.2535 42.6545 52.2156 42.5277 52.1786C41.4145 51.8538 40.5518 51.6021 39.8099 51.512C39.2681 51.4462 39.0595 51.503 39.0031 51.5274C38.5527 51.9809 38.1106 52.5962 37.6033 53.3854C37.4587 53.6103 37.3018 53.8611 37.137 54.1247C36.7731 54.7066 36.3702 55.3507 35.9742 55.9164C34.8164 57.5704 33.0059 59.6429 30 59.6429C26.994 59.6429 25.1835 57.5704 24.0257 55.9164C23.6298 55.3507 23.2269 54.7065 22.863 54.1246C22.6981 53.8611 22.5412 53.6103 22.3967 53.3854C21.8894 52.5962 21.4473 51.9809 20.9968 51.5274C20.9404 51.503 20.7319 51.4462 20.1901 51.512C19.4482 51.6021 18.5855 51.8538 17.4723 52.1786C17.3454 52.2156 17.2153 52.2535 17.0818 52.2923C15.8952 52.6368 14.4294 53.0461 13.013 53.1077C11.5425 53.1716 9.84153 52.8721 8.48475 51.5153C7.12796 50.1585 6.82841 48.4575 6.89234 46.987C6.95393 45.5706 7.36321 44.1048 7.70771 42.9182C7.74649 42.7847 7.78444 42.6545 7.82145 42.5277C8.14618 41.4145 8.39786 40.5518 8.48799 39.8099C8.55382 39.2681 8.49704 39.0596 8.47261 39.0032C8.01912 38.5527 7.4038 38.1107 6.61465 37.6033C6.38973 37.4588 6.13893 37.3019 5.87533 37.137C5.29347 36.7731 4.64928 36.3702 4.08363 35.9743C2.42963 34.8165 0.357117 33.006 0.357117 30C0.357117 26.9941 2.42963 25.1836 4.08363 24.0258C4.64929 23.6298 5.29351 23.2269 5.87538 22.863C6.13896 22.6982 6.38975 22.5413 6.61465 22.3967C7.4038 21.8894 8.01912 21.4473 8.47261 20.9969C8.49704 20.9405 8.55382 20.732 8.48799 20.1901C8.39786 19.4483 8.14618 18.5855 7.82146 17.4724C7.78445 17.3455 7.74649 17.2154 7.70771 17.0819C7.36321 15.8952 6.95393 14.4295 6.89234 13.013C6.82841 11.5426 7.12796 9.84159 8.48475 8.48481C9.84153 7.12802 11.5425 6.82847 13.013 6.8924C14.4294 6.95399 15.8952 7.36327 17.0818 7.70778C17.2154 7.74655 17.3455 7.78451 17.4723 7.82152C18.5855 8.14624 19.4482 8.39792 20.1901 8.48805C20.7319 8.55388 20.9404 8.4971 20.9968 8.47267C21.4473 8.01918 21.8894 7.40386 22.3967 6.61471C22.5412 6.38981 22.6981 6.13902 22.8629 5.87544C23.2269 5.29357 23.6298 4.64936 24.0257 4.08369ZM21.0139 8.46287C21.0144 8.46332 21.0102 8.4666 20.9997 8.47138C21.0081 8.4648 21.0134 8.46242 21.0139 8.46287ZM8.4628 21.014C8.46235 21.0134 8.46474 21.0082 8.47132 20.9998C8.46654 21.0103 8.46325 21.0145 8.4628 21.014ZM8.4628 38.9861C8.46325 38.9856 8.46654 38.9898 8.4713 39.0002C8.46474 38.9919 8.46235 38.9866 8.4628 38.9861ZM21.0139 51.5372C21.0134 51.5377 21.0081 51.5353 20.9998 51.5287C21.0103 51.5335 21.0144 51.5368 21.0139 51.5372ZM38.986 51.5372C38.9855 51.5368 38.9897 51.5335 39.0002 51.5287C38.9918 51.5353 38.9866 51.5377 38.986 51.5372ZM51.5371 38.9861C51.5376 38.9866 51.5352 38.9918 51.5286 39.0002C51.5334 38.9898 51.5367 38.9856 51.5371 38.9861ZM51.5372 21.014C51.5367 21.0145 51.5334 21.0103 51.5286 20.9998C51.5352 21.0082 51.5376 21.0134 51.5372 21.014ZM38.986 8.46286C38.9866 8.46242 38.9918 8.4648 39.0002 8.47136C38.9897 8.46659 38.9855 8.46331 38.986 8.46286ZM44.0152 21.5153L25 40.5305L15.9847 31.5153L19.0152 28.4848L25 34.4696L40.9847 18.4848L44.0152 21.5153Z" fill="#587D71"/>
</g>
<defs>
<clipPath id="clip0_915_3656">
<rect width="60" height="60" fill="white"/>
</clipPath>
</defs>
</svg>
