<svg width="129" height="118" viewBox="0 0 129 118" fill="none" xmlns="http://www.w3.org/2000/svg">
<g clip-path="url(#clip0_233_499)">
<path d="M81.0645 3.40674L90.0444 12.0664L99.0698 60.8825H14.4114L81.0645 3.40674Z" fill="#FFCF2D"/>
<path d="M90.1217 11.9984L81.1145 3.31153L82.621 1.74735C84.8399 -0.555853 88.8375 -0.29289 91.1426 1.91963C93.4478 4.13669 93.8516 8.13102 91.6327 10.4342L90.1217 11.9984Z" fill="white"/>
<path fill-rule="evenodd" clip-rule="evenodd" d="M82.719 1.84166C82.719 1.84167 82.719 1.84166 82.719 1.84166L81.3068 3.30797L90.1182 11.8061L91.5346 10.3399C93.6923 8.10022 93.309 4.19219 91.0483 2.01768C88.787 -0.152715 84.8764 -0.397672 82.719 1.84166ZM82.5229 1.65301C84.8033 -0.714032 88.8879 -0.433083 91.2369 1.82153L91.237 1.82163C93.5864 4.08125 94.0108 8.16182 91.7307 10.5285L91.7306 10.5287L90.125 12.1907L80.9221 3.31506L82.5229 1.65301Z" fill="#FFCF2D"/>
<path fill-rule="evenodd" clip-rule="evenodd" d="M82.5184 1.65291C82.5706 1.59885 82.6568 1.5973 82.7109 1.64946L91.7226 10.3363C91.7767 10.3885 91.7782 10.4746 91.726 10.5287C91.6738 10.5827 91.5877 10.5843 91.5336 10.5321L82.5218 1.84523C82.4677 1.79308 82.4662 1.70697 82.5184 1.65291Z" fill="#FFCF2D"/>
<path fill-rule="evenodd" clip-rule="evenodd" d="M92.7272 1.6513C92.7272 1.65131 92.7272 1.65133 92.7272 1.65134L91.7199 2.42206C91.6602 2.46773 91.5747 2.4564 91.529 2.39676C91.4833 2.33712 91.4947 2.25175 91.5543 2.20608L92.5617 1.43529C93.9733 0.356207 96.0003 0.639118 97.0581 2.07181L121.867 32.248L109.159 60.5663C109.128 60.6349 109.047 60.6655 108.979 60.6348C108.91 60.6041 108.879 60.5236 108.91 60.455L121.549 32.2905L96.8432 2.23892L96.841 2.23601C95.8745 0.923758 94.0191 0.663724 92.7272 1.6513Z" fill="#3FB1B5"/>
<path d="M121.304 33.8062C122.071 33.8062 122.693 33.1851 122.693 32.4189C122.693 31.6527 122.071 31.0315 121.304 31.0315C120.537 31.0315 119.916 31.6527 119.916 32.4189C119.916 33.1851 120.537 33.8062 121.304 33.8062Z" fill="white"/>
<path fill-rule="evenodd" clip-rule="evenodd" d="M121.304 31.1675C120.613 31.1675 120.052 31.7278 120.052 32.4189C120.052 33.11 120.613 33.6702 121.304 33.6702C121.996 33.6702 122.557 33.11 122.557 32.4189C122.557 31.7278 121.996 31.1675 121.304 31.1675ZM119.78 32.4189C119.78 31.5775 120.462 30.8955 121.304 30.8955C122.146 30.8955 122.829 31.5775 122.829 32.4189C122.829 33.2602 122.146 33.9423 121.304 33.9423C120.462 33.9423 119.78 33.2602 119.78 32.4189Z" fill="#FFCF2D"/>
<path d="M105.513 57.3551H112.279C114.226 57.3551 115.8 58.9329 115.8 60.8734V60.9731H101.988V60.8734C101.992 58.9329 103.567 57.3551 105.513 57.3551Z" fill="white"/>
<path fill-rule="evenodd" clip-rule="evenodd" d="M102.124 60.8371H115.664C115.644 58.9883 114.138 57.4911 112.279 57.4911H105.513C103.654 57.4911 102.148 58.9881 102.124 60.8371ZM101.851 60.8731C101.856 58.8579 103.491 57.2191 105.513 57.2191H112.279C114.301 57.2191 115.936 58.8579 115.936 60.8734V61.1092H101.851V60.8734L101.851 60.8731Z" fill="#FFCF2D"/>
<path d="M72.7381 50.6767H29.9075C28.2967 50.6767 26.9944 49.3755 26.9944 47.766V17.8335C26.9944 16.2239 28.2967 14.9227 29.9075 14.9227H72.7381C74.349 14.9227 75.6513 16.2239 75.6513 17.8335V47.7615C75.6558 49.371 74.349 50.6767 72.7381 50.6767Z" fill="white"/>
<path fill-rule="evenodd" clip-rule="evenodd" d="M29.9074 15.0587C28.3718 15.0587 27.1304 16.2991 27.1304 17.8335V47.766C27.1304 49.3004 28.3718 50.5407 29.9074 50.5407H72.738C74.2738 50.5407 75.5194 49.2959 75.515 47.7618V17.8335C75.515 16.2991 74.2737 15.0587 72.738 15.0587H29.9074ZM26.8582 17.8335C26.8582 16.1488 28.2214 14.7867 29.9074 14.7867H72.738C74.4241 14.7867 75.7873 16.1488 75.7873 17.8335V47.7611C75.7921 49.4461 74.424 50.8127 72.738 50.8127H29.9074C28.2214 50.8127 26.8582 49.4506 26.8582 47.766V17.8335Z" fill="#3FB1B5"/>
<path d="M72.7654 47.893H30.3477C29.717 47.893 29.2087 47.3806 29.2087 46.755V18.1191C29.2087 17.4889 29.7215 16.9811 30.3477 16.9811H72.7654C73.3961 16.9811 73.9043 17.4934 73.9043 18.1191V46.7504C73.9088 47.3806 73.3961 47.893 72.7654 47.893Z" fill="#66B0F0"/>
<path fill-rule="evenodd" clip-rule="evenodd" d="M30.3476 17.1171C29.7962 17.1171 29.3448 17.5644 29.3448 18.1191V46.755C29.3448 47.3059 29.7924 47.7569 30.3476 47.7569H72.7653C73.321 47.7569 73.7721 47.3055 73.7681 46.7514L73.7681 46.7504V18.1191C73.7681 17.5682 73.3204 17.1171 72.7653 17.1171H30.3476ZM29.0725 18.1191C29.0725 17.4134 29.6466 16.8451 30.3476 16.8451H72.7653C73.4715 16.8451 74.0403 17.4187 74.0403 18.1191L74.0403 46.7494C74.0403 46.7496 74.0403 46.7497 74.0403 46.7498C74.0452 47.4559 73.4708 48.029 72.7653 48.029H30.3476C29.6413 48.029 29.0725 47.4554 29.0725 46.755V18.1191Z" fill="#66B0F0"/>
<path fill-rule="evenodd" clip-rule="evenodd" d="M31.1961 18.3231C31.0499 18.3231 30.9329 18.4426 30.9329 18.5861V19.2571C30.9329 19.4031 31.0525 19.5201 31.1961 19.5201H31.8677C32.0084 19.5201 32.1271 19.4057 32.1308 19.2556V18.5861C32.1308 18.44 32.0113 18.3231 31.8677 18.3231H31.1961ZM30.6606 18.5861C30.6606 18.2943 30.8976 18.0511 31.1961 18.0511H31.8677C32.1596 18.0511 32.4031 18.2878 32.4031 18.5861V19.2585L32.4031 19.2599C32.3971 19.5534 32.1621 19.7921 31.8677 19.7921H31.1961C30.9041 19.7921 30.6606 19.5554 30.6606 19.2571V18.5861Z" fill="white"/>
<path fill-rule="evenodd" clip-rule="evenodd" d="M34.2498 18.3231C34.1036 18.3231 33.9866 18.4426 33.9866 18.5861V19.2571C33.9866 19.4031 34.1062 19.5201 34.2498 19.5201H34.9214C35.065 19.5201 35.1845 19.4031 35.1845 19.2571V18.5861C35.1845 18.44 35.065 18.3231 34.9214 18.3231H34.2498ZM33.7144 18.5861C33.7144 18.2943 33.9513 18.0511 34.2498 18.0511H34.9214C35.2133 18.0511 35.4568 18.2878 35.4568 18.5861V19.2571C35.4568 19.5554 35.2133 19.7921 34.9214 19.7921H34.2498C33.9578 19.7921 33.7144 19.5554 33.7144 19.2571V18.5861Z" fill="white"/>
<path fill-rule="evenodd" clip-rule="evenodd" d="M37.3037 18.3231C37.1576 18.3231 37.0406 18.4426 37.0406 18.5861V19.2571C37.0406 19.4031 37.1601 19.5201 37.3037 19.5201H37.9753C38.1225 19.5201 38.2385 19.4041 38.2385 19.2571V18.5861C38.2385 18.44 38.119 18.3231 37.9753 18.3231H37.3037ZM36.7683 18.5861C36.7683 18.2943 37.0052 18.0511 37.3037 18.0511H37.9753C38.2673 18.0511 38.5108 18.2878 38.5108 18.5861V19.2571C38.5108 19.5544 38.2728 19.7921 37.9753 19.7921H37.3037C37.0118 19.7921 36.7683 19.5554 36.7683 19.2571V18.5861Z" fill="white"/>
<path d="M60.3639 60.8824H43.738L47.0006 50.6767H57.0968L60.3639 60.8824Z" fill="white"/>
<path fill-rule="evenodd" clip-rule="evenodd" d="M46.9013 50.5407H57.1963L60.5505 61.0185H43.5518L46.9013 50.5407ZM47.1001 50.8127L43.9245 60.7464H60.1775L56.9975 50.8127H47.1001Z" fill="#3FB1B5"/>
<path d="M45.0449 56.7974L47.0006 50.6767H57.0968L45.0449 56.7974Z" fill="#3FB1B5"/>
<path fill-rule="evenodd" clip-rule="evenodd" d="M62.2152 18.5543C61.5326 18.5543 60.981 19.1055 60.981 19.7876V25.0015C60.981 25.6835 61.5326 26.2347 62.2152 26.2347H70.2967C70.9793 26.2347 71.531 25.6835 71.531 25.0015V19.7876C71.531 19.1055 70.9793 18.5543 70.2967 18.5543H62.2152ZM60.7087 19.7876C60.7087 18.9553 61.3823 18.2823 62.2152 18.2823H70.2967C71.1297 18.2823 71.8032 18.9553 71.8032 19.7876V25.0015C71.8032 25.8338 71.1297 26.5067 70.2967 26.5067H62.2152C61.3823 26.5067 60.7087 25.8338 60.7087 25.0015V19.7876Z" fill="white"/>
<path fill-rule="evenodd" clip-rule="evenodd" d="M63.0183 20.2772C63.0183 20.2021 63.0793 20.1412 63.1544 20.1412H69.3211C69.3962 20.1412 69.4572 20.2021 69.4572 20.2772C69.4572 20.3523 69.3962 20.4132 69.3211 20.4132H63.1544C63.0793 20.4132 63.0183 20.3523 63.0183 20.2772Z" fill="white"/>
<path fill-rule="evenodd" clip-rule="evenodd" d="M63.0183 21.6827C63.0183 21.6076 63.0793 21.5467 63.1544 21.5467H69.3211C69.3962 21.5467 69.4572 21.6076 69.4572 21.6827C69.4572 21.7578 69.3962 21.8187 69.3211 21.8187H63.1544C63.0793 21.8187 63.0183 21.7578 63.0183 21.6827Z" fill="white"/>
<path fill-rule="evenodd" clip-rule="evenodd" d="M63.0183 23.0882C63.0183 23.0131 63.0793 22.9522 63.1544 22.9522H69.3211C69.3962 22.9522 69.4572 23.0131 69.4572 23.0882C69.4572 23.1633 69.3962 23.2242 69.3211 23.2242H63.1544C63.0793 23.2242 63.0183 23.1633 63.0183 23.0882Z" fill="white"/>
<path fill-rule="evenodd" clip-rule="evenodd" d="M63.0183 24.4937C63.0183 24.4186 63.0793 24.3577 63.1544 24.3577H69.3211C69.3962 24.3577 69.4572 24.4186 69.4572 24.4937C69.4572 24.5688 69.3962 24.6297 69.3211 24.6297H63.1544C63.0793 24.6297 63.0183 24.5688 63.0183 24.4937Z" fill="white"/>
<path d="M72.5293 47.8929H40.4075L38.5244 50.5906C36.3962 53.6373 31.8994 53.6827 29.7123 50.6767L18.2412 34.9125C18.7222 35.511 20.9229 34.8445 23.0193 33.4662C25.1475 32.0652 26.5224 30.3016 26.0913 29.6487L34.0457 39.7773L36.4824 35.4792C37.1495 34.3412 38.2566 33.5251 39.5453 33.2259L47.8356 31.4713H54.9823L62.8596 33.2078C64.23 33.5206 65.3916 34.4138 66.0496 35.6515L72.5293 47.8929Z" fill="white"/>
<path fill-rule="evenodd" clip-rule="evenodd" d="M25.9777 29.7236L26.1984 29.5647L34.0274 39.5337L36.3645 35.4113L36.365 35.4105C37.0509 34.2403 38.1894 33.4011 39.5145 33.0934L39.5158 33.0931L47.8213 31.3353H54.9972L62.8894 33.0751L62.8899 33.0752C64.299 33.3969 65.4934 34.3153 66.1698 35.5877L66.1699 35.5879L72.7553 48.029H40.4785L38.636 50.6684C36.4544 53.7917 31.8444 53.8383 29.6022 50.7567L18.1311 34.9925L18.3473 34.8273C18.4278 34.9274 18.6012 34.9967 18.896 34.9968C19.1841 34.9969 19.5556 34.9305 19.985 34.8005C20.8425 34.5409 21.9049 34.0361 22.9444 33.3526C23.9991 32.6583 24.8634 31.8764 25.4085 31.1922C25.6816 30.8495 25.8699 30.5371 25.9645 30.2771C26.0607 30.0126 26.0498 29.8328 25.9777 29.7236ZM26.2892 30.1211C26.2745 30.2025 26.251 30.2859 26.2204 30.3701C26.1119 30.6682 25.9043 31.0067 25.6215 31.3616C25.0549 32.0727 24.1677 32.8731 23.0942 33.5798L23.0941 33.5798C22.0373 34.2747 20.9512 34.7922 20.064 35.0608C19.621 35.1949 19.2211 35.269 18.8958 35.2688C18.8135 35.2688 18.7336 35.264 18.6576 35.2534L29.8224 50.5967C31.9545 53.527 36.3381 53.4829 38.4127 50.5127L40.3365 47.7569H72.3033L65.9293 35.7153C65.9293 35.7153 65.9293 35.7152 65.9292 35.7151M62.8298 33.3405C64.1611 33.6445 65.2898 34.5123 65.9292 35.7151L62.8298 33.3405ZM62.8293 33.3404C62.8295 33.3404 62.8296 33.3404 62.8298 33.3405L62.8293 33.3404ZM62.8293 33.3404L54.9675 31.6073H47.8498L39.5761 33.3584C39.5757 33.3585 39.5753 33.3586 39.5748 33.3587C38.3235 33.6496 37.2484 34.4422 36.6004 35.5472C36.6002 35.5474 36.6001 35.5477 36.5999 35.548L34.0641 40.021L26.2892 30.1211" fill="#3FB1B5"/>
<path fill-rule="evenodd" clip-rule="evenodd" d="M61.3688 43.0836C61.4359 43.0496 61.5178 43.0764 61.5518 43.1435L63.8342 47.6456C63.8682 47.7126 63.8413 47.7944 63.7743 47.8284C63.7072 47.8623 63.6253 47.8355 63.5913 47.7685L61.3089 43.2664C61.2749 43.1994 61.3018 43.1175 61.3688 43.0836Z" fill="#3FB1B5"/>
<path fill-rule="evenodd" clip-rule="evenodd" d="M42.5473 43.5506C42.6143 43.5845 42.6411 43.6664 42.6072 43.7334L40.3474 48.1902C40.3135 48.2572 40.2315 48.284 40.1645 48.25C40.0974 48.2161 40.0706 48.1342 40.1046 48.0672L42.3643 43.6104C42.3983 43.5434 42.4802 43.5166 42.5473 43.5506Z" fill="#3FB1B5"/>
<path fill-rule="evenodd" clip-rule="evenodd" d="M30.8672 35.7393C30.9264 35.6931 31.012 35.7035 31.0583 35.7627L36.2357 42.3776C36.282 42.4368 36.2716 42.5222 36.2124 42.5685C36.1531 42.6148 36.0676 42.6043 36.0213 42.5452L30.8438 35.9303C30.7975 35.8711 30.808 35.7856 30.8672 35.7393Z" fill="#3FB1B5"/>
<path fill-rule="evenodd" clip-rule="evenodd" d="M58.5756 32.2583C58.6243 32.3156 58.6173 32.4014 58.5599 32.45L54.1891 36.1575L52.1955 33.7339C52.1478 33.6759 52.1562 33.5902 52.2142 33.5425C52.2723 33.4948 52.3581 33.5032 52.4058 33.5612L54.2238 35.7712L58.3837 32.2427C58.4411 32.194 58.527 32.2011 58.5756 32.2583Z" fill="#3FB1B5"/>
<path fill-rule="evenodd" clip-rule="evenodd" d="M44.1986 32.2619C44.2453 32.203 44.3309 32.1931 44.3898 32.2397L48.9699 35.8635L50.7369 33.609C50.7832 33.5499 50.8688 33.5395 50.928 33.5858C50.9872 33.6321 50.9976 33.7176 50.9512 33.7768L49.0155 36.2466L44.2208 32.453C44.1619 32.4063 44.1519 32.3208 44.1986 32.2619Z" fill="#3FB1B5"/>
<path fill-rule="evenodd" clip-rule="evenodd" d="M27.5957 31.5616C27.6586 31.5204 27.743 31.538 27.7842 31.6008C27.9273 31.8191 27.9059 32.1067 27.7986 32.403C27.6895 32.704 27.4811 33.0463 27.1969 33.4055C26.6276 34.1251 25.7358 34.9357 24.6555 35.6515C23.5939 36.3556 22.4974 36.8789 21.6005 37.1504C21.1527 37.2859 20.7481 37.3607 20.4191 37.3606C20.0969 37.3605 19.812 37.2882 19.6507 37.0879C19.6035 37.0294 19.6128 36.9437 19.6714 36.8966C19.73 36.8496 19.8157 36.8588 19.8628 36.9174C19.9443 37.0185 20.1204 37.0885 20.4192 37.0886C20.7112 37.0886 21.0873 37.0214 21.5215 36.89C22.3886 36.6276 23.4611 36.1172 24.5049 35.4249L24.505 35.4248C25.5664 34.7215 26.4353 33.9295 26.9833 33.2368C27.2578 32.8898 27.4473 32.5735 27.5426 32.3104C27.6396 32.0425 27.6289 31.8603 27.5565 31.7499C27.5153 31.687 27.5329 31.6027 27.5957 31.5616Z" fill="#3FB1B5"/>
<path fill-rule="evenodd" clip-rule="evenodd" d="M26.2456 31.9337C26.0376 31.9337 25.8689 32.1022 25.8689 32.3101C25.8689 32.5179 26.0376 32.6864 26.2456 32.6864C26.4536 32.6864 26.6222 32.5179 26.6222 32.3101C26.6222 32.1022 26.4536 31.9337 26.2456 31.9337ZM25.5967 32.3101C25.5967 31.952 25.8872 31.6617 26.2456 31.6617C26.6039 31.6617 26.8944 31.952 26.8944 32.3101C26.8944 32.6681 26.6039 32.9584 26.2456 32.9584C25.8872 32.9584 25.5967 32.6681 25.5967 32.3101Z" fill="#3FB1B5"/>
<path fill-rule="evenodd" clip-rule="evenodd" d="M51.5654 35.1528C51.3574 35.1528 51.1888 35.3213 51.1888 35.5291C51.1888 35.7369 51.3574 35.9054 51.5654 35.9054C51.7734 35.9054 51.942 35.7369 51.942 35.5291C51.942 35.3213 51.7734 35.1528 51.5654 35.1528ZM50.9165 35.5291C50.9165 35.171 51.207 34.8808 51.5654 34.8808C51.9238 34.8808 52.2143 35.171 52.2143 35.5291C52.2143 35.8872 51.9238 36.1775 51.5654 36.1775C51.207 36.1775 50.9165 35.8872 50.9165 35.5291Z" fill="#3FB1B5"/>
<path fill-rule="evenodd" clip-rule="evenodd" d="M51.5654 39.2786C51.3574 39.2786 51.1888 39.4471 51.1888 39.6549C51.1888 39.8628 51.3574 40.0312 51.5654 40.0312C51.7734 40.0312 51.942 39.8628 51.942 39.6549C51.942 39.4471 51.7734 39.2786 51.5654 39.2786ZM50.9165 39.6549C50.9165 39.2969 51.207 39.0066 51.5654 39.0066C51.9238 39.0066 52.2143 39.2969 52.2143 39.6549C52.2143 40.013 51.9238 40.3033 51.5654 40.3033C51.207 40.3033 50.9165 40.013 50.9165 39.6549Z" fill="#3FB1B5"/>
<path d="M38.3611 50.8082L40.4075 47.8929V50.8082H38.3611Z" fill="#3FB1B5"/>
<path d="M22.9695 33.3302C20.8731 34.7085 18.6724 35.375 18.1914 34.7765C18.1823 34.7674 18.1778 34.7584 18.1687 34.7448C18.0688 34.5951 18.0779 34.3911 18.1687 34.1418C18.4818 33.3211 19.775 32.0517 21.4176 30.9726C22.7244 30.1112 24.0131 29.5127 24.907 29.3268C25.4243 29.2225 25.81 29.2543 25.9961 29.4538L26.0414 29.5082C26.468 30.161 25.0976 31.9292 22.9695 33.3302Z" fill="#FE5244"/>
<path d="M22.9695 33.3302C21.7761 34.1145 20.5464 34.6722 19.6208 34.8898L15.4779 29.0502C14.9016 28.2341 15.0922 27.1052 15.9135 26.5294L19.6434 23.9088L17.5289 20.3135C17.2204 19.7921 17.3973 19.1165 17.9237 18.8128C18.0961 18.713 18.2822 18.6677 18.4682 18.6677C18.8267 18.6677 19.1806 18.8445 19.3893 19.171L26.0007 29.4447L26.046 29.5172C26.468 30.161 25.0977 31.9292 22.9695 33.3302Z" fill="#E57281"/>
<path fill-rule="evenodd" clip-rule="evenodd" d="M19.5607 23.8353C19.6238 23.7946 19.7081 23.8128 19.7488 23.8759L22.0587 27.4535L22.059 27.4539C22.3121 27.8521 22.1991 28.3798 21.8006 28.6383C21.8005 28.6383 21.8004 28.6384 21.8004 28.6384L21.2887 28.9732C21.2886 28.9733 21.2885 28.9733 21.2884 28.9734C20.8899 29.2369 20.3517 29.1243 20.0925 28.7261L17.9104 25.4624C17.8686 25.4 17.8855 25.3155 17.948 25.2738C18.0105 25.232 18.095 25.2488 18.1368 25.3113L20.3199 28.5765L20.3204 28.5772C20.497 28.8493 20.8657 28.9268 21.1384 28.7464L21.1387 28.7462L21.6517 28.4105L21.6522 28.4102C21.925 28.2334 22.0025 27.8728 21.8294 27.6001C21.8293 27.6 21.8293 27.5999 21.8292 27.5998L19.5201 24.0234C19.4793 23.9602 19.4975 23.8761 19.5607 23.8353Z" fill="#9A3B82"/>
<path fill-rule="evenodd" clip-rule="evenodd" d="M20.1226 28.5283C20.1855 28.4872 20.2699 28.5049 20.311 28.5678C20.5748 28.9713 20.4565 29.5141 20.0526 29.7723L20.0523 29.7726L19.5848 30.0673C19.5848 30.0673 19.5847 30.0674 19.5847 30.0674C19.1864 30.32 18.6586 30.2073 18.3998 29.8141C18.3585 29.7514 18.376 29.667 18.4388 29.6257C18.5016 29.5845 18.586 29.6019 18.6273 29.6647C18.8042 29.9334 19.1656 30.0111 19.4389 29.8377L19.4392 29.8375L19.9062 29.543C20.1827 29.3659 20.2638 28.993 20.0831 28.7166C20.042 28.6537 20.0596 28.5694 20.1226 28.5283Z" fill="#9A3B82"/>
<path fill-rule="evenodd" clip-rule="evenodd" d="M16.2914 26.4256C16.3538 26.3837 16.4383 26.4002 16.4803 26.4625L18.618 29.637L18.6186 29.6378C18.8819 30.0405 18.7696 30.5845 18.3543 30.8432L18.3512 30.8451L17.9161 31.0851C17.5277 31.3302 17.0186 31.2261 16.7512 30.8521L16.7509 30.8518L15.5122 29.1062C15.4687 29.0449 15.4831 28.9601 15.5445 28.9166C15.6058 28.8731 15.6908 28.8876 15.7342 28.9489L16.9727 30.694C16.9728 30.6941 16.9728 30.6942 16.9729 30.6942C17.1585 30.9536 17.5088 31.0223 17.7733 30.8534L17.777 30.8511L18.2131 30.6105C18.494 30.4334 18.5712 30.0636 18.3911 29.7873L16.2544 26.6144C16.2125 26.5521 16.229 26.4676 16.2914 26.4256Z" fill="#9A3B82"/>
<path d="M24.4579 27.0508L23.3734 25.3687C23.0149 24.8111 22.2662 24.6569 21.7172 25.0287L19.0264 26.8513C19.0264 26.8513 19.8068 28.2523 21.7036 27.1415L22.3388 28.1525C21.0411 28.9731 20.669 30.7005 21.513 31.9836L24.4579 27.0508Z" fill="#E57281"/>
<path fill-rule="evenodd" clip-rule="evenodd" d="M23.3473 25.3405C23.3473 25.3405 23.3473 25.3405 23.3473 25.3406L24.4317 27.0225C24.4725 27.0856 24.4542 27.1698 24.391 27.2105C24.3278 27.2511 24.2436 27.2329 24.2029 27.1698L23.1183 25.4876C22.8012 24.9943 22.1392 24.858 21.6537 25.1861L19.2152 26.8856C19.233 26.9085 19.2543 26.9342 19.2791 26.9618C19.3734 27.0663 19.5168 27.1945 19.7136 27.2908C20.0985 27.479 20.7193 27.5603 21.6348 27.0241L21.7487 26.9574L22.5263 28.195L22.4117 28.2674C21.1783 29.0473 20.8245 30.6893 21.6268 31.9089C21.6681 31.9717 21.6506 32.056 21.5878 32.0973C21.525 32.1385 21.4406 32.1211 21.3993 32.0583C20.5385 30.7498 20.8829 29.0008 22.1532 28.1127L21.6575 27.3239C20.735 27.8281 20.0545 27.7604 19.5939 27.5351C19.3585 27.42 19.1883 27.2674 19.0769 27.1439C19.0211 27.082 18.9796 27.027 18.9518 26.9868C18.9378 26.9666 18.9272 26.9501 18.9199 26.9383C18.9162 26.9323 18.9133 26.9275 18.9113 26.924C18.9102 26.9223 18.9094 26.9208 18.9088 26.9197L18.908 26.9183L18.9077 26.9178L18.9076 26.9176C18.9075 26.9175 18.9075 26.9174 19.0264 26.8513L18.9075 26.9174L18.8477 26.8101L21.4994 24.9619L21.5002 24.9614C22.1127 24.5467 22.9475 24.7187 23.3473 25.3405Z" fill="#9A3B82"/>
<path d="M22.9696 33.3302C21.7762 34.1145 20.5465 34.6722 19.6209 34.8898L18.5908 33.439C19.1671 32.6864 20.1971 31.7796 21.4178 30.9771C22.7246 30.1157 24.0133 29.5172 24.9072 29.3313C25.4245 29.227 25.8102 29.2588 25.9962 29.4583L26.0416 29.5127C26.0461 29.5217 26.0507 29.5263 26.0552 29.5353C26.0597 29.5399 26.0597 29.5444 26.0643 29.5535C26.0688 29.5626 26.0734 29.5671 26.0779 29.5762C26.3865 30.2698 25.0297 31.97 22.9696 33.3302Z" fill="#9A3B82"/>
<path d="M54.9785 27.4815V31.4668C54.9785 32.6229 53.3722 33.5569 51.3983 33.5569C49.4244 33.5569 47.8181 32.6229 47.8181 31.4668V27.4815H54.9785Z" fill="#E57281"/>
<path d="M48.8657 32.9448C48.2168 32.5685 47.813 32.0426 47.813 31.4668V27.4815H54.9779V28.5878C54.9779 29.7348 54.2791 30.764 53.2173 31.1947L48.8657 32.9448Z" fill="#9A3B82"/>
<path d="M56.9744 27.2457V27.3137C56.9744 28.0029 56.4162 28.5605 55.7265 28.5605H54.9052C54.6284 29.6759 53.6211 30.5056 52.4141 30.5056H50.3812C49.1787 30.5056 48.1669 29.6804 47.8946 28.5605H47.0733C46.3836 28.5605 45.8254 28.0029 45.8254 27.3137V27.2457C45.8254 26.5566 46.3836 25.9989 47.0733 25.9989H47.8175V25.0151C47.8175 23.9632 48.5934 23.0927 49.6053 22.9476C49.8276 23.3194 50.4992 24.208 51.8695 24.1582C52.5139 24.1355 53.1129 24.0131 53.6075 23.868C54.2019 23.6957 54.7963 24.0584 54.9461 24.6252C54.9687 24.7521 54.9824 24.8791 54.9824 25.0105V25.9944H55.7265C56.4117 25.9944 56.9744 26.5566 56.9744 27.2457Z" fill="#E57281"/>
<path d="M55.5495 25.9944H54.9778V24.9017C54.9778 24.8065 54.9642 24.7113 54.9415 24.6252C54.7917 24.0584 54.1973 23.6957 53.6029 23.868C53.1083 24.0131 52.5138 24.1355 51.865 24.1582C50.4946 24.2081 49.823 23.3194 49.6007 22.9476C48.5888 23.0927 47.8129 23.9632 47.8129 25.0151V25.9989H47.1005C47.1005 25.9989 46.2837 23.0474 46.8963 22.2132C47.4998 21.3925 48.2258 21.7507 48.2258 21.7507C48.2258 21.7507 47.7902 19.2934 50.2224 19.3387C52.65 19.384 55.8082 22.1996 56.0396 22.7164C56.4026 23.5098 55.5495 25.9944 55.5495 25.9944Z" fill="#9A3B82"/>
<path fill-rule="evenodd" clip-rule="evenodd" d="M56.1303 26.7153C55.7116 26.7153 55.368 27.0548 55.368 27.477C55.368 27.5396 55.3172 27.5903 55.2546 27.5903C55.1919 27.5903 55.1411 27.5396 55.1411 27.477C55.1411 26.9289 55.5871 26.4886 56.1303 26.4886C56.193 26.4886 56.2438 26.5393 56.2438 26.6019C56.2438 26.6645 56.193 26.7153 56.1303 26.7153Z" fill="#9A3B82"/>
<path fill-rule="evenodd" clip-rule="evenodd" d="M46.5605 26.6019C46.5605 26.5393 46.6113 26.4886 46.674 26.4886C47.2172 26.4886 47.6632 26.9289 47.6632 27.477C47.6632 27.5396 47.6124 27.5903 47.5498 27.5903C47.4871 27.5903 47.4363 27.5396 47.4363 27.477C47.4363 27.0548 47.0927 26.7153 46.674 26.7153C46.6113 26.7153 46.5605 26.6645 46.5605 26.6019Z" fill="#9A3B82"/>
<path fill-rule="evenodd" clip-rule="evenodd" d="M48.961 25.4957C48.7468 25.4957 48.5753 25.6671 48.5753 25.8811V27.3092C48.5753 27.5232 48.7468 27.6946 48.961 27.6946H50.3903C50.6055 27.6946 50.7795 27.518 50.776 27.3111L50.776 27.3102V25.8811C50.776 25.6671 50.6045 25.4957 50.3903 25.4957H48.961ZM48.3484 25.8811C48.3484 25.5419 48.6215 25.269 48.961 25.269H50.3903C50.7298 25.269 51.0029 25.5419 51.0029 25.8811V27.3083C51.008 27.645 50.7284 27.9213 50.3903 27.9213H48.961C48.6215 27.9213 48.3484 27.6484 48.3484 27.3092V25.8811Z" fill="white"/>
<path fill-rule="evenodd" clip-rule="evenodd" d="M52.4595 25.4957C52.2454 25.4957 52.0738 25.6671 52.0738 25.8811V27.3092C52.0738 27.5232 52.2454 27.6946 52.4595 27.6946H53.8889C54.1023 27.6946 54.2746 27.5193 54.2746 27.3092V25.8811C54.2746 25.6671 54.103 25.4957 53.8889 25.4957H52.4595ZM51.8469 25.8811C51.8469 25.5419 52.1201 25.269 52.4595 25.269H53.8889C54.2283 25.269 54.5014 25.5419 54.5014 25.8811V27.3092C54.5014 27.6432 54.229 27.9213 53.8889 27.9213H52.4595C52.1201 27.9213 51.8469 27.6484 51.8469 27.3092V25.8811Z" fill="white"/>
<path fill-rule="evenodd" clip-rule="evenodd" d="M51.9604 26.4387H50.894V26.212H51.9604V26.4387Z" fill="white"/>
<path fill-rule="evenodd" clip-rule="evenodd" d="M49.3059 42.0035C48.9278 42.0035 48.6253 42.3093 48.6253 42.6836V45.3177C48.6253 45.6955 48.9314 45.9978 49.3059 45.9978H54.2655C54.6436 45.9978 54.9462 45.692 54.9462 45.3177V42.6836C54.9462 42.3058 54.6401 42.0035 54.2655 42.0035H49.3059ZM48.353 42.6836C48.353 42.1601 48.7765 41.7314 49.3059 41.7314H54.2655C54.7895 41.7314 55.2184 42.1546 55.2184 42.6836V45.3177C55.2184 45.8412 54.795 46.2698 54.2655 46.2698H49.3059C48.782 46.2698 48.353 45.8467 48.353 45.3177V42.6836Z" fill="#66B0F0"/>
<path d="M51.9105 45.0729H50.2316C49.9639 45.0729 49.7461 44.8553 49.7461 44.5878V43.4135C49.7461 43.146 49.9639 42.9284 50.2316 42.9284H51.9105C52.1783 42.9284 52.3961 43.146 52.3961 43.4135V44.5878C52.3961 44.8553 52.1783 45.0729 51.9105 45.0729Z" fill="#66B0F0"/>
<path d="M53.544 45.0412L53.0267 44.6966C52.886 44.6014 52.7998 44.4382 52.7998 44.2613V43.7445C52.7998 43.5677 52.886 43.4044 53.0267 43.3092L53.544 42.9647C53.6665 42.883 53.8253 42.9737 53.8253 43.1279V44.8825C53.8298 45.0321 53.6665 45.1228 53.544 45.0412Z" fill="#66B0F0"/>
<path fill-rule="evenodd" clip-rule="evenodd" d="M0 60.9731C0 60.898 0.0609469 60.8371 0.136129 60.8371H120.596C120.672 60.8371 120.732 60.898 120.732 60.9731C120.732 61.0483 120.672 61.1092 120.596 61.1092H0.136129C0.0609469 61.1092 0 61.0483 0 60.9731Z" fill="#3FB1B5"/>
<path d="M38.9193 61.7666V117.742H35.7566V107.087C35.7566 106.094 34.9489 105.287 33.9551 105.287H11.3169C10.3232 105.287 9.5155 106.094 9.5155 107.087V117.742H6.35278V61.7666H38.9193Z" fill="white"/>
<path fill-rule="evenodd" clip-rule="evenodd" d="M6.21655 61.6306H39.0553V117.878H35.6203V107.087C35.6203 106.169 34.8736 105.423 33.955 105.423H11.3168C10.3983 105.423 9.65153 106.169 9.65153 107.087V117.878H6.21655V61.6306ZM6.48881 61.9026V117.606H9.37927V107.087C9.37927 106.019 10.2479 105.151 11.3168 105.151H33.955C35.0239 105.151 35.8926 106.019 35.8926 107.087V117.606H38.7831V61.9026H6.48881Z" fill="#3FB1B5"/>
<path d="M39.0146 61.7666V76.6195L6.35278 103.492L6.35732 61.7666H39.0146Z" fill="#D0F0E4"/>
<path fill-rule="evenodd" clip-rule="evenodd" d="M11.2261 64.4597C10.3574 64.4597 9.65605 65.1605 9.65605 66.0284V76.1797C9.65605 77.0476 10.3574 77.7484 11.2261 77.7484H34.0503C34.9189 77.7484 35.6203 77.0476 35.6203 76.1797V66.0284C35.6203 65.1605 34.9189 64.4597 34.0503 64.4597H11.2261ZM9.38379 66.0284C9.38379 65.0102 10.2071 64.1877 11.2261 64.1877H34.0503C35.0693 64.1877 35.8926 65.0102 35.8926 66.0284V76.1797C35.8926 77.1979 35.0693 78.0205 34.0503 78.0205H11.2261C10.2071 78.0205 9.38379 77.1979 9.38379 76.1797V66.0284Z" fill="#3FB1B5"/>
<path d="M28.4418 85.5738H17.2066L16.7393 82.3593H27.9789L28.4418 85.5738Z" fill="#FFCF2D"/>
<path d="M34.4362 80.505C33.034 80.505 31.8996 81.6385 31.8996 83.0394V85.5739H22.3389V83.0394C22.3389 81.6385 23.4733 80.505 24.8754 80.505H34.4362Z" fill="white"/>
<path fill-rule="evenodd" clip-rule="evenodd" d="M24.8753 80.641C23.5484 80.641 22.4749 81.7136 22.4749 83.0394V85.4378H31.7634V83.0394C31.7634 81.9858 32.3725 81.0756 33.2585 80.641H24.8753ZM34.4361 80.369H24.8753C23.398 80.369 22.2026 81.5634 22.2026 83.0394V85.7099H32.0357V83.0394C32.0357 81.7136 33.1091 80.641 34.4361 80.641V80.369Z" fill="#3FB1B5"/>
<path d="M36.8183 82.3594H27.2575C26.9626 81.2894 25.9779 80.505 24.8118 80.505H34.3725C35.5387 80.505 36.5188 81.2894 36.8183 82.3594Z" fill="white"/>
<path fill-rule="evenodd" clip-rule="evenodd" d="M27.3591 82.2233H36.6318C36.296 81.2998 35.4122 80.641 34.3725 80.641H25.9901C26.6374 80.9582 27.1376 81.5286 27.3591 82.2233ZM24.8118 80.641C25.9155 80.641 26.8473 81.3834 27.1263 82.3955L27.1538 82.4954H36.9977L36.9494 82.3227C36.634 81.1957 35.6015 80.369 34.3725 80.369H24.8118V80.641Z" fill="#3FB1B5"/>
<path fill-rule="evenodd" clip-rule="evenodd" d="M11.2261 85.7099C10.3574 85.7099 9.65605 86.4107 9.65605 87.2786V97.4299C9.65605 98.2978 10.3574 98.9986 11.2261 98.9986H34.0503C34.9189 98.9986 35.6203 98.2978 35.6203 97.4299V87.2786C35.6203 86.4107 34.9189 85.7099 34.0503 85.7099H11.2261ZM9.38379 87.2786C9.38379 86.2604 10.2071 85.4378 11.2261 85.4378H34.0503C35.0693 85.4378 35.8926 86.2604 35.8926 87.2786V97.4299C35.8926 98.4481 35.0693 99.2706 34.0503 99.2706H11.2261C10.2071 99.2706 9.38379 98.4481 9.38379 97.4299V87.2786Z" fill="#3FB1B5"/>
<path fill-rule="evenodd" clip-rule="evenodd" d="M19.4301 69.5739C18.6934 69.5739 18.1006 70.1701 18.1006 70.9023C18.1006 70.9774 18.0397 71.0383 17.9645 71.0383C17.8893 71.0383 17.8284 70.9774 17.8284 70.9023C17.8284 70.0204 18.5425 69.3018 19.4301 69.3018H25.8509C26.7335 69.3018 27.4527 70.0153 27.4527 70.9023C27.4527 70.9774 27.3917 71.0383 27.3165 71.0383C27.2414 71.0383 27.1804 70.9774 27.1804 70.9023C27.1804 70.1661 26.5837 69.5739 25.8509 69.5739H19.4301Z" fill="#3FB1B5"/>
<path fill-rule="evenodd" clip-rule="evenodd" d="M19.4301 90.8241C18.6934 90.8241 18.1006 91.4203 18.1006 92.1525C18.1006 92.2276 18.0397 92.2885 17.9645 92.2885C17.8893 92.2885 17.8284 92.2276 17.8284 92.1525C17.8284 91.2706 18.5425 90.552 19.4301 90.552H25.8509C26.7335 90.552 27.4527 91.2655 27.4527 92.1525C27.4527 92.2276 27.3917 92.2885 27.3165 92.2885C27.2414 92.2885 27.1804 92.2276 27.1804 92.1525C27.1804 91.4163 26.5837 90.8241 25.8509 90.8241H19.4301Z" fill="#3FB1B5"/>
<path d="M115.8 61.7666H112.429V117.864H115.8V61.7666Z" fill="white"/>
<path fill-rule="evenodd" clip-rule="evenodd" d="M112.292 61.6306H115.936V118H112.292V61.6306ZM112.565 61.9026V117.728H115.664V61.9026H112.565Z" fill="#3FB1B5"/>
<path fill-rule="evenodd" clip-rule="evenodd" d="M58.3674 117.864C58.3674 117.789 58.4284 117.728 58.5036 117.728H128.864C128.939 117.728 129 117.789 129 117.864C129 117.939 128.939 118 128.864 118H58.5036C58.4284 118 58.3674 117.939 58.3674 117.864Z" fill="#3FB1B5"/>
<path d="M15.9272 53.2792H13.8898C13.8898 53.2792 10.9812 41.1692 8.42651 40.7748C5.87183 40.3803 5.74023 45.0411 5.74023 45.0411C5.74023 45.0411 5.78561 37.9547 12.17 38.925C18.559 39.8952 15.9272 53.2792 15.9272 53.2792Z" fill="white"/>
<path fill-rule="evenodd" clip-rule="evenodd" d="M7.11675 40.935C7.47334 40.6827 7.91288 40.5578 8.44743 40.6404C8.81445 40.697 9.16615 40.9588 9.49718 41.3356C9.83106 41.7157 10.16 42.2314 10.4783 42.8313C11.1153 44.0317 11.7212 45.5904 12.2452 47.1311C12.7696 48.673 13.2138 50.2019 13.5269 51.3449C13.6834 51.9166 13.8072 52.3919 13.8919 52.7245C13.9342 52.8908 13.9668 53.0214 13.9888 53.1105C13.9917 53.1221 13.9944 53.133 13.9969 53.1432H15.8143C15.8165 53.1312 15.8189 53.1183 15.8214 53.1045C15.8389 53.007 15.8639 52.8636 15.8936 52.6805C15.9528 52.3143 16.0303 51.7898 16.1035 51.1572C16.2499 49.8913 16.3786 48.1956 16.3086 46.4714C16.2386 44.745 15.9698 43.0021 15.3293 41.6348C14.691 40.2723 13.6899 39.2933 12.1497 39.0595C10.5793 38.8208 9.41189 39.079 8.54089 39.5887C7.94236 39.939 7.47763 40.4117 7.11675 40.935ZM15.9273 53.2792L16.0609 53.3054L16.0393 53.4152H13.7826L13.7576 53.3109L13.8899 53.2792C13.7576 53.3109 13.7576 53.3109 13.7575 53.3108L13.7555 53.3023C13.7541 53.2966 13.752 53.288 13.7492 53.2766C13.7437 53.2538 13.7354 53.2199 13.7245 53.1757C13.7026 53.0872 13.6702 52.9572 13.628 52.7916C13.5437 52.4604 13.4203 51.9866 13.2642 51.4167C12.9521 50.2768 12.5095 48.7536 11.9874 47.2187C11.465 45.6826 10.8646 44.1399 10.2378 42.9587C9.92418 42.3678 9.60672 41.8727 9.29256 41.5151C8.97554 41.1542 8.67751 40.9512 8.40586 40.9092C7.81552 40.8181 7.37113 41.0163 7.02671 41.3699C6.67658 41.7293 6.42871 42.2517 6.25533 42.801C6.08263 43.3481 5.98767 43.9094 5.93599 44.3354C5.9102 44.5481 5.89529 44.7262 5.88684 44.8509C5.88261 44.9132 5.88 44.9621 5.87846 44.9952C5.87768 45.0118 5.87718 45.0245 5.87686 45.0328C5.87671 45.037 5.8766 45.0402 5.87654 45.0422L5.87646 45.0444L5.87645 45.045C5.87645 45.045 5.87645 45.045 5.8749 45.045L5.60425 45.0403L5.74037 45.0412C5.60425 45.0403 5.60425 45.0402 5.60425 45.0401L5.60425 45.0397L5.60426 45.0385L5.60432 45.0342C5.60437 45.0304 5.60445 45.025 5.6046 45.018C5.6049 45.0039 5.60543 44.9834 5.6064 44.9568C5.60835 44.9037 5.61203 44.8265 5.61901 44.7289C5.63296 44.5337 5.66008 44.2567 5.7128 43.9276C5.81811 43.2703 6.02629 42.4006 6.43888 41.5594C6.85165 40.7178 7.47183 39.8991 8.40329 39.3539C9.33643 38.8079 10.5688 38.544 12.1906 38.7905C13.845 39.0417 14.9107 40.0996 15.5759 41.5195C16.2388 42.9346 16.51 44.7195 16.5806 46.4604C16.6514 48.2036 16.5213 49.9144 16.374 51.1884C16.3002 51.8257 16.2221 52.3543 16.1623 52.7239C16.1324 52.9087 16.1072 53.0537 16.0893 53.1527C16.0804 53.2023 16.0733 53.2403 16.0685 53.266C16.066 53.2788 16.0642 53.2886 16.0629 53.2952L16.0614 53.3027L16.061 53.3047L16.0609 53.3052C16.0609 53.3053 16.0609 53.3054 15.9273 53.2792Z" fill="#3FB1B5"/>
<path fill-rule="evenodd" clip-rule="evenodd" d="M8.99504 39.361C8.9246 39.3868 8.8465 39.3508 8.82048 39.2804C8.79443 39.21 8.83048 39.1317 8.901 39.1057L8.94818 39.2333C8.901 39.1057 8.90118 39.1056 8.90137 39.1056L8.90188 39.1054L8.90329 39.1049C8.90441 39.1045 8.90589 39.1039 8.90772 39.1033C8.91137 39.102 8.91642 39.1003 8.92283 39.0982C8.93565 39.0941 8.95391 39.0885 8.97725 39.082C9.02392 39.0691 9.09103 39.0528 9.17574 39.0382C9.34508 39.009 9.58547 38.9867 9.87397 39.0122C10.4534 39.0636 11.2194 39.3078 11.9875 40.0635C13.5163 41.5678 15.0375 45.0821 15.1692 53.0956C15.1705 53.1707 15.1105 53.2326 15.0354 53.2338C14.9602 53.2351 14.8982 53.1752 14.897 53.1001C14.7655 45.1 13.2443 41.682 11.7964 40.2574C11.0761 39.5486 10.3703 39.3293 9.84991 39.2832C9.58851 39.26 9.37201 39.2804 9.22195 39.3063C9.14696 39.3192 9.08873 39.3334 9.04999 39.3441C9.03063 39.3495 9.01617 39.354 9.00694 39.357C9.00233 39.3585 8.99902 39.3596 8.99708 39.3603L8.99518 39.3609C8.99512 39.361 8.99507 39.361 8.99504 39.361C8.99504 39.361 8.99504 39.361 8.99504 39.361Z" fill="#3FB1B5"/>
<path d="M21.4766 53.0978H11.9067V60.8825H21.4766V53.0978Z" fill="#FE5244"/>
<path d="M23.4915 56.9924C22.8834 57.2554 22.1574 57.2236 21.4813 56.9289C20.9822 56.7113 20.5102 56.3531 20.1291 55.8635C19.6027 55.1834 19.2488 54.2539 19.2488 53.0978C19.2488 50.2959 17.0163 48.5367 16.0997 52.2454C16.0361 52.5039 15.9772 52.785 15.9272 53.0978V53.0706C15.9272 53.0615 15.9272 53.0479 15.9318 53.0343V53.0162C15.9499 52.785 16.018 52.1004 16.2267 51.2752C16.381 50.6631 16.6124 49.9831 16.9573 49.3528C17.1297 49.04 17.3294 48.7408 17.5653 48.4733C18.1734 47.7751 19.0083 47.2854 20.1472 47.2854C22.2436 47.2854 23.7773 49.7518 24.3627 52.2092C24.8754 54.3446 24.6667 56.4801 23.4915 56.9924Z" fill="white"/>
<path fill-rule="evenodd" clip-rule="evenodd" d="M20.1471 47.4214C19.0533 47.4214 18.2541 47.8895 17.6679 48.5626L17.6676 48.5629L17.6674 48.5632C17.4395 48.8216 17.2453 49.1121 17.0765 49.4183C16.8274 49.8736 16.6381 50.3568 16.4947 50.8217C16.617 50.6139 16.7481 50.4476 16.8858 50.3202C17.071 50.149 17.2704 50.0461 17.4768 50.0123C17.6834 49.9785 17.8871 50.0155 18.0773 50.1078C18.4535 50.2904 18.7792 50.689 19.0099 51.2056C19.242 51.7256 19.3848 52.38 19.3848 53.0978C19.3848 54.2251 19.7295 55.1248 20.2365 55.78C20.604 56.2521 21.0578 56.5959 21.5356 56.8043C22.1834 57.0866 22.8695 57.113 23.4371 56.8677C23.9598 56.6397 24.2929 56.0376 24.4255 55.1885C24.557 54.3457 24.4837 53.2965 24.2302 52.2409L24.2302 52.2407C23.9408 51.026 23.418 49.8141 22.714 48.9093C22.0094 48.0035 21.1373 47.4214 20.1471 47.4214ZM15.7956 53.0181V53.0109L15.796 53.0056C15.8145 52.7695 15.8835 52.0768 16.0946 51.2419M17.4628 48.3837C18.0927 47.6605 18.9633 47.1494 20.1471 47.1494C21.2534 47.1494 22.1963 47.8005 22.929 48.7423C23.6623 49.6849 24.1989 50.9348 24.495 52.1774C24.7543 53.2573 24.8329 54.3435 24.6945 55.2304C24.5571 56.1109 24.1982 56.8327 23.5458 57.1171L23.5454 57.1172C22.8969 57.3977 22.1312 57.3606 21.4268 57.0536C20.9064 56.8267 20.4164 56.4542 20.0215 55.947L20.0213 55.9467C19.4757 55.2417 19.1126 54.2827 19.1126 53.0978C19.1126 52.4147 18.9764 51.7984 18.7612 51.3164C18.5446 50.8311 18.2549 50.4964 17.9584 50.3525C17.8122 50.2816 17.6653 50.2571 17.5208 50.2808C17.376 50.3045 17.2239 50.3782 17.0708 50.5198C16.7612 50.8062 16.4584 51.3612 16.2318 52.2779C16.1691 52.533 16.1109 52.8104 16.0616 53.1192L15.791 53.0978V53.0706C15.791 53.0702 15.791 53.0697 15.791 53.0692C15.791 53.0617 15.7909 53.042 15.7956 53.0181" fill="#3FB1B5"/>
<path fill-rule="evenodd" clip-rule="evenodd" d="M17.6485 48.5842L17.6484 48.5843C17.6484 48.5843 17.6485 48.5843 17.6486 48.5842L17.65 48.5832C17.6514 48.5822 17.6538 48.5806 17.6571 48.5784C17.6638 48.5739 17.6743 48.5671 17.6884 48.5585C17.7166 48.5412 17.759 48.5167 17.8139 48.489C17.924 48.4336 18.083 48.3664 18.2773 48.3198C18.6643 48.2272 19.1906 48.2163 19.7563 48.546C20.3248 48.8773 20.9497 49.5622 21.5102 50.8958C22.0707 52.2293 22.5627 54.202 22.8704 57.0929C22.8784 57.1676 22.9454 57.2217 23.0202 57.2138C23.095 57.2059 23.1491 57.1389 23.1412 57.0642C22.8318 54.1585 22.3357 52.1573 21.7612 50.7905C21.1868 49.4238 20.5298 48.6819 19.8935 48.311C19.2545 47.9386 18.6532 47.9501 18.2138 48.0553C17.9949 48.1077 17.816 48.1834 17.6914 48.2461C17.6291 48.2775 17.58 48.3058 17.546 48.3266C17.529 48.337 17.5158 48.3456 17.5065 48.3518C17.5019 48.3548 17.4982 48.3573 17.4956 48.3591C17.4943 48.36 17.4932 48.3608 17.4924 48.3613L17.4914 48.362L17.4911 48.3623C17.4909 48.3624 17.4908 48.3625 17.5689 48.4721L17.4908 48.3625C17.4295 48.406 17.4152 48.4909 17.4588 48.5521C17.5024 48.6133 17.5873 48.6276 17.6485 48.5842Z" fill="#3FB1B5"/>
<path d="M5.60406 45.0411C5.60406 45.7892 5.51785 48.6501 8.2495 48.7816C10.9811 48.9131 11.2534 44.7918 11.2534 44.7918C11.2534 44.7918 9.91027 41.1466 8.42646 40.7748C5.91716 40.1446 5.60406 45.0411 5.60406 45.0411Z" fill="#3FB1B5"/>
<path d="M19.2488 53.0978H15.9272C16.6941 48.2965 19.2488 50.1009 19.2488 53.0978Z" fill="#3FB1B5"/>
<path opacity="0.4" d="M75.6556 17.8335V47.7615C75.6556 49.371 74.3488 50.6722 72.7425 50.6722H38.4608C36.3099 53.6328 31.8767 53.6464 29.7077 50.6722L29.7032 50.6677C28.841 50.6087 28.0787 50.1689 27.5886 49.5206L28.3782 48.8405L48.5252 31.4668L67.7103 14.9227H72.7425C74.3488 14.9227 75.6556 16.2285 75.6556 17.8335Z" fill="white"/>
<path opacity="0.4" d="M23.4913 57.1284C22.8878 57.4004 22.1572 57.3596 21.4811 57.0649V60.8824H14.416L20.1334 55.9541L21.4856 54.7889L22.5157 53.9003L24.5077 52.2092C25.0885 54.6847 24.7663 56.5435 23.4913 57.1284Z" fill="white"/>
<path d="M83.6556 77.2723V102.508H77.8202L74.1039 92.1389L68.7812 77.2723H83.6556Z" fill="#A0505A"/>
<path d="M68.7812 77.2723H83.6556V85.3743L70.5509 82.2097L68.7812 77.2723Z" fill="#73325A"/>
<path fill-rule="evenodd" clip-rule="evenodd" d="M74.1695 92.0197C74.1696 92.0197 74.1696 92.0197 74.1696 92.0197L74.1706 92.0203C74.1717 92.0208 74.1734 92.0218 74.176 92.0231C74.181 92.0258 74.189 92.0299 74.1999 92.0353C74.2218 92.0462 74.2555 92.0623 74.3011 92.0826C74.3925 92.1231 74.5316 92.1799 74.7197 92.2433C75.0959 92.3702 75.6678 92.5237 76.4438 92.6263C77.9956 92.8313 80.3661 92.8327 83.6221 92.007L83.7917 91.964V102.644H77.7243L73.8542 91.8458L74.1695 92.0197L74.1695 92.0197ZM74.3399 92.3938L77.916 102.372H83.5194V92.3132C80.3189 93.1043 77.969 93.1022 76.4082 92.896C75.6142 92.7911 75.0251 92.6335 74.6326 92.5011C74.5184 92.4625 74.4209 92.4262 74.3399 92.3938Z" fill="white"/>
<path fill-rule="evenodd" clip-rule="evenodd" d="M77.1394 93.3856C76.8487 93.3856 76.6131 93.6211 76.6131 93.9116C76.6131 94.202 76.8487 94.4375 77.1394 94.4375C77.4301 94.4375 77.6658 94.202 77.6658 93.9116C77.6658 93.6211 77.4301 93.3856 77.1394 93.3856ZM76.3408 93.9116C76.3408 93.4709 76.6984 93.1136 77.1394 93.1136C77.5805 93.1136 77.9381 93.4709 77.9381 93.9116C77.9381 94.3523 77.5805 94.7095 77.1394 94.7095C76.6984 94.7095 76.3408 94.3523 76.3408 93.9116Z" fill="white"/>
<path fill-rule="evenodd" clip-rule="evenodd" d="M80.2976 95.5211C80.0069 95.5211 79.7713 95.7566 79.7713 96.047C79.7713 96.3375 80.0069 96.573 80.2976 96.573C80.5883 96.573 80.824 96.3375 80.824 96.047C80.824 95.7566 80.5883 95.5211 80.2976 95.5211ZM79.499 96.047C79.499 95.6063 79.8566 95.2491 80.2976 95.2491C80.7387 95.2491 81.0963 95.6063 81.0963 96.047C81.0963 96.4877 80.7387 96.845 80.2976 96.845C79.8566 96.845 79.499 96.4877 79.499 96.047Z" fill="white"/>
<path fill-rule="evenodd" clip-rule="evenodd" d="M82.6482 93.1499C82.3575 93.1499 82.1219 93.3854 82.1219 93.6758C82.1219 93.9663 82.3575 94.2018 82.6482 94.2018C82.9389 94.2018 83.1746 93.9663 83.1746 93.6758C83.1746 93.3854 82.9389 93.1499 82.6482 93.1499ZM81.8496 93.6758C81.8496 93.2351 82.2072 92.8779 82.6482 92.8779C83.0893 92.8779 83.4468 93.2351 83.4468 93.6758C83.4468 94.1165 83.0893 94.4738 82.6482 94.4738C82.2072 94.4738 81.8496 94.1165 81.8496 93.6758Z" fill="white"/>
<path fill-rule="evenodd" clip-rule="evenodd" d="M81.7181 98.0056C81.4274 98.0056 81.1917 98.2411 81.1917 98.5316C81.1917 98.822 81.4274 99.0575 81.7181 99.0575C82.0088 99.0575 82.2444 98.822 82.2444 98.5316C82.2444 98.2411 82.0088 98.0056 81.7181 98.0056ZM80.9194 98.5316C80.9194 98.0909 81.277 97.7336 81.7181 97.7336C82.1591 97.7336 82.5167 98.0909 82.5167 98.5316C82.5167 98.9723 82.1591 99.3295 81.7181 99.3295C81.277 99.3295 80.9194 98.9723 80.9194 98.5316Z" fill="white"/>
<path fill-rule="evenodd" clip-rule="evenodd" d="M77.802 96.7996C77.5113 96.7996 77.2757 97.0351 77.2757 97.3256C77.2757 97.616 77.5113 97.8515 77.802 97.8515C78.0927 97.8515 78.3284 97.616 78.3284 97.3256C78.3284 97.0351 78.0927 96.7996 77.802 96.7996ZM77.0034 97.3256C77.0034 96.8849 77.361 96.5276 77.802 96.5276C78.2431 96.5276 78.6007 96.8849 78.6007 97.3256C78.6007 97.7663 78.2431 98.1235 77.802 98.1235C77.361 98.1235 77.0034 97.7663 77.0034 97.3256Z" fill="white"/>
<path fill-rule="evenodd" clip-rule="evenodd" d="M78.8819 100.427C78.5912 100.427 78.3555 100.662 78.3555 100.953C78.3555 101.243 78.5912 101.479 78.8819 101.479C79.1726 101.479 79.4082 101.243 79.4082 100.953C79.4082 100.662 79.1726 100.427 78.8819 100.427ZM78.0833 100.953C78.0833 100.512 78.4408 100.155 78.8819 100.155C79.3229 100.155 79.6805 100.512 79.6805 100.953C79.6805 101.393 79.3229 101.751 78.8819 101.751C78.4408 101.751 78.0833 101.393 78.0833 100.953Z" fill="white"/>
<path d="M86.4146 107.214L82.4124 115.515C81.8452 116.853 80.5338 117.723 79.0772 117.723H73.9724C72.6656 117.723 71.8715 116.4 72.3706 115.194L77.5027 102.825C77.7885 102.073 78.2922 101.447 78.9229 101.007C79.5582 100.567 80.3205 100.318 81.1237 100.318C82.2399 100.318 83.3471 101.075 84.0822 101.914L85.861 103.832C86.6823 104.766 86.8955 106.076 86.4146 107.214Z" fill="#66B0F0"/>
<path d="M86.4146 107.214L82.4125 115.515C81.8452 116.853 80.5339 117.723 79.0773 117.723H73.6503C73.1466 117.723 72.8608 117.411 72.6929 116.98H73.8999C75.3565 116.98 76.6678 116.109 77.235 114.772L81.8498 105.156C82.2809 104.258 83.1929 103.682 84.1912 103.682C85.4935 103.682 86.4827 104.634 86.6642 105.84C86.6824 106.303 86.6007 106.77 86.4146 107.214Z" fill="white"/>
<path fill-rule="evenodd" clip-rule="evenodd" d="M84.1911 103.818C83.2453 103.818 82.3809 104.364 81.9724 105.214L77.359 114.828C76.7699 116.214 75.4101 117.116 73.8998 117.116H72.9046C72.9687 117.235 73.0444 117.334 73.1338 117.41C73.2636 117.52 73.4293 117.587 73.6502 117.587H79.0772C80.479 117.587 81.7411 116.75 82.287 115.462C82.2879 115.46 82.2888 115.458 82.2897 115.456L86.2903 107.158C86.4667 106.736 86.5445 106.292 86.5284 105.853C86.3532 104.712 85.4183 103.818 84.1911 103.818ZM81.727 105.097C82.1806 104.152 83.1403 103.546 84.1911 103.546C85.5659 103.546 86.608 104.553 86.7987 105.82C86.7995 105.825 86.7999 105.83 86.8001 105.835C86.819 106.317 86.7339 106.804 86.5401 107.266C86.5392 107.269 86.5382 107.271 86.5372 107.273L82.5364 115.572C81.9472 116.957 80.5874 117.859 79.0772 117.859H73.6502C73.3674 117.859 73.1384 117.771 72.9574 117.617C72.7791 117.465 72.6548 117.257 72.5659 117.029C72.5496 116.987 72.555 116.94 72.5804 116.903C72.6058 116.866 72.6478 116.844 72.6928 116.844H73.8998C75.3016 116.844 76.5637 116.006 77.1096 114.719C77.1099 114.718 77.1101 114.718 77.1104 114.717C77.111 114.716 77.1116 114.714 77.1122 114.713L81.7269 105.097L81.727 105.097Z" fill="#66B0F0"/>
<path d="M85.4935 103.433C85.0125 103.17 84.4317 102.979 83.9235 102.979C82.9479 102.979 82.0449 103.546 81.6229 104.426L76.8448 114.382C76.2367 115.819 74.8301 116.749 73.2646 116.749H72.3843C72.3389 116.662 72.3072 116.572 72.2754 116.477H73.2646C74.7212 116.477 76.028 115.611 76.5952 114.273L76.5997 114.269L81.3824 104.308C81.8498 103.333 82.848 102.707 83.928 102.707C84.2729 102.707 84.6858 102.821 85.0397 102.943L85.4935 103.433Z" fill="white"/>
<path d="M68.7812 77.2723L67.6423 92.1389L67.134 98.7991C67.134 98.7991 63.817 102.49 60.0417 100.214L58.2948 92.1434L54.2971 73.677C53.2172 68.6852 56.6295 63.8294 61.698 63.1539L68.7812 77.2723Z" fill="#A0505A"/>
<path fill-rule="evenodd" clip-rule="evenodd" d="M58.114 91.9473L58.3338 92.0131C60.5042 92.6635 62.8216 92.6634 64.6013 92.4988C65.4902 92.4165 66.2428 92.2934 66.7728 92.1909C67.0378 92.1397 67.247 92.0937 67.3897 92.0605C67.461 92.0439 67.5157 92.0306 67.5524 92.0214C67.5707 92.0168 67.5846 92.0133 67.5938 92.0109C67.5984 92.0097 67.6018 92.0088 67.604 92.0083L67.6065 92.0076L67.607 92.0075L67.7921 91.9582L67.2663 99.0368L67.2352 99.0713L67.134 98.9805C67.2352 99.0713 67.2352 99.0714 67.2351 99.0715L67.2343 99.0724L67.2322 99.0747C67.2304 99.0767 67.2277 99.0796 67.2243 99.0833C67.2175 99.0907 67.2075 99.1014 67.1944 99.1151C67.1682 99.1426 67.1297 99.1822 67.0796 99.2315C66.9793 99.3302 66.8323 99.4679 66.6442 99.6257C66.2685 99.941 65.7266 100.338 65.0635 100.663C63.7355 101.315 61.9109 101.681 59.9713 100.511L59.9207 100.481L58.114 91.9473ZM67.0017 98.9228L67.4925 92.3158C67.4795 92.3189 67.4657 92.3221 67.4513 92.3255C67.3056 92.3593 67.0931 92.4061 66.8245 92.458C66.2875 92.5618 65.5259 92.6864 64.6264 92.7696C62.8885 92.9304 60.6274 92.9378 58.4748 92.3371L60.1625 100.309C61.9793 101.379 63.681 101.038 64.9436 100.419C65.5816 100.106 66.105 99.7229 66.4692 99.4174C66.651 99.2648 66.7927 99.132 66.8886 99.0377C66.9365 98.9905 66.9729 98.9531 66.9972 98.9276C66.9988 98.9259 67.0003 98.9243 67.0017 98.9228Z" fill="white"/>
<path fill-rule="evenodd" clip-rule="evenodd" d="M62.4285 95.0632C62.1378 95.0632 61.9021 95.2987 61.9021 95.5891C61.9021 95.8796 62.1378 96.1151 62.4285 96.1151C62.7192 96.1151 62.9549 95.8796 62.9549 95.5891C62.9549 95.2987 62.7192 95.0632 62.4285 95.0632ZM61.6299 95.5891C61.6299 95.1484 61.9874 94.7912 62.4285 94.7912C62.8696 94.7912 63.2271 95.1484 63.2271 95.5891C63.2271 96.0298 62.8696 96.3871 62.4285 96.3871C61.9874 96.3871 61.6299 96.0298 61.6299 95.5891Z" fill="white"/>
<path fill-rule="evenodd" clip-rule="evenodd" d="M66.6394 94.0476C66.3487 94.0476 66.1131 94.2831 66.1131 94.5736C66.1131 94.864 66.3487 95.0995 66.6394 95.0995C66.9301 95.0995 67.1658 94.864 67.1658 94.5736C67.1658 94.2831 66.9301 94.0476 66.6394 94.0476ZM65.8408 94.5736C65.8408 94.1329 66.1984 93.7756 66.6394 93.7756C67.0805 93.7756 67.4381 94.1329 67.4381 94.5736C67.4381 95.0143 67.0805 95.3715 66.6394 95.3715C66.1984 95.3715 65.8408 95.0143 65.8408 94.5736Z" fill="white"/>
<path fill-rule="evenodd" clip-rule="evenodd" d="M59.8875 93.1499C59.5968 93.1499 59.3611 93.3854 59.3611 93.6759C59.3611 93.9663 59.5968 94.2018 59.8875 94.2018C60.1782 94.2018 60.4139 93.9663 60.4139 93.6759C60.4139 93.3854 60.1782 93.1499 59.8875 93.1499ZM59.0889 93.6759C59.0889 93.2351 59.4464 92.8779 59.8875 92.8779C60.3286 92.8779 60.6861 93.2351 60.6861 93.6759C60.6861 94.1166 60.3286 94.4738 59.8875 94.4738C59.4464 94.4738 59.0889 94.1166 59.0889 93.6759Z" fill="white"/>
<path fill-rule="evenodd" clip-rule="evenodd" d="M61.7659 98.6676C61.4752 98.6676 61.2395 98.9031 61.2395 99.1936C61.2395 99.484 61.4752 99.7195 61.7659 99.7195C62.0566 99.7195 62.2923 99.484 62.2923 99.1936C62.2923 98.9031 62.0566 98.6676 61.7659 98.6676ZM60.9673 99.1936C60.9673 98.7529 61.3248 98.3956 61.7659 98.3956C62.207 98.3956 62.5645 98.7529 62.5645 99.1936C62.5645 99.6343 62.207 99.9915 61.7659 99.9915C61.3248 99.9915 60.9673 99.6343 60.9673 99.1936Z" fill="white"/>
<path fill-rule="evenodd" clip-rule="evenodd" d="M64.856 97.3437C64.5653 97.3437 64.3296 97.5792 64.3296 97.8697C64.3296 98.1601 64.5653 98.3956 64.856 98.3956C65.1467 98.3956 65.3824 98.1601 65.3824 97.8697C65.3824 97.5792 65.1467 97.3437 64.856 97.3437ZM64.0574 97.8697C64.0574 97.429 64.4149 97.0717 64.856 97.0717C65.2971 97.0717 65.6546 97.429 65.6546 97.8697C65.6546 98.3104 65.2971 98.6676 64.856 98.6676C64.4149 98.6676 64.0574 98.3104 64.0574 97.8697Z" fill="white"/>
<path d="M71.5082 100.386L67.1339 117.864H65.7545C65.691 117.864 65.632 117.859 65.5685 117.855C64.5248 117.76 63.6445 116.88 63.4222 115.842L60.0371 100.205C63.8124 102.485 67.1339 98.7946 67.1339 98.7946L71.5082 100.386Z" fill="#66B0F0"/>
<path d="M71.7307 109.354C72.6518 104.494 72.9059 100.78 71.3177 100.481C69.7296 100.182 66.9026 103.405 65.9815 108.266C65.0604 113.126 65.5414 117.424 67.1295 117.723C68.7177 118.027 70.8095 114.219 71.7307 109.354Z" fill="white"/>
<path fill-rule="evenodd" clip-rule="evenodd" d="M69.8677 100.775C70.3841 100.43 70.8956 100.263 71.3429 100.347C71.8014 100.434 72.1127 100.768 72.3082 101.26C72.5024 101.749 72.5912 102.413 72.6012 103.205C72.6212 104.793 72.3251 106.948 71.8643 109.379C71.4018 111.822 70.6445 114.005 69.7994 115.542C69.3773 116.31 68.9295 116.925 68.4799 117.329C68.0327 117.731 67.5621 117.945 67.1038 117.857C66.6452 117.77 66.2901 117.4 66.0281 116.862C65.7648 116.322 65.582 115.588 65.4792 114.721C65.2736 112.984 65.3852 110.68 65.8476 108.24C66.3117 105.792 67.2564 103.751 68.29 102.358C68.8066 101.661 69.3484 101.122 69.8677 100.775ZM68.5088 102.52C67.5015 103.878 66.5722 105.879 66.1151 108.291C65.6564 110.711 65.548 112.987 65.7496 114.689C65.8505 115.541 66.0282 116.241 66.2729 116.743C66.5189 117.248 66.8194 117.527 67.1546 117.59L67.155 117.59C67.4908 117.654 67.8773 117.505 68.2977 117.127C68.7158 116.751 69.1463 116.166 69.5608 115.411C70.389 113.905 71.1382 111.751 71.5968 109.329L71.5968 109.329C72.0571 106.9 72.3486 104.768 72.329 103.209C72.3191 102.428 72.2312 101.804 72.0552 101.36C71.8804 100.92 71.6279 100.678 71.2924 100.615C70.9456 100.549 70.5082 100.674 70.0191 101.001C69.5329 101.326 69.0126 101.84 68.5088 102.52Z" fill="#66B0F0"/>
<path d="M65.3462 108.189C64.8698 110.71 64.7291 113.144 64.956 115.048C65.1193 116.418 65.4642 117.392 65.9361 117.864H65.7546C65.6911 117.864 65.6321 117.859 65.5686 117.855C65.142 117.293 64.838 116.35 64.6837 115.08C64.4523 113.153 64.593 110.687 65.0785 108.139C65.5368 105.727 66.4625 103.464 67.6922 101.764C68.4273 100.749 69.1987 100.037 69.902 99.7149L70.3104 99.851C68.6905 100.332 66.2311 103.523 65.3462 108.189Z" fill="white"/>
<path d="M61.698 63.1494L82.3986 61.0185L103.09 66.8173L102.913 69.5648C102.632 73.8992 98.8929 77.2723 94.5458 77.2723H68.7858L61.698 63.1494Z" fill="#FE5244"/>
<path fill-rule="evenodd" clip-rule="evenodd" d="M101.91 66.4818C101.986 66.4818 102.046 66.5427 102.046 66.6178C102.046 68.627 101.046 70.8456 99.5034 72.5597C97.9608 74.274 95.8576 75.5042 93.6337 75.5042H67.8737C67.7985 75.5042 67.7375 75.4433 67.7375 75.3681C67.7375 75.293 67.7985 75.2321 67.8737 75.2321H93.6337C95.757 75.2321 97.792 74.0548 99.301 72.3778C100.81 70.7005 101.774 68.544 101.774 66.6178C101.774 66.5427 101.835 66.4818 101.91 66.4818Z" fill="white"/>
<path fill-rule="evenodd" clip-rule="evenodd" d="M99.48 65.6996C99.5539 65.7132 99.6029 65.7841 99.5894 65.8579C99.2615 67.646 98.2249 69.4875 96.7963 70.8823C95.3677 72.2769 93.534 73.2372 91.6054 73.2372H66.83C66.7548 73.2372 66.6938 73.1763 66.6938 73.1012C66.6938 73.0261 66.7548 72.9652 66.83 72.9652H91.6054C93.443 72.9652 95.2121 72.0485 96.606 70.6877C97.9998 69.327 99.0051 67.5346 99.3216 65.8089C99.3351 65.735 99.406 65.6861 99.48 65.6996Z" fill="white"/>
<path fill-rule="evenodd" clip-rule="evenodd" d="M96.7115 64.8714C96.7821 64.8972 96.8185 64.9752 96.7927 65.0458C96.2399 66.5602 95.2151 68.0273 93.9228 69.1168C92.6307 70.2061 91.0625 70.925 89.4228 70.925H65.5141C65.4389 70.925 65.3779 70.8641 65.3779 70.7889C65.3779 70.7138 65.4389 70.6529 65.5141 70.6529H89.4228C90.9821 70.6529 92.4904 69.9685 93.7473 68.9089C95.004 67.8493 96.0007 66.4215 96.5369 64.9526C96.5627 64.882 96.6408 64.8457 96.7115 64.8714Z" fill="white"/>
<path fill-rule="evenodd" clip-rule="evenodd" d="M94.5934 64.3007C94.6562 64.342 94.6737 64.4263 94.6324 64.4891C93.1877 66.684 90.8046 68.4313 88.2431 68.4313H64.3344C64.2592 68.4313 64.1982 68.3704 64.1982 68.2953C64.1982 68.2202 64.2592 68.1593 64.3344 68.1593H88.2431C90.682 68.1593 92.9908 66.488 94.4049 64.3396C94.4462 64.2768 94.5306 64.2594 94.5934 64.3007Z" fill="white"/>
<path fill-rule="evenodd" clip-rule="evenodd" d="M92.2186 63.6468C92.2719 63.6998 92.2722 63.7859 92.2192 63.8392C90.8253 65.2411 89.0136 66.1644 87.1086 66.1644H63.1998C63.1247 66.1644 63.0637 66.1035 63.0637 66.0284C63.0637 65.9533 63.1247 65.8924 63.1998 65.8924H87.1086C88.9244 65.8924 90.6702 65.0111 92.0261 63.6475C92.0791 63.5942 92.1652 63.5939 92.2186 63.6468Z" fill="white"/>
<path fill-rule="evenodd" clip-rule="evenodd" d="M89.1239 62.7741C89.1609 62.8395 89.1378 62.9225 89.0724 62.9595C88.0847 63.5175 87 63.8521 85.8835 63.8521H61.9748C61.8996 63.8521 61.8386 63.7912 61.8386 63.7161C61.8386 63.641 61.8996 63.5801 61.9748 63.5801H85.8835C86.945 63.5801 87.9839 63.2619 88.9384 62.7227C89.0038 62.6857 89.0869 62.7088 89.1239 62.7741Z" fill="white"/>
<path fill-rule="evenodd" clip-rule="evenodd" d="M61.5915 63.0278C61.6587 62.9941 61.7405 63.0213 61.7742 63.0884L68.8574 77.2114C68.8911 77.2786 68.8639 77.3603 68.7967 77.3939C68.7295 77.4276 68.6477 77.4004 68.614 77.3333L61.5308 63.2103C61.4971 63.1432 61.5243 63.0614 61.5915 63.0278Z" fill="white"/>
<path d="M104.225 47.8929C102.273 48.4461 100.354 48.2829 100.15 47.6889C99.9592 47.1222 100.821 46.1519 102.568 45.5081C102.655 45.4764 102.745 45.4447 102.836 45.4129C103.362 45.2361 103.889 45.1228 104.383 45.0638C105.849 44.8779 107.042 45.1409 107.192 45.5852C107.396 46.1791 106.289 47.3081 104.225 47.8929Z" fill="white"/>
<path fill-rule="evenodd" clip-rule="evenodd" d="M106.255 45.2217C105.772 45.127 105.122 45.1072 104.4 45.1987L104.399 45.1989C103.914 45.2567 103.397 45.368 102.88 45.5416C102.789 45.5733 102.7 45.6046 102.615 45.6358C101.754 45.953 101.12 46.3479 100.727 46.7255C100.53 46.9144 100.398 47.0951 100.326 47.2554C100.254 47.4155 100.245 47.5457 100.279 47.6451C100.309 47.7342 100.418 47.8358 100.646 47.9219C100.868 48.0056 101.173 48.0628 101.54 48.0853C102.273 48.1302 103.225 48.0349 104.187 47.7621L104.187 47.7621C105.205 47.4738 105.98 47.0533 106.471 46.6385C106.718 46.4308 106.888 46.2285 106.985 46.0494C107.083 45.8687 107.097 45.728 107.063 45.6294L107.063 45.6286C107.042 45.5648 106.974 45.4869 106.831 45.4098C106.692 45.3342 106.497 45.2691 106.255 45.2217ZM107.321 45.5415C107.268 45.3832 107.13 45.2618 106.961 45.1705C106.789 45.0776 106.566 45.0053 106.307 44.9547C105.79 44.8533 105.111 44.8345 104.367 44.9288C103.863 44.9888 103.328 45.1042 102.793 45.284L102.791 45.2845L102.79 45.2849C102.7 45.3165 102.608 45.3484 102.521 45.3805L102.521 45.3805C101.635 45.707 100.965 46.1192 100.538 46.5294C100.325 46.7343 100.168 46.9427 100.077 47.1438C99.9869 47.3449 99.9588 47.5483 100.021 47.7322L100.021 47.7331C100.092 47.9409 100.3 48.0823 100.55 48.1764C100.806 48.2731 101.141 48.3334 101.524 48.3568C102.29 48.4038 103.273 48.3041 104.262 48.0238C105.309 47.7272 106.12 47.2908 106.647 46.8464C106.91 46.6245 107.107 46.3967 107.225 46.1788C107.342 45.9627 107.389 45.7397 107.321 45.5415Z" fill="#3FB1B5"/>
<path d="M102.99 61.1137H102.242L100.277 47.8612V47.8521L100.227 47.5211C100.322 46.9181 101.266 46.0658 102.931 45.5126C103.762 45.2361 104.587 45.1137 105.291 45.1001L106.008 47.0632L106.076 47.2491L108.345 53.465C109.706 57.1783 106.952 61.1137 102.99 61.1137Z" fill="#A0505A"/>
<path d="M106.053 47.2038C105.577 47.503 104.96 47.7796 104.224 47.9881C102.536 48.4642 100.826 48.2692 100.277 47.8612V47.8521L100.227 47.5211C100.322 46.9181 101.266 46.0658 102.931 45.5126C103.762 45.2361 104.587 45.1137 105.291 45.1001L106.053 47.2038Z" fill="#73325A"/>
<path d="M78.6869 50.2097L76.3046 56.131C75.1294 59.0553 72.2888 60.9731 69.1306 60.9731H37.1086V58.0443C37.1086 57.337 37.5443 56.7022 38.2067 56.4529L41.4965 55.2061C41.796 55.0927 42.1091 55.0338 42.4267 55.0338H46.1612L67.2974 52.9029L70.9457 44.556L78.6869 50.2097Z" fill="#A0505A"/>
<path fill-rule="evenodd" clip-rule="evenodd" d="M40.6846 56.9578C40.7112 57.0281 40.6757 57.1066 40.6054 57.1332L38.1237 58.0716C38.1237 58.0716 38.1236 58.0716 38.1235 58.0716C37.6768 58.2422 37.3809 58.6679 37.3809 59.146C37.3809 59.2211 37.32 59.282 37.2448 59.282C37.1696 59.282 37.1086 59.2211 37.1086 59.146C37.1086 58.5541 37.4752 58.0278 38.0266 57.8174L38.027 57.8173L38.027 57.8173L40.5091 56.8788C40.5794 56.8522 40.6579 56.8876 40.6846 56.9578Z" fill="#73325A"/>
<path fill-rule="evenodd" clip-rule="evenodd" d="M40.6846 58.454C40.7112 58.5243 40.6757 58.6028 40.6054 58.6294L38.1237 59.5678C38.1237 59.5678 38.1236 59.5678 38.1235 59.5678C37.6768 59.7383 37.3809 60.1641 37.3809 60.6422C37.3809 60.7173 37.32 60.7782 37.2448 60.7782C37.1696 60.7782 37.1086 60.7173 37.1086 60.6422C37.1086 60.0503 37.4752 59.524 38.0266 59.3136L38.027 59.3135L38.027 59.3135L40.5091 58.375C40.5794 58.3484 40.6579 58.3838 40.6846 58.454Z" fill="#73325A"/>
<path fill-rule="evenodd" clip-rule="evenodd" d="M40.6853 59.8979C40.7108 59.9685 40.6741 60.0465 40.6033 60.0719L38.1213 60.9651C38.0505 60.9905 37.9725 60.9539 37.9471 60.8832C37.9216 60.8125 37.9583 60.7346 38.029 60.7091L40.5111 59.816C40.5818 59.7905 40.6598 59.8272 40.6853 59.8979Z" fill="#73325A"/>
<path d="M40.2986 55.7093C40.2986 55.7093 42.6218 49.7836 43.366 49.8833C44.1102 49.9831 41.3059 55.3285 41.3059 55.3285L40.2986 55.7093Z" fill="#FE5244"/>
<path d="M70.9456 44.5606L70.4102 45.7802L77.2665 53.7371L78.6868 50.2098L70.9456 44.5606Z" fill="#73325A"/>
<path d="M100.277 47.8657L103.09 66.8173L82.4031 61.0185L78.6868 50.2052L69.0942 43.2004L72.4612 39.1925C75.4651 35.6153 79.8983 33.5478 84.5721 33.5478H91.2197C97.0006 33.5478 102.323 36.7034 105.096 41.7722L107.251 45.4991C107.251 45.4991 106.602 44.547 103.104 45.5036C100.023 46.3514 100.277 47.8657 100.277 47.8657Z" fill="#3FB1B5"/>
<path fill-rule="evenodd" clip-rule="evenodd" d="M79.7927 45.3257C79.866 45.3426 79.9117 45.4156 79.8948 45.4888L78.8193 50.1496C78.8025 50.2228 78.7294 50.2685 78.6561 50.2516C78.5829 50.2347 78.5372 50.1617 78.554 50.0885L79.6295 45.4277C79.6464 45.3545 79.7194 45.3089 79.7927 45.3257Z" fill="white"/>
<path fill-rule="evenodd" clip-rule="evenodd" d="M99.0481 40.5272C99.1224 40.5152 99.1922 40.5657 99.2041 40.6399L102.703 62.3706C102.715 62.4448 102.664 62.5146 102.59 62.5265C102.516 62.5385 102.446 62.488 102.434 62.4138L98.9353 40.6831C98.9234 40.6089 98.9739 40.5391 99.0481 40.5272Z" fill="white"/>
<path fill-rule="evenodd" clip-rule="evenodd" d="M82.2677 60.895C82.2883 60.8228 82.3637 60.7809 82.436 60.8015L103.082 66.6865C103.154 66.7071 103.196 66.7823 103.176 66.8546C103.155 66.9268 103.08 66.9687 103.007 66.9481L82.3613 61.0631C82.289 61.0425 82.2471 60.9672 82.2677 60.895Z" fill="white"/>
<path d="M83.5149 30.5192V33.566L88.8965 33.5206V28.1435L83.5149 30.5192Z" fill="#A0505A"/>
<path d="M89.3322 27.205V27.2866C89.3322 28.1027 88.7151 28.7646 87.8983 28.7646H87.5807C87.3765 29.5716 85.5614 30.5147 84.2728 30.5147H82.7708C81.1282 30.5147 79.8713 29.0412 80.139 27.418L80.2116 26.9783L79.7669 26.7289C79.5128 26.5838 79.4402 26.2528 79.6172 26.0171L80.5791 24.7476L80.7879 23.4963C80.9558 22.4671 81.6319 21.6283 82.5303 21.2157C82.8843 25.201 86.4054 25.6725 87.3357 25.7269H87.8529C88.6697 25.7269 89.3322 26.3889 89.3322 27.205Z" fill="#A0505A"/>
<path fill-rule="evenodd" clip-rule="evenodd" d="M88.116 26.5657C87.5469 26.5657 87.086 27.0262 87.086 27.5949C87.086 27.67 87.025 27.7309 86.9498 27.7309C86.8747 27.7309 86.8137 27.67 86.8137 27.5949C86.8137 26.8759 87.3965 26.2936 88.116 26.2936C88.1912 26.2936 88.2521 26.3545 88.2521 26.4297C88.2521 26.5048 88.1912 26.5657 88.116 26.5657Z" fill="#73325A"/>
<path d="M87.3358 25.7269H87.853C88.6698 25.7269 89.3323 26.3889 89.3323 27.2049V27.2866C89.3323 28.1027 88.7152 28.7646 87.8984 28.7646L87.549 29.0094C86.0788 29.9525 84.046 33.6612 84.5451 36.2863C85.1078 39.2378 87.6806 39.8952 90.0583 39.4418C92.436 38.9884 94.1694 37.6056 93.6067 34.6495C93.5432 34.3004 93.4389 33.9513 93.3073 33.6068C93.3481 33.6204 93.3844 33.634 93.4252 33.6476C96.2839 34.4274 99.6418 34.5181 100.567 32.2874C101.493 30.0567 101.284 27.8488 98.5028 26.6972C96.8874 26.0261 94.6912 26.0307 92.9896 26.4931C93.8472 23.5144 92.3226 20.2001 89.5229 19.8692C85.1259 19.3478 82.603 21.1613 82.535 21.2112C82.5304 21.7371 82.8889 25.4685 87.3358 25.7269Z" fill="#73325A"/>
<path fill-rule="evenodd" clip-rule="evenodd" d="M93.143 26.2588C93.2148 26.2809 93.2552 26.357 93.2331 26.4288C92.8831 27.5663 92.1758 28.784 91.0338 29.6481C91.0876 29.689 91.1536 29.7409 91.2291 29.8037C91.4404 29.9794 91.7268 30.2407 92.0289 30.5848C92.6327 31.2723 93.3033 32.2945 93.5588 33.6265C93.573 33.7003 93.5246 33.7715 93.4508 33.7857C93.3769 33.7998 93.3056 33.7515 93.2914 33.6777C93.0478 32.4073 92.4071 31.4278 91.8243 30.7642C91.5331 30.4327 91.2574 30.1811 91.0549 30.0128C90.9537 29.9287 90.871 29.8655 90.814 29.8236C90.7854 29.8026 90.7634 29.787 90.7486 29.7767C90.7413 29.7716 90.7357 29.7678 90.7321 29.7654C90.7304 29.7642 90.7291 29.7633 90.7283 29.7628L90.7274 29.7622L90.7274 29.7622C90.7274 29.7622 90.7273 29.7622 90.7273 29.7622C90.7273 29.7622 90.7274 29.7622 90.8024 29.6487M93.143 26.2588C93.0711 26.2368 92.9949 26.2771 92.9728 26.3489L93.143 26.2588ZM92.9728 26.3489C92.6212 27.4919 91.8967 28.7107 90.7239 29.5376L92.9728 26.3489ZM90.7239 29.5376C90.6871 29.5635 90.6656 29.6059 90.6663 29.6508L90.7239 29.5376ZM90.6663 29.6508C90.667 29.6957 90.6898 29.7374 90.7273 29.7622L90.6663 29.6508Z" fill="white"/>
<path fill-rule="evenodd" clip-rule="evenodd" d="M94.2741 24.0857C93.7186 24.0857 93.2713 24.5326 93.2713 25.0876V26.1531H94.3376C94.8937 26.1531 95.3444 25.7013 95.3404 25.1521L95.3404 25.1511V25.0876C95.3404 24.5326 94.8932 24.0857 94.3376 24.0857H94.2741ZM92.999 25.0876C92.999 24.3823 93.5682 23.8136 94.2741 23.8136H94.3376C95.0435 23.8136 95.6127 24.3823 95.6127 25.0876V25.1506C95.6175 25.8525 95.0428 26.4251 94.3376 26.4251H93.1352C93.06 26.4251 92.999 26.3642 92.999 26.2891V25.0876Z" fill="#FE5244"/>
<path fill-rule="evenodd" clip-rule="evenodd" d="M96.0464 26.008C95.701 25.4599 94.973 25.2969 94.4236 25.6425L93.3136 26.3408L94.0125 27.4499C94.3574 27.9972 95.0806 28.1614 95.6398 27.8153L95.7524 27.7433L95.7532 27.7427C96.3016 27.3978 96.4648 26.6707 96.1192 26.1217C96.1191 26.1216 96.1191 26.1214 96.119 26.1213L96.0469 26.0088L96.0464 26.008ZM96.2765 25.8626C95.8503 25.1868 94.9541 24.9873 94.2785 25.4123L93.0534 26.1831C92.9897 26.2231 92.9706 26.3071 93.0107 26.3707L93.7821 27.5948C94.2084 28.2713 95.1001 28.47 95.7841 28.046L95.7857 28.0449L95.8987 27.9727C96.5751 27.5469 96.7747 26.6514 96.3494 25.9764L96.3488 25.9755L96.2768 25.863C96.2767 25.8629 96.2766 25.8627 96.2765 25.8626Z" fill="#FE5244"/>
<path fill-rule="evenodd" clip-rule="evenodd" d="M87.6545 28.7511C87.6915 28.7526 87.7263 28.7692 87.7508 28.7969L88.5903 29.7444L88.5912 29.7455C89.0536 30.2785 88.9928 31.0857 88.459 31.5429C88.4582 31.5435 88.4574 31.5442 88.4566 31.5449L88.4081 31.5845C87.8747 32.045 87.0679 31.9839 86.6108 31.451C86.6101 31.4502 86.6095 31.4494 86.6088 31.4486L86.5694 31.4005C86.1083 30.8721 86.17 30.0681 86.6995 29.6071L87.5548 28.7888C87.5815 28.7632 87.6175 28.7496 87.6545 28.7511ZM87.6408 29.0831L86.8855 29.8059C86.8838 29.8074 86.8822 29.809 86.8805 29.8104C86.46 30.1745 86.4134 30.8092 86.7758 31.2231C86.7768 31.2242 86.7777 31.2253 86.7787 31.2265L86.8185 31.2751C87.1779 31.6929 87.8123 31.7405 88.2313 31.3776C88.2319 31.3771 88.2324 31.3767 88.233 31.3762C88.2334 31.3758 88.2338 31.3755 88.2343 31.3751L88.2829 31.3353C88.7008 30.9764 88.7486 30.3429 88.3859 29.9242L87.6408 29.0831Z" fill="#FE5244"/>
<path fill-rule="evenodd" clip-rule="evenodd" d="M90.5352 29.4674C90.3601 28.8414 89.7136 28.4761 89.0875 28.6508L89.0873 28.6508L87.8254 28.9999L88.1746 30.2602C88.1747 30.2603 88.1747 30.2604 88.1747 30.2605C88.3498 30.8825 88.9969 31.2522 89.623 31.0817C89.623 31.0817 89.6231 31.0817 89.6232 31.0817L89.754 31.0456C89.754 31.0456 89.7541 31.0456 89.7542 31.0456C90.3807 30.8706 90.7463 30.2246 90.5715 29.5991L90.5714 29.5987L90.5352 29.4677C90.5352 29.4676 90.5352 29.4675 90.5352 29.4674ZM89.0145 28.3887C89.7859 28.1736 90.5822 28.6243 90.7974 29.3945L90.7976 29.3949L90.8337 29.526C90.8338 29.526 90.8338 29.5261 90.8338 29.5262C91.0491 30.297 90.598 31.0926 89.8272 31.3076L89.8268 31.3077L89.6952 31.344L89.6948 31.3441C88.9234 31.5543 88.1277 31.099 87.9125 30.3338L87.9124 30.3333L87.5267 28.9414C87.5066 28.869 87.5491 28.7941 87.6216 28.7741L89.0143 28.3888C89.0144 28.3887 89.0144 28.3887 89.0145 28.3887Z" fill="#FE5244"/>
<path fill-rule="evenodd" clip-rule="evenodd" d="M75.6888 80.6259C75.7623 80.6416 75.8092 80.7138 75.7934 80.7873L67.8889 117.752C67.8732 117.825 67.8009 117.872 67.7273 117.856C67.6538 117.841 67.607 117.768 67.6227 117.695L75.5272 80.7305C75.5429 80.657 75.6152 80.6102 75.6888 80.6259Z" fill="#FFCF2D"/>
<path fill-rule="evenodd" clip-rule="evenodd" d="M95.8606 80.6259C95.9342 80.6102 96.0065 80.657 96.0222 80.7305L103.927 117.695C103.942 117.768 103.896 117.841 103.822 117.856C103.749 117.872 103.676 117.825 103.66 117.752L95.756 80.7873C95.7403 80.7138 95.7871 80.6416 95.8606 80.6259Z" fill="#FFCF2D"/>
<path fill-rule="evenodd" clip-rule="evenodd" d="M69.3711 109.517C69.3711 109.442 69.432 109.381 69.5072 109.381H101.933C102.008 109.381 102.069 109.442 102.069 109.517C102.069 109.592 102.008 109.653 101.933 109.653H69.5072C69.432 109.653 69.3711 109.592 69.3711 109.517Z" fill="#FFCF2D"/>
<path d="M102.11 80.7589H69.4347C69.0218 80.7589 68.686 80.4234 68.686 80.0108V78.0204C68.686 77.6078 69.0218 77.2723 69.4347 77.2723H102.11C102.523 77.2723 102.859 77.6078 102.859 78.0204V80.0108C102.859 80.4234 102.523 80.7589 102.11 80.7589Z" fill="white"/>
<path fill-rule="evenodd" clip-rule="evenodd" d="M69.4346 77.4084C69.0969 77.4084 68.8221 77.683 68.8221 78.0204V80.0108C68.8221 80.3483 69.0969 80.6229 69.4346 80.6229H102.11C102.448 80.6229 102.723 80.3483 102.723 80.0108V78.0204C102.723 77.683 102.448 77.4084 102.11 77.4084H69.4346ZM68.5498 78.0204C68.5498 77.5327 68.9465 77.1363 69.4346 77.1363H102.11C102.598 77.1363 102.995 77.5327 102.995 78.0204V80.0108C102.995 80.4985 102.598 80.8949 102.11 80.8949H69.4346C68.9465 80.8949 68.5498 80.4985 68.5498 80.0108V78.0204Z" fill="#66B0F0"/>
</g>
<defs>
<clipPath id="clip0_233_499">
<rect width="129" height="118" fill="white"/>
</clipPath>
</defs>
</svg>
