<svg width="12" height="9" viewBox="0 0 12 9" fill="none" xmlns="http://www.w3.org/2000/svg">
<path d="M11.23 1.5C10.845 1.675 10.43 1.79 10 1.845C10.44 1.58 10.78 1.16 10.94 0.655C10.525 0.905 10.065 1.08 9.58002 1.18C9.18502 0.75 8.63002 0.5 8.00002 0.5C6.82502 0.5 5.86502 1.46 5.86502 2.645C5.86502 2.815 5.88502 2.98 5.92002 3.135C4.14002 3.045 2.55502 2.19 1.50002 0.895C1.31502 1.21 1.21002 1.58 1.21002 1.97C1.21002 2.715 1.58502 3.375 2.16502 3.75C1.81002 3.75 1.48002 3.65 1.19002 3.5V3.515C1.19002 4.555 1.93002 5.425 2.91002 5.62C2.59538 5.7061 2.26507 5.71808 1.94502 5.655C2.08082 6.08124 2.34679 6.4542 2.70553 6.72147C3.06427 6.98873 3.49774 7.13685 3.94502 7.145C3.18683 7.74522 2.24702 8.06966 1.28002 8.065C1.11002 8.065 0.94002 8.055 0.77002 8.035C1.72002 8.645 2.85002 9 4.06002 9C8.00002 9 10.165 5.73 10.165 2.895C10.165 2.8 10.165 2.71 10.16 2.615C10.58 2.315 10.94 1.935 11.23 1.5Z" fill="#393F44"/>
</svg>
