<svg width="170" height="71" viewBox="0 0 170 71" fill="none" xmlns="http://www.w3.org/2000/svg">
<path d="M9.61047 6.00293V18.0343L19.1092 30.7533H23.8267L33.7804 18.0343V6.00293L21.5358 21.957L9.61047 6.00293Z" fill="#112445"/>
<path d="M8.09401 0V0.0173506L8.07791 0H8.09401Z" fill="black"/>
<path d="M8.07792 4.46606H0V10.8935H8.07792V4.46606Z" fill="#112445"/>
<path d="M43.2472 4.66138H35.1693V10.8936H43.2472V4.66138Z" fill="#112445"/>
<path d="M8.07792 12.9143H0V46.113H8.07792V12.9143Z" fill="#FD5001"/>
<path d="M35.2651 12.5068L35.2012 46.1215H43.2073V12.5068H35.2651Z" fill="#FD5001"/>
<path d="M84.89 30.3373C89.6793 28.5288 93.1435 23.5872 93.1435 17.8135C93.1435 10.469 87.5081 4.47461 80.5237 4.47461H65.9244V46.4527H73.1882V12.1162H80.5237C83.4851 12.1162 85.8798 14.7314 85.8798 17.8135C85.8798 20.8956 83.7645 23.2136 81.0905 23.5108H76.8599V31.2373H76.9318L85.321 46.3762H93.7102L84.898 30.3458L84.89 30.3373Z" fill="#FD5001"/>
<path d="M59.0438 13.5171H51.0298V36.1109H59.0438V13.5171Z" fill="#112445"/>
<path d="M46.8312 4.66138V10.8936H63.2504V4.66138H46.8312Z" fill="#FD5001"/>
<path d="M63.2504 39.8809H46.8312V46.113H63.2504V39.8809Z" fill="#FD5001"/>
<path d="M73.1882 22.1777H65.9324V46.4611H73.1882V22.1777Z" fill="#112445"/>
<path d="M93.7102 46.3762H85.321L76.9318 31.2373H76.8999H76.86V23.5107H81.0905L93.7102 46.3762Z" fill="#112445"/>
<path d="M96.3922 30.9571C96.3922 21.9824 101.357 15.2917 109.076 15.2917C113.713 15.2917 116.579 17.2276 118.287 20.2758V15.8776H125.016V39.0487H127.163V45.6205H122.534C119.006 45.6205 118.287 44.5677 118.287 41.3412V40.8148C116.188 44.3979 113.705 46.3338 109.076 46.2149C101.357 45.9772 96.3922 39.5242 96.3922 30.9571ZM110.68 39.6431C115.31 39.6431 118.295 35.7713 118.295 30.9571C118.295 25.7353 115.318 21.923 110.68 21.8636C106.099 21.8041 103.121 25.7353 103.121 30.9571C103.121 35.7713 106.099 39.6431 110.68 39.6431Z" fill="#112445"/>
<path d="M109.286 48H111.639L119.026 58.5943V48H121.992L121.949 64.5388H119.596L112.252 54.0181V64.5388H109.286V48Z" fill="#587D71"/>
<path d="M124.587 48H128.466C132.887 48 134.028 50.3249 134.028 53.1353C134.028 55.2836 132.93 56.5931 131.603 56.8138C133.514 57.5643 134.028 58.9915 134.028 60.978V64.5388H131.062V60.978C131.062 59.1681 130.748 58.1234 127.981 58.1234H125.814V64.5388H122.847V49.8246C122.847 48.5444 123.404 48 124.573 48H124.587ZM127.981 55.313C130.263 55.313 131.062 55.0334 131.062 53.1353C131.062 51.3254 130.434 50.8104 128.224 50.8104H125.814V55.3277H127.981V55.313Z" fill="#587D71"/>
<path d="M137.137 48L140.474 58.3441L142.898 48H145.18L147.59 58.3441L150.912 48H154.121L148.488 64.5388H146.035L144.039 56.0928L142.056 64.5388H139.575L133.942 48H137.151H137.137Z" fill="#587D71"/>
</svg>
